<mxfile host="app.diagrams.net" agent="Mozilla/5.0 (Windows NT 10.0; Win64; x64) AppleWebKit/537.36 (KHTML, like Gecko) Chrome/127.0.0.0 Safari/537.36" version="24.7.7">
  <diagram name="Página-1" id="EWqs9hb0-4AYAUE8VUin">
    <mxGraphModel dx="3112" dy="1051" grid="0" gridSize="10" guides="1" tooltips="1" connect="1" arrows="1" fold="1" page="0" pageScale="1" pageWidth="827" pageHeight="1169" math="0" shadow="0">
      <root>
        <mxCell id="0" />
        <mxCell id="1" parent="0" />
        <mxCell id="snlpnrg-AWKBmWTkGAsz-2" value="" style="shape=table;startSize=0;container=1;collapsible=0;childLayout=tableLayout;" vertex="1" parent="1">
          <mxGeometry x="73" y="470" width="1428" height="276.66666666666663" as="geometry" />
        </mxCell>
        <mxCell id="snlpnrg-AWKBmWTkGAsz-3" value="" style="shape=tableRow;horizontal=0;startSize=0;swimlaneHead=0;swimlaneBody=0;strokeColor=inherit;top=0;left=0;bottom=0;right=0;collapsible=0;dropTarget=0;fillColor=none;points=[[0,0.5],[1,0.5]];portConstraint=eastwest;" vertex="1" parent="snlpnrg-AWKBmWTkGAsz-2">
          <mxGeometry width="1428" height="46" as="geometry" />
        </mxCell>
        <mxCell id="snlpnrg-AWKBmWTkGAsz-4" value="Actor" style="shape=partialRectangle;html=1;whiteSpace=wrap;connectable=0;strokeColor=inherit;overflow=hidden;fillColor=none;top=0;left=0;bottom=0;right=0;pointerEvents=1;" vertex="1" parent="snlpnrg-AWKBmWTkGAsz-3">
          <mxGeometry width="193" height="46" as="geometry">
            <mxRectangle width="193" height="46" as="alternateBounds" />
          </mxGeometry>
        </mxCell>
        <mxCell id="snlpnrg-AWKBmWTkGAsz-5" value="" style="shape=partialRectangle;html=1;whiteSpace=wrap;connectable=0;strokeColor=inherit;overflow=hidden;fillColor=none;top=0;left=0;bottom=0;right=0;pointerEvents=1;rowspan=1;colspan=3;" vertex="1" parent="snlpnrg-AWKBmWTkGAsz-3">
          <mxGeometry x="193" width="741" height="46" as="geometry">
            <mxRectangle width="247" height="46" as="alternateBounds" />
          </mxGeometry>
        </mxCell>
        <mxCell id="snlpnrg-AWKBmWTkGAsz-104" style="shape=partialRectangle;html=1;whiteSpace=wrap;connectable=0;strokeColor=inherit;overflow=hidden;fillColor=none;top=0;left=0;bottom=0;right=0;pointerEvents=1;" vertex="1" visible="0" parent="snlpnrg-AWKBmWTkGAsz-3">
          <mxGeometry x="440" width="247" height="46" as="geometry">
            <mxRectangle width="247" height="46" as="alternateBounds" />
          </mxGeometry>
        </mxCell>
        <mxCell id="snlpnrg-AWKBmWTkGAsz-112" style="shape=partialRectangle;html=1;whiteSpace=wrap;connectable=0;strokeColor=inherit;overflow=hidden;fillColor=none;top=0;left=0;bottom=0;right=0;pointerEvents=1;" vertex="1" visible="0" parent="snlpnrg-AWKBmWTkGAsz-3">
          <mxGeometry x="687" width="247" height="46" as="geometry">
            <mxRectangle width="247" height="46" as="alternateBounds" />
          </mxGeometry>
        </mxCell>
        <mxCell id="snlpnrg-AWKBmWTkGAsz-118" style="shape=partialRectangle;html=1;whiteSpace=wrap;connectable=0;strokeColor=inherit;overflow=hidden;fillColor=none;top=0;left=0;bottom=0;right=0;pointerEvents=1;" vertex="1" parent="snlpnrg-AWKBmWTkGAsz-3">
          <mxGeometry x="934" width="247" height="46" as="geometry">
            <mxRectangle width="247" height="46" as="alternateBounds" />
          </mxGeometry>
        </mxCell>
        <mxCell id="snlpnrg-AWKBmWTkGAsz-124" style="shape=partialRectangle;html=1;whiteSpace=wrap;connectable=0;strokeColor=inherit;overflow=hidden;fillColor=none;top=0;left=0;bottom=0;right=0;pointerEvents=1;" vertex="1" parent="snlpnrg-AWKBmWTkGAsz-3">
          <mxGeometry x="1181" width="247" height="46" as="geometry">
            <mxRectangle width="247" height="46" as="alternateBounds" />
          </mxGeometry>
        </mxCell>
        <mxCell id="snlpnrg-AWKBmWTkGAsz-7" value="" style="shape=tableRow;horizontal=0;startSize=0;swimlaneHead=0;swimlaneBody=0;strokeColor=inherit;top=0;left=0;bottom=0;right=0;collapsible=0;dropTarget=0;fillColor=none;points=[[0,0.5],[1,0.5]];portConstraint=eastwest;" vertex="1" parent="snlpnrg-AWKBmWTkGAsz-2">
          <mxGeometry y="46" width="1428" height="47" as="geometry" />
        </mxCell>
        <mxCell id="snlpnrg-AWKBmWTkGAsz-8" value="Descripción" style="shape=partialRectangle;html=1;whiteSpace=wrap;connectable=0;strokeColor=inherit;overflow=hidden;fillColor=none;top=0;left=0;bottom=0;right=0;pointerEvents=1;" vertex="1" parent="snlpnrg-AWKBmWTkGAsz-7">
          <mxGeometry width="193" height="47" as="geometry">
            <mxRectangle width="193" height="47" as="alternateBounds" />
          </mxGeometry>
        </mxCell>
        <mxCell id="snlpnrg-AWKBmWTkGAsz-9" value="" style="shape=partialRectangle;html=1;whiteSpace=wrap;connectable=0;strokeColor=inherit;overflow=hidden;fillColor=none;top=0;left=0;bottom=0;right=0;pointerEvents=1;rowspan=1;colspan=5;" vertex="1" parent="snlpnrg-AWKBmWTkGAsz-7">
          <mxGeometry x="193" width="1235" height="47" as="geometry">
            <mxRectangle width="247" height="47" as="alternateBounds" />
          </mxGeometry>
        </mxCell>
        <mxCell id="snlpnrg-AWKBmWTkGAsz-105" style="shape=partialRectangle;html=1;whiteSpace=wrap;connectable=0;strokeColor=inherit;overflow=hidden;fillColor=none;top=0;left=0;bottom=0;right=0;pointerEvents=1;" vertex="1" visible="0" parent="snlpnrg-AWKBmWTkGAsz-7">
          <mxGeometry x="440" width="247" height="47" as="geometry">
            <mxRectangle width="247" height="47" as="alternateBounds" />
          </mxGeometry>
        </mxCell>
        <mxCell id="snlpnrg-AWKBmWTkGAsz-113" style="shape=partialRectangle;html=1;whiteSpace=wrap;connectable=0;strokeColor=inherit;overflow=hidden;fillColor=none;top=0;left=0;bottom=0;right=0;pointerEvents=1;" vertex="1" visible="0" parent="snlpnrg-AWKBmWTkGAsz-7">
          <mxGeometry x="687" width="247" height="47" as="geometry">
            <mxRectangle width="247" height="47" as="alternateBounds" />
          </mxGeometry>
        </mxCell>
        <mxCell id="snlpnrg-AWKBmWTkGAsz-119" style="shape=partialRectangle;html=1;whiteSpace=wrap;connectable=0;strokeColor=inherit;overflow=hidden;fillColor=none;top=0;left=0;bottom=0;right=0;pointerEvents=1;" vertex="1" visible="0" parent="snlpnrg-AWKBmWTkGAsz-7">
          <mxGeometry x="934" width="247" height="47" as="geometry">
            <mxRectangle width="247" height="47" as="alternateBounds" />
          </mxGeometry>
        </mxCell>
        <mxCell id="snlpnrg-AWKBmWTkGAsz-125" style="shape=partialRectangle;html=1;whiteSpace=wrap;connectable=0;strokeColor=inherit;overflow=hidden;fillColor=none;top=0;left=0;bottom=0;right=0;pointerEvents=1;" vertex="1" visible="0" parent="snlpnrg-AWKBmWTkGAsz-7">
          <mxGeometry x="1181" width="247" height="47" as="geometry">
            <mxRectangle width="247" height="47" as="alternateBounds" />
          </mxGeometry>
        </mxCell>
        <mxCell id="snlpnrg-AWKBmWTkGAsz-11" value="" style="shape=tableRow;horizontal=0;startSize=0;swimlaneHead=0;swimlaneBody=0;strokeColor=inherit;top=0;left=0;bottom=0;right=0;collapsible=0;dropTarget=0;fillColor=none;points=[[0,0.5],[1,0.5]];portConstraint=eastwest;" vertex="1" parent="snlpnrg-AWKBmWTkGAsz-2">
          <mxGeometry y="93" width="1428" height="46" as="geometry" />
        </mxCell>
        <mxCell id="snlpnrg-AWKBmWTkGAsz-12" value="Características" style="shape=partialRectangle;html=1;whiteSpace=wrap;connectable=0;strokeColor=inherit;overflow=hidden;fillColor=none;top=0;left=0;bottom=0;right=0;pointerEvents=1;" vertex="1" parent="snlpnrg-AWKBmWTkGAsz-11">
          <mxGeometry width="193" height="46" as="geometry">
            <mxRectangle width="193" height="46" as="alternateBounds" />
          </mxGeometry>
        </mxCell>
        <mxCell id="snlpnrg-AWKBmWTkGAsz-13" value="" style="shape=partialRectangle;html=1;whiteSpace=wrap;connectable=0;strokeColor=inherit;overflow=hidden;fillColor=none;top=0;left=0;bottom=0;right=0;pointerEvents=1;rowspan=1;colspan=5;" vertex="1" parent="snlpnrg-AWKBmWTkGAsz-11">
          <mxGeometry x="193" width="1235" height="46" as="geometry">
            <mxRectangle width="247" height="46" as="alternateBounds" />
          </mxGeometry>
        </mxCell>
        <mxCell id="snlpnrg-AWKBmWTkGAsz-106" style="shape=partialRectangle;html=1;whiteSpace=wrap;connectable=0;strokeColor=inherit;overflow=hidden;fillColor=none;top=0;left=0;bottom=0;right=0;pointerEvents=1;" vertex="1" visible="0" parent="snlpnrg-AWKBmWTkGAsz-11">
          <mxGeometry x="440" width="247" height="46" as="geometry">
            <mxRectangle width="247" height="46" as="alternateBounds" />
          </mxGeometry>
        </mxCell>
        <mxCell id="snlpnrg-AWKBmWTkGAsz-114" style="shape=partialRectangle;html=1;whiteSpace=wrap;connectable=0;strokeColor=inherit;overflow=hidden;fillColor=none;top=0;left=0;bottom=0;right=0;pointerEvents=1;" vertex="1" visible="0" parent="snlpnrg-AWKBmWTkGAsz-11">
          <mxGeometry x="687" width="247" height="46" as="geometry">
            <mxRectangle width="247" height="46" as="alternateBounds" />
          </mxGeometry>
        </mxCell>
        <mxCell id="snlpnrg-AWKBmWTkGAsz-120" style="shape=partialRectangle;html=1;whiteSpace=wrap;connectable=0;strokeColor=inherit;overflow=hidden;fillColor=none;top=0;left=0;bottom=0;right=0;pointerEvents=1;" vertex="1" visible="0" parent="snlpnrg-AWKBmWTkGAsz-11">
          <mxGeometry x="934" width="247" height="46" as="geometry">
            <mxRectangle width="247" height="46" as="alternateBounds" />
          </mxGeometry>
        </mxCell>
        <mxCell id="snlpnrg-AWKBmWTkGAsz-126" style="shape=partialRectangle;html=1;whiteSpace=wrap;connectable=0;strokeColor=inherit;overflow=hidden;fillColor=none;top=0;left=0;bottom=0;right=0;pointerEvents=1;" vertex="1" visible="0" parent="snlpnrg-AWKBmWTkGAsz-11">
          <mxGeometry x="1181" width="247" height="46" as="geometry">
            <mxRectangle width="247" height="46" as="alternateBounds" />
          </mxGeometry>
        </mxCell>
        <mxCell id="snlpnrg-AWKBmWTkGAsz-15" value="" style="shape=tableRow;horizontal=0;startSize=0;swimlaneHead=0;swimlaneBody=0;strokeColor=inherit;top=0;left=0;bottom=0;right=0;collapsible=0;dropTarget=0;fillColor=none;points=[[0,0.5],[1,0.5]];portConstraint=eastwest;" vertex="1" parent="snlpnrg-AWKBmWTkGAsz-2">
          <mxGeometry y="139" width="1428" height="46" as="geometry" />
        </mxCell>
        <mxCell id="snlpnrg-AWKBmWTkGAsz-16" value="Relaciones" style="shape=partialRectangle;html=1;whiteSpace=wrap;connectable=0;strokeColor=inherit;overflow=hidden;fillColor=none;top=0;left=0;bottom=0;right=0;pointerEvents=1;" vertex="1" parent="snlpnrg-AWKBmWTkGAsz-15">
          <mxGeometry width="193" height="46" as="geometry">
            <mxRectangle width="193" height="46" as="alternateBounds" />
          </mxGeometry>
        </mxCell>
        <mxCell id="snlpnrg-AWKBmWTkGAsz-17" value="" style="shape=partialRectangle;html=1;whiteSpace=wrap;connectable=0;strokeColor=inherit;overflow=hidden;fillColor=none;top=0;left=0;bottom=0;right=0;pointerEvents=1;rowspan=1;colspan=5;" vertex="1" parent="snlpnrg-AWKBmWTkGAsz-15">
          <mxGeometry x="193" width="1235" height="46" as="geometry">
            <mxRectangle width="247" height="46" as="alternateBounds" />
          </mxGeometry>
        </mxCell>
        <mxCell id="snlpnrg-AWKBmWTkGAsz-107" style="shape=partialRectangle;html=1;whiteSpace=wrap;connectable=0;strokeColor=inherit;overflow=hidden;fillColor=none;top=0;left=0;bottom=0;right=0;pointerEvents=1;" vertex="1" visible="0" parent="snlpnrg-AWKBmWTkGAsz-15">
          <mxGeometry x="440" width="247" height="46" as="geometry">
            <mxRectangle width="247" height="46" as="alternateBounds" />
          </mxGeometry>
        </mxCell>
        <mxCell id="snlpnrg-AWKBmWTkGAsz-115" style="shape=partialRectangle;html=1;whiteSpace=wrap;connectable=0;strokeColor=inherit;overflow=hidden;fillColor=none;top=0;left=0;bottom=0;right=0;pointerEvents=1;" vertex="1" visible="0" parent="snlpnrg-AWKBmWTkGAsz-15">
          <mxGeometry x="687" width="247" height="46" as="geometry">
            <mxRectangle width="247" height="46" as="alternateBounds" />
          </mxGeometry>
        </mxCell>
        <mxCell id="snlpnrg-AWKBmWTkGAsz-121" style="shape=partialRectangle;html=1;whiteSpace=wrap;connectable=0;strokeColor=inherit;overflow=hidden;fillColor=none;top=0;left=0;bottom=0;right=0;pointerEvents=1;" vertex="1" visible="0" parent="snlpnrg-AWKBmWTkGAsz-15">
          <mxGeometry x="934" width="247" height="46" as="geometry">
            <mxRectangle width="247" height="46" as="alternateBounds" />
          </mxGeometry>
        </mxCell>
        <mxCell id="snlpnrg-AWKBmWTkGAsz-127" style="shape=partialRectangle;html=1;whiteSpace=wrap;connectable=0;strokeColor=inherit;overflow=hidden;fillColor=none;top=0;left=0;bottom=0;right=0;pointerEvents=1;" vertex="1" visible="0" parent="snlpnrg-AWKBmWTkGAsz-15">
          <mxGeometry x="1181" width="247" height="46" as="geometry">
            <mxRectangle width="247" height="46" as="alternateBounds" />
          </mxGeometry>
        </mxCell>
        <mxCell id="snlpnrg-AWKBmWTkGAsz-19" value="" style="shape=tableRow;horizontal=0;startSize=0;swimlaneHead=0;swimlaneBody=0;strokeColor=inherit;top=0;left=0;bottom=0;right=0;collapsible=0;dropTarget=0;fillColor=none;points=[[0,0.5],[1,0.5]];portConstraint=eastwest;" vertex="1" parent="snlpnrg-AWKBmWTkGAsz-2">
          <mxGeometry y="185" width="1428" height="46" as="geometry" />
        </mxCell>
        <mxCell id="snlpnrg-AWKBmWTkGAsz-20" value="Referencias" style="shape=partialRectangle;html=1;whiteSpace=wrap;connectable=0;strokeColor=inherit;overflow=hidden;fillColor=none;top=0;left=0;bottom=0;right=0;pointerEvents=1;" vertex="1" parent="snlpnrg-AWKBmWTkGAsz-19">
          <mxGeometry width="193" height="46" as="geometry">
            <mxRectangle width="193" height="46" as="alternateBounds" />
          </mxGeometry>
        </mxCell>
        <mxCell id="snlpnrg-AWKBmWTkGAsz-21" value="" style="shape=partialRectangle;html=1;whiteSpace=wrap;connectable=0;strokeColor=inherit;overflow=hidden;fillColor=none;top=0;left=0;bottom=0;right=0;pointerEvents=1;rowspan=1;colspan=5;" vertex="1" parent="snlpnrg-AWKBmWTkGAsz-19">
          <mxGeometry x="193" width="1235" height="46" as="geometry">
            <mxRectangle width="247" height="46" as="alternateBounds" />
          </mxGeometry>
        </mxCell>
        <mxCell id="snlpnrg-AWKBmWTkGAsz-108" style="shape=partialRectangle;html=1;whiteSpace=wrap;connectable=0;strokeColor=inherit;overflow=hidden;fillColor=none;top=0;left=0;bottom=0;right=0;pointerEvents=1;" vertex="1" visible="0" parent="snlpnrg-AWKBmWTkGAsz-19">
          <mxGeometry x="440" width="247" height="46" as="geometry">
            <mxRectangle width="247" height="46" as="alternateBounds" />
          </mxGeometry>
        </mxCell>
        <mxCell id="snlpnrg-AWKBmWTkGAsz-116" style="shape=partialRectangle;html=1;whiteSpace=wrap;connectable=0;strokeColor=inherit;overflow=hidden;fillColor=none;top=0;left=0;bottom=0;right=0;pointerEvents=1;" vertex="1" visible="0" parent="snlpnrg-AWKBmWTkGAsz-19">
          <mxGeometry x="687" width="247" height="46" as="geometry">
            <mxRectangle width="247" height="46" as="alternateBounds" />
          </mxGeometry>
        </mxCell>
        <mxCell id="snlpnrg-AWKBmWTkGAsz-122" style="shape=partialRectangle;html=1;whiteSpace=wrap;connectable=0;strokeColor=inherit;overflow=hidden;fillColor=none;top=0;left=0;bottom=0;right=0;pointerEvents=1;" vertex="1" visible="0" parent="snlpnrg-AWKBmWTkGAsz-19">
          <mxGeometry x="934" width="247" height="46" as="geometry">
            <mxRectangle width="247" height="46" as="alternateBounds" />
          </mxGeometry>
        </mxCell>
        <mxCell id="snlpnrg-AWKBmWTkGAsz-128" style="shape=partialRectangle;html=1;whiteSpace=wrap;connectable=0;strokeColor=inherit;overflow=hidden;fillColor=none;top=0;left=0;bottom=0;right=0;pointerEvents=1;" vertex="1" visible="0" parent="snlpnrg-AWKBmWTkGAsz-19">
          <mxGeometry x="1181" width="247" height="46" as="geometry">
            <mxRectangle width="247" height="46" as="alternateBounds" />
          </mxGeometry>
        </mxCell>
        <mxCell id="snlpnrg-AWKBmWTkGAsz-23" value="" style="shape=tableRow;horizontal=0;startSize=0;swimlaneHead=0;swimlaneBody=0;strokeColor=inherit;top=0;left=0;bottom=0;right=0;collapsible=0;dropTarget=0;fillColor=none;points=[[0,0.5],[1,0.5]];portConstraint=eastwest;" vertex="1" parent="snlpnrg-AWKBmWTkGAsz-2">
          <mxGeometry y="231" width="1428" height="46" as="geometry" />
        </mxCell>
        <mxCell id="snlpnrg-AWKBmWTkGAsz-24" value="Autor" style="shape=partialRectangle;html=1;whiteSpace=wrap;connectable=0;strokeColor=inherit;overflow=hidden;fillColor=none;top=0;left=0;bottom=0;right=0;pointerEvents=1;" vertex="1" parent="snlpnrg-AWKBmWTkGAsz-23">
          <mxGeometry width="193" height="46" as="geometry">
            <mxRectangle width="193" height="46" as="alternateBounds" />
          </mxGeometry>
        </mxCell>
        <mxCell id="snlpnrg-AWKBmWTkGAsz-25" value="" style="shape=partialRectangle;html=1;whiteSpace=wrap;connectable=0;strokeColor=inherit;overflow=hidden;fillColor=none;top=0;left=0;bottom=0;right=0;pointerEvents=1;" vertex="1" parent="snlpnrg-AWKBmWTkGAsz-23">
          <mxGeometry x="193" width="247" height="46" as="geometry">
            <mxRectangle width="247" height="46" as="alternateBounds" />
          </mxGeometry>
        </mxCell>
        <mxCell id="snlpnrg-AWKBmWTkGAsz-109" value="" style="shape=partialRectangle;html=1;whiteSpace=wrap;connectable=0;strokeColor=inherit;overflow=hidden;fillColor=none;top=0;left=0;bottom=0;right=0;pointerEvents=1;" vertex="1" parent="snlpnrg-AWKBmWTkGAsz-23">
          <mxGeometry x="440" width="247" height="46" as="geometry">
            <mxRectangle width="247" height="46" as="alternateBounds" />
          </mxGeometry>
        </mxCell>
        <mxCell id="snlpnrg-AWKBmWTkGAsz-117" style="shape=partialRectangle;html=1;whiteSpace=wrap;connectable=0;strokeColor=inherit;overflow=hidden;fillColor=none;top=0;left=0;bottom=0;right=0;pointerEvents=1;" vertex="1" parent="snlpnrg-AWKBmWTkGAsz-23">
          <mxGeometry x="687" width="247" height="46" as="geometry">
            <mxRectangle width="247" height="46" as="alternateBounds" />
          </mxGeometry>
        </mxCell>
        <mxCell id="snlpnrg-AWKBmWTkGAsz-123" style="shape=partialRectangle;html=1;whiteSpace=wrap;connectable=0;strokeColor=inherit;overflow=hidden;fillColor=none;top=0;left=0;bottom=0;right=0;pointerEvents=1;" vertex="1" parent="snlpnrg-AWKBmWTkGAsz-23">
          <mxGeometry x="934" width="247" height="46" as="geometry">
            <mxRectangle width="247" height="46" as="alternateBounds" />
          </mxGeometry>
        </mxCell>
        <mxCell id="snlpnrg-AWKBmWTkGAsz-129" style="shape=partialRectangle;html=1;whiteSpace=wrap;connectable=0;strokeColor=inherit;overflow=hidden;fillColor=none;top=0;left=0;bottom=0;right=0;pointerEvents=1;" vertex="1" parent="snlpnrg-AWKBmWTkGAsz-23">
          <mxGeometry x="1181" width="247" height="46" as="geometry">
            <mxRectangle width="247" height="46" as="alternateBounds" />
          </mxGeometry>
        </mxCell>
        <mxCell id="snlpnrg-AWKBmWTkGAsz-36" value="" style="shape=image;verticalLabelPosition=bottom;labelBackgroundColor=default;verticalAlign=top;aspect=fixed;imageAspect=0;image=data:image/png,iVBORw0KGgoAAAANSUhEUgAAAeYAAAFGCAYAAAC/jzwhAAAAAXNSR0IArs4c6QAAAARnQU1BAACxjwv8YQUAAAAJcEhZcwAADsMAAA7DAcdvqGQAAP+lSURBVHhe7J0FeFRX+rjf+MTd3YO7u2uLFCtFatTd2617S0uBGlDcPTjBkkAgIRB3d3efZDIz938mhJb+d7fb7q/b7e7Oy3Ofds7ce+6R73xy7+R8OpIALVq0aNGiRcufAt3u/2rRokWLFi1a/gT8GDHHxcURHh7eVahFixYtWrRo+f2YPXs2AQEB3Z/+ARrDrOGrr77SGGjtoT20h/bQHtpDe/zOx6FDh7qt7T/mx4h57dq1PP/8811WfeLEiZoiLX8wL7zwAubm5rz33nvdJVq0aNHyx7N+/XoKCgp49tlnsbKy6i7V8s8QEhJCdHQ0wjCzYMGC7tJf5q8M8+eff87LL7/c9aWWPxZdXV2cnJwoKyvrLtGiRYuWP55Ro0YRGRnZZVDc3Ny6S38rCipuniJKfwgzersiM9AFtZLmqjQux8uYMCMA0+4z/y7qVioLGjFysUU3L4wQ5WDmOBVwcNNRsh2HMtrFGr8JY/Ax+Q0/l2pO5VCImukL+2DeXfSv5O2332bLli2/yTD/6t6oKyP58v5lLFq0hAe/iqBS3f3FP0LdTFnaZXbtuEphvRxVd7GWPwhVC8U3j7DmL++xI7pULBWBupHMkAMcOX2NosbOrtP+GdSN2ZzcEEzItQKaVV3+3e9EC5nHv2D1hWwUqr8laCqaS+I5d/YQF7Mbu54T/ZxWcs+u4/GX9xNfK2Tu7zZNTUdTKfE3oonNqOSfHwktWv5XkFB2NFIUH8a5k6dJrrm1aqT2BkqSL7Hj3DUSylrEytKgoqkgltiiejrVtxehWHONJSQmV97SRf+I1gJCd98gt0aOnq03gXYyOiqSOVfvwuC+fnj5uGOlr9N98q+kvYybN0vp6P74j1BVp3Dy0hUiM6uQd3ZbMFUxFzcc43p21a+u57fwKw1zKwURwXx7+FCX1T/6/UkSK3/VsKIqj2PDRx/zwalYyjqU3aVa/iik9ibyY0PZ9O0+juy7Sm6DmIPOevIi8ykrkqPW+41C/SMSnXX5RGTkkd+iQPpnq/lbqOvJPB9DY+ffEU+pg7qCDNKj0mj8K5ESC7/kBntOXCHuaDgZlW2o/+5fBCppLIonMjqCzGa19k8UtGj5u0ioOhvJv3mRw1vXsT+pAQMHLxx0myhOuMDmHfvYf7UGW1t7HCyM+Ct1oG4g+cBnLF/5AutOJtAgqZDXZnH+hw95eOWzfLA5lOyidE4d3cQbLz7J4yuf5MM9Ydy4EkJw6Pe8uS2czOxYrsedY8sbW0lMiuBGaQ21yemUNVSQdGYT7zz8JG9+dYqkomJSQ3fx9gurWLr0KT7cGUFBfTXZIRt5/KGneXdHBFVqNZ2tJVzZ/C5Ll6/i+U+OcDMnl+tH1/PI0vt59rPdRBY2dzn9uma2uBl3UHRpA29vOsCF5HI61BZ4+hpQFLGbV1/ZRmhyCUKF/G78Ol3Ulsv5bSepkPdg8uS+tJYdYcPpDNq6vhSKsLmMmGNreWbhZEaMmM7KFzYSlllDW2kkq9/6lC3HL5NzcQ0Pz/qE0yLCUaqayQ7fzuszRojzJ3L3wk84eqOQJrWS+uxQvnppAROXLeexB+/lnvEPsPpgPFXy//VYWxjCxnIyLu/mgz2nichv7PZKNbRRJgT14Cdvsi+tqbtMg5r2ljqKOySc75qAv1kGcUVi/IUgJ0um6Lk6Y9yaztHPn2TWpDGMmPE6+xIrUQrvViHKDz5/L0++/AIrx8xi6TNfs3PrJ6yaPJWlL23kcn49tWV51ErJhH33LEvEPL13MI7qNgWtibtY/PwXfPXuSqa9cYKExLOseeEeRoyZzco3RBRb3d7dvtsIGapJ5cSaZ5gzeTb3v/w5e0+b4uNsgbzoOpvfXMKIUROZ8+hGrpXLhT2V01jejLzGGicr2c+VgLqRtHPnqfPpx2irGiqFYdbYZUmloDb9IutfXsiIyXexfPVRouKucvCHr/hs9V5OHg8l+sZFNj6zghkjRjD1qXVcyq6lQ0TsrUm7WNLdn+lvnqesa+A7qcu/yYl1X7I/IonCujv61JJF8MZd7NpzkdSKRlHH3w3ZtWj5j0ASurkh8SSffHIRZZ/5LJw+nqF9XZEnnxZyfo5m9+HMv3sy4/t442Rq8P8ZZom29NOsjrdi4aqlDLURRq69noy4CC40B7Do/ln46lQRH5pImoikO6yHMXt2L8qKK6g1dsXXfjQLxgZhKQxpdqc3k5dOwGfiEub6m4g1mENeahJx4XUEzJlJT6pJvFyCcY/xLH3wCZ5aGERBZDI3L59gfQyMXnwvU9zUFEpKqhLPsDnRnoXCzoy0LCdk0yXi8kW0bzOc2XeNJcjeuKv1OsaO9Oo/nMl3L2GBWyXfvL2P8GIdvEaPYdK0u1g0QsWl99dxIrWh6/zfg19hmIViyormYJIYsEH38PJLS+jfXkHcwatkt6pRtpYTc2gdLz/xAVtPhHH9+kWh7D7hnW8PcTO7mLy8YupaO5AaikiLyxOKW075pXXct/wVvr1wXZwfztkTn/P8U8KzOZgozq2jMDOBcBGd79p3lJPxZWiCPJ1/OrL7D0fZSnV+DEe/eYsnX32P7Qn6DO/VgyBnExSVmUSf+4HnJz3EZyfTUPa/m4meJt0XahAGr62O1maJ4ZMm4m2pT3JCPsXlhZTK1Bhb1XJ59T7i5IN45uM1fLpIh+/WXyC7vZOO3CgOHShE12MCy16agU3uKULrA1jw2F2YKTO5mJpFbmYBOnJHpj76Bq8/6seNizdJqWqgMucmF8+mYzzxOT6da8CVb87ApFfYsPpZRtjkseNoErV3epcdZUTt2cXlBn8efPs5JhsUEWXkiLN5Poff20L5kGfY+M1HLO9bxjdbr1PRIaeuQXjc5j642Bp2V6JBjTwnnO/i7RgyYSojRnaSU1mPSuNo1Cdw4LNNlPRYxeq3H6B321X2J7fj6jGJe6Y+xiMzLAk9d41sr9m8tvYTHnBI42hYLBXNrdTkxHAxJB3ZxOdZ99gw7LpEUR8LB296j+qNOvkkX33yCq9vDCE5v5o2mRsjRgfgYF7Ioeee5Z012zkZW0R7p6rLA9ei5T8OHT1M/YazaI4PVSKo2hueTFEt2AUOZ8JIX2piL3LgbJwoa/0br4TEuqwSOse1P5OHD6B/L19sO9upzBKO7Y4veP/t9/jq2wOER+dTa+aG/9ARjBoSgJmBHromFliZuODvZouJvi46RjZ4BLlh4eqPn50JOp0dNFY10qDTg2GTJzPn/nnMnuqFTmMN5akR7DhwnIjEPCrKiii28WXEkIEMHtATZ81j9rpyWvuNYtqYIQzp64V9ZTmNZg64DR/OkCB3bEz0ux0MhQgEsrlxaisbbrYzYek4BjjKUFTncfPiQb45WIb3ojmM9DbrOvv34FcY5mYyI8PJajZh2D3jGT5sAvOGWNKUGUpUVj0tVdlcPX+eDPNhPPntBZJigvnLDA/yDpzlUoknL37yEjP6emI44Q2OxH7OQo98dry6lqQaNxZ9HUZqVgyHP1mAe24cVw9dIb321rNJyX44930eTEzSbl6Z2xsbg/9Fw9wuhOscXz39DnuTfFn5+vu8+uAcxvX2xK49lZ1PP8UDGyoY++kH/OWp+5g7cSAOJnrd1wqEVyhvbqC9wpAevXrR18wYw/gobqYUIjPSwbIxl/NttvhPnsiowYMYPWUEPeNyKWlS0FRWQO6Ih3h0xWj8rG2w0xvMPXPG09PDDi8HMzytdGnMN8HfdySjRwxj2CB/ZGXNNLRVk34jg0EPL+feIYFYloWxdvdWPnhgHrPmL+cvXwWTl1NL648WSiza4kSCC+0IGD+d8SNHM2FsP3RG+2KWe4Evjxzgi1X3MHP2PTzxwV6yUyupbayjSGqgZYAXDnfKRXsxlw/E4jVoIKP9e9JvpBsJ5fUo1CrqEs6xs2M6KxZPENH3bJ56/k3+Mt6ZRj1dpH5+WHSUIDc0F9H0BEYOGcnEMQEUVNVTLa8mU9Ofh5azdFgfAt0sMey6pQ76JjZ49p/A3OVP8aZoo0PqZh56Yw2nM9qwDxrI+KlLeG79B8yzjeb1pc/yTWRF19MILVr+09DR0cHI0ptxi+/j/oceZZJpAZEnDhGvdGfwjBW88vA8JrsWs+dcOJH5DWJV34kOhsYmtMdlUCjvoK6shCpdYegdfRhx7xt8u/MgJ05v4v0XxuFuZYiBkQEGYl3qinv+Q62vq4u+ngJFYyFl1SKoiwrj5Kbv+fJkDEVOY3hsxV0McrXFVGZMZ1q+0G1t1JcKJ0HUbGRghDw1jzJRVlteKqJomWinHnri/vq6P91ZVRrL4WuZNAfey7vPPM6qu/thb1hA8NowWrzv5tP1z7L07mF4mup3X/F/5x8YZgmpNZerwTdoaenDPSIKMDb2Z/S8ATQ13eCYaGxDexP1VXKs3HoydORgeg2YySs7QkjP2c8bi4fgY2eJsaHwPIwtcXCxxri+kJuZLRh43MXyJaPo4deb0XcvZtpYGyoqk8koufUo1tTdg159exIoDIGliQF6YpL+9zDCMWg8j3z4HFMdr/PFq8/x3tYLpBXX0W7Ri8Uff8gXCw04tPxxXvtqLyEJZXTesSIkZTuNudWUZvsS6OOBd19r2k2TOHe1DCdDKwyEMLd6CeMi5sVEV0JemstNL0dsTRXkpcViIgx9gKGK2tJyUq370sNDh/q8apTFhrjqNJHUZIyOmyf2Fnp0trfRbidDpldP4XU35o3thYleG/m5mXiuvkRuTgZpGVnkp4ex/4MpuP0oecJzrS6hzcMeTzc7zPU6aaytwznQirbU6+i9foL8nEzS0jPIyYojfPNcnNvrUAq5cxcLTnZbLIQTUp8Wwb6QQ3z25F30dndj4EObuX49m2q1kpa6Kjp6+uMhvGBdXQNMzC0wVjfTbNiJdZCFWKD1WMlt8XG0RF9HePMFhdhbGmOl1yD648rcsT2FB3/nchFrQ9VOnXAqzu36ite+2Eiywzy+eO1RpgRZ0VmdS+w10ZYVT7I505cXhIF+eKiDkOPuy7Vo+Y9CGEkRNRvITLF28mXI9CWseGglI1xkXWWWTj4MnLKMt+6bxRhPy//PoOpiNmgh7/qHMX/UXD6LaMDFxI6+w8Yypv4wD06fw8rnvuNSVh0d/78ptnCmp9slXv3mDBlN7X/9xEnfDNdBwxjcv5j18+7i+X3pmI2bzOiO6+x46mlWB2eg06YS0f5kXuyVxSvz5vNccCFOOga4DL2LZQb7mDF6Nq+cbGXUk5PwuzOw6UbXeRgPLlnA/DF98LC3xNRI2DN9XxZ99ARzRvXCXZSZCGN+hy3/P/PLhlnqoFCE6t+mV9GoOsdLo50wlNkw7tUzqJoayTx8luiuH4Fphkut2ayk67Kuz2rx+RejA/HdL3xtaG6CmakxBv+TBvk2Ouga2eDVfwqPfLCBA999wkrffDaePE9YVjPmfsOYufQ19mYE8/YMN6r2vsMPibffcwjDoWintrmWfC8PHK1McfTuiUttPkf2J5AnBKt3vz6YFpaTll1MWU4E338dxoiFIwjSKyPloorZAz1Qy+soqM5Df3wQLu3C6JaLKNymL3a6FeSWp5FXVUllznV2bwvFZ3gQvXTryWj1xNvZBD09M7wCB6K4nkhOQwN54bv57C8fcrZAfocQ6yIzsaQlK4/EnEKyow/x5QcZDHfxpe+gUUjXYkltlFObcpJPn3yOA5n1tFRUCIdDR0Tu5txaRhLq1kzObs1i8ENbyahupLlJOIwxGxiRU0eZXMLU0ga95CRSigq4fvAbXnvgOyKKatBrkuNuaYdzTysadUtJzc0n7+YJtgbLGO4fiL2iipQW0R8nE6GYum7WTSc1OTc488NByr1n8OqHW9j65n2M7eeFVWsa+zaHcCPVggU/7ODrj1/iwWm9sTLWLN7/ZXnW8p+PxkDroqdviKGR4Y+R5e0ymaGINoX3eavUmICFH/HhnL5YmHkw5Y3tpKeEs3fN56x/bSJe7sN56LPdxGbGcP7AOyyeNZsXH1rKQ+O8RGA2kU9fWMjUngO466O9RH21kgnz3uSLmV5YDnyEXSvEenLuzcxXHmOstz8TH1vN4dgY4SS/wfyxY1ny5hZCk6+y94fv2HPmTRaPHczEx1dzPS6c/V8LXfrFLNyse7H080Nkp93k0s4XmD1sMHMWrOCthb2486G0jq4+RqJfBppH6bfXr3BSDI2NuiL7f8WK/kXDLCnLiD13k5Z6FZb2zri5uePu7i7+64K9uZLq3POcjmvAzEGfktxrnL4QSXLyJTY8ezcDve7izW0xVCm6ra+8gcrSOuTWXgwNNKOz6CS79l8VRiGJiOMHOH+lEVdnEZW5Wdw6X8v/hw6GNp4MmP0s3z9zHzODbO6YPGEAh83ksXXbeHKgdXeZhELRSp26FYdJATiKxWJo78P4iZOYMaM/Hj722PqP4omxaoLfWcrISWuoGvEML83pgVFTGbkFIxjmZ4aio5HOOl3G93JFt7WZcjM9pCHumHV24tfHFHXEFzw0+wXCZdO4f84QLFuqyB3si4ul8Cp1DXEbu4Tn3M6xYPR0Hvu6jL73P8usoDv/elAPy8DxPDtUQej+nQRXmDF04GAG+9phPeJ+vhuXzH2jRjD7ySi8H32HpX1M6GgVCkC/N/7Ot36cgfCzKxJjyOvTg77je+Fgestc6zv4MpFWGhsl7Ics5Hm/cJaMn80LR9oZ9+YSBjuYUJeaypmdF6h0Hcto6wp2PnMXE14Pxeb+RcJD9kS/upQc0R9nK80PWu5cgobYB41n5cereWLGMPwdbrdFYNmXB958jueemc8gd2tk2jBZixYtv4Ff2GBETUfuCZ5Z8CK7Mvvw6flveWSEi1Aymh/F1nB1w2PMfDOawAWv8OKIUra+v4UbtfW0KnSQmVnheffTfPL6E8w0i+X5B19i55U0WlX3sDH2a2bUbGbBw1+TXlZFs0oXfUNb/IbM5OHXX2aeazrr33qNnYrJrP7oPR4Y7PgPwvr/HrQbjGjRouXPwO+zwYgWDb/zBiMqmmoa6AwIpP+yuxgZaIVB12MLHfQMLOgxcg739etJoIEM72lP8Pn3b/HQ3ImMGDGVxY+8x/rXH2FqkB1Gzv1YvmIeU6eMFd+5Y6FvgPOkZ9m96zOemqr5c6nxzJz7PB+teY9VMwKxNrXBK2gAQ3r4iMjH4FZTtGjRokWLlv8RtFty/onQRsxatGj5M6CNmH8//qVbcmrRokWLFi1a/vX8VcR8zz33MG3atK4vtfyxPPLII1haWrJ69eruEi1atGj54/nss8/Izc3ljTfewNr69g9KtfwzHD9+nKtXr/6miFmbj1l7aA/toT20h/b4Fx/CMHdb23/MX0XMU6ZM6Xq/oOWP591338XMzIyXXnqpu0SLFi1atPwnc/bsWW0+5v9ktD/++m9FTUf5TfbsKGXgw7Pob2fUXa5Fi5b/dp577jnWrVun/fHX30RdT0rwN7y+ej/XixvvyA/6X44kpyo1kpDNx0ntzp2qyZGdE3qKi5cTqGj957N2qZvzOLf9DKHRxbT82zIodVCdcoEj5y6RrMkk1V36e6Equ8qnH4WQ2azoylL16+ikOvE434dcI7tWLtrURn5YCPHtOpj+bFvP30Ibuee+59vwHNqVP9+J+BYqWitSCb8YTGjunZnHbiOcg4JwPn91LcHxVSj+7nyJ81oqSImPIz6zWpujWouWfwO/rCVU5Vxd8zKrlizosvSaY/Fj33I+7//fpPz3RV2fw8nv1/D+t6dIrZJ3l/5aVDQV3WDnZ5/z5bZoyuS3WqpuyOXS8QzkeuZYGhv+rvua/pmROpopSU7iclQlHbd3oGqvJOl0IilJmr1p/1kkOmtzCYtPI7O+DfW/azylNspTksnNKEWu+v0boWPmxvAR3tgY/vUeun8fXUwc/Bng7Yq1sWZje0PsB83hsccm4WPxT250r8lRHXKVkkbl33Y+JAX1hWkkXdakSJX+epvAjnKiDh0jLPwwZ9PKUfxN465BSXNJEpHXQkmp79T+2YYWLf8G9N7VvNgUXL9+nXPnzv38HbNUwbX1n/FNuT/3PbiQKSP8IP4E6/cX4jFmCP5Wd6bc+x3R1cPI3AZXT088nKww/o1RhmYrSFNrBzy83XGxN8NQY4V1Zdj59WX06N542pr8LHvIn4X33nuv6x3ziy++2F1yJ8IQNlWSG3OGrdGl6JrZ42p1OyG5nIrUGC7u3Umq9QB6/vioVELVUk1SfCw31EHMnuqPhRhKRUUyR4WhlvXug1/nZb46Fklm2B4+X32ETAMvBgTYoa9qEobgB95/6i2+OXGBdKUjgV4uWBjdngslNWlhnExNIO/qaYJ3XKbA1I0gTxvIOsyja8Mpi9nO55eNGBrUzrUd63j9L2s5EVWKgbsP1k0x7DsTTh7O+DvpUx19hG2iTeaWelRdP8Tbr37AN5svUGbbi4H+Nvy01Yzok7yOzCv7WfPhZ2w7fY3EqCZMnfoxbLg99TEn+Pzdj1jz3Umydd3pFeCAiU49iQfW8syLH7P3VArtdj74uBvTln+DA999ybsf7uZ6oYS9jx0diUfZLdbBhS17uFArZCntLFcNAxmlE8WTzx8gOXkPq9efpVzmS2/NOLXXk3M9mK+/+IiP916lVMcOH8dOkvddo0bPHmfzKs5v+JSPNh/kZFoHnj2C8DTXoS7lNKvfPk5q7mnWrD9Ejp4HPX3sMf5x+041irpsLu5cw3sf/8DF5DTijikZsHwWA2wbuXHoG158SfTndBoKN00aUB0q4hNJTpDoOX0UXj9zAFQ0pp1hbUQ7Qa7VxBgOZOEgD2TilM7GHMJ2f82rr63l+JVK1CbNxBz9mjXCqW2TeYg5NyTz1AY+/Hg13+xLRO7giZ+LJVLWUZ5aH0bpzW18FGrMuDE+mOt00liSQvjeQyR2mglZthROcHc7WvMI2X+R2Iwq9O1sMDc2+lOuQS1afm9CQkK63jEvWrSInj17dpf+Mr/O4jkEMmz8JKZOu4cH7x+OfuQ2NpzPpk0popXEk3z05ByGD5/Fiue2ciW3DkVrOTePfsH990wW5XN45vMTpNW0oZQ6qc2+xHdPi/NHjGHKsjWcyammviiSDS8sYfqCZSxa+jhvrD7I4YMH2BEcSUFJModeXMWsJctYMW8S40dN5+HPTpDdoECtklMcc4iPHpjO8NHTWaS5f3EjrVXpnNu7jwNn06lVdFCbH8nut5/j+aeXs+iF1RyMLUHeKdpydR1jxtzNE2+8xkPDxzB1zotsjSzl/0/j/29F2UpNYTynfviIl9/5lF1xSnp5e+FtL0NRlU1s6E7emPMUa4TBafEey1BnWfeFGtS0t9ZS3lKOcV9P7LqUvoqW2gpqrA0wc9anKj6cyJgcdIPu4tHZNpzaGEG2XIk85wLfri9lwHOv89x9ozBJOUlo3q3MX11ILZRlFQifwIZRix/hobl2XDl3g5SqRiqzIjlxLAH1oGW8NNuB3BM7ONc2gCfeeoZ5QXqk7TpHVm0L2Vn5xObU0NaUT/ixbBTtEvU3DrL1Bkx+7EXefm0s1Z9uJKz4jrhe1UpZchinTyRiOW4xcwfZUtnQQLO1GS3C2O29VkvQvEd54/XpqPceJjRdyGNxBN9+3cSMV17l4am2JG06RGRygqjjONcNhrLqyZk4VGYScT6W5NgoLlwpxmzsfBaMdaX+ZjZqSS3k/AJHRTsCJz/A47M9yNtxjISKRkoTL4m+xmA2chlPTHOlKCWSsLgUbqbUUd+cx5nP9hHfOYAHX3qNZ3oW8O7qSxQr2ylKCGVPQjmGvSaycJgzdSfPk1p9x4NjRSU3D+8jtNiaGQ8tZYgyj0hh9O0d1eScWMfGHB9WvfMGj93tTu7X+4kpbaa+XkGriQ9utv/fjnnt+VzamoJ73zHMGNWb4oIqqlUq1MoG4g+vZ22GM8teeJSp3g1cPZCK0mIwk4Ys5YEFvlScPE14vBHjVj7Dc3dZcPH4VeJKa6nIjuLk8Tja+y7ljSX9sO6ysXqYWLvg28+X9sQzfPflm7y99QIp+dXIDR3o3c9VOHYFHH3zdT75eg9n44vFOtTmqNai5f/nN4aihlj3G8o4pwbS88opEwZ1+6ffEKY/nTfeXoFPQzS7fzhL+MWjfPfNDfT7PMDrjw0i7/BWtgoj2ViXyN6nn2ZDw0Q+XPcyY9qO8+5fgkmqq6MkKY3iGhdmP/4sj9/ti7Ikh4y8CprbmoWiTyU+tAbXu17g9ZVBxG74kHdOZNJRE8UPz7zJBYsFvP3mYlzyjrBm7SWy6usoysoiu7CeprIEDn32DQeKPFn85ts86pbJly+tJTitmta6Im7cuMTVhiDue3sJLqWhbNsYRn734+9/Px1Upl/imxc/YHeME3c/+jxPLJ3NhL4+OHRmsu+lF1i1sZD+LzzLkw/cw91ThuFmfkekJByhlroKWoX9HOTniFGX8pRTVViChcwQL0s5BTdNmThiBlPHDqevpzEljqaYCgNuYOPDuPl9sJGaqMzMJP5KEY3td7yPVojyPCP8vEcwftw4JozuiWFJI/Vt1WTczKTvfYtYPGowPS0KOf3FRnZ+8RJPPPIkr37+A+eyhGOkb4WTQk/McwkpV0KIt3JgQB8ZWUePEfzNu7zyxCoeeuIddsYkUVh322BJwk+pJTU1hzTrSSy4ZwaTRg/FdUwAJg5y0k+fFNd+xNsvPMaqx99gY9g1MqrkSOZ2OBmEE5HejNPY+3jlowW4VOZSGG/BrPmzmTpzHo+/uYplk+ypTTahX4+pTJ8ymj72UJ7tiLeDgXBCqphx/2JmDBnMiHFDCDQpoaysnOTUXDIsJzD37qnMvGcVbz+2hIkOSgodTVDLczjbYkef6VOZOHos06YOwTW6iOqOeorzihiyajkLh/fBz84J/ToTjIxvPy5X01GazMkcY9yEIzp9yhSmjO0DI/1w0s3h5Fc7OfzNqzz58CqefnMNwanZFJVVC4Mv5H2AD44/PtXQIJzXyBAibH0YNaoPffoNYECScMw61KgaU7iwpYXZ997DjMmTWfjEE7z09CgszIzRHzSQIKs24ms70B88nqmTJzB1+kiCCquoqSojPSaL3osXsEjIzZAAu+70m7oYmNjiPWgCdy1ayVNLpmGdup0n3lnHqcx2nHsNYtzkeTz01nNMNovm3YdfZcO1sl94361Fy/8mv80wC3QMZZgIh1ylkNOYl8zV4DAitr7JqgeeYu2hY9zMSaesRUWHOon9a5/j5aPFDL53JUsn+GJcmcrhOOg5aQrjB8/ghc2HOPHNAvw1q9rQDDvPPgwc4I+bg/mtx8930qM/Q0YOYeysyYwQEcCJSymU5MRwMsucARrFNfle3t+2nR/+MhWPH3/0qknNF0t4chMO/UYzavh4Zkzog7zoCidvFne9Z9PRdWPYpDEMGtCfHvYiYsutpEH+Z1EUhtj5DmfpSw8w1j6OTZ++z7qDV8kpb6TDzJ/Zr7zEX2bqc/r5N/l8ywkup1ehvLPp6k7aahppKLPD08Hk1mNvjVFIVWKpdMZFr4Xcdle8/UQ0baGgMDWTAcN8cdYtF5HeWxyp7EBSqjCyc8Pb3B4XG5OuajWo68tJajJBz90bB0sDlIp2FDYyjHTrKbjuxLyJIooyhJaCHOId3+RY9FVCL4ZyJfoSB7Y8zRg/BzwxxjojVkRebTg59SNQVkN40zTe2HWaC6GXuHjpGnHZu1ne4/Z9JRRtDdR2NGHaLwgPUx065a0iSjMRbW4goWYASz45yPmwUHGtiOyyj/D8OFeMrIbw4t5vmW+UwPfCmK29WUVHm4IOXXe8XUwxMBDtcLTHWr+NXHsPXAcHdr0mUJdlc8nOFw+HRtLOtjGgpyem+sI5aGuhrlyGoU4HTWoF+r5eOJsYYmginA17S1S1xRg76aHXUEB7gAt+zlbIxErrKM8nQcyDobKW6mxjxg3xw0zdRklbLaX9hNxb3DbMKpqqSmh0ssXTyxlLAxVtTU04BTpjV5bK0bZHORIjIvOLlwiLuMz5cx8KZ0Au+tSAi4cdxncsHXVDNhcPHuPU+pdZNK4P/uOe4uy1OPKrFKhbaiht9qK3nzWG+gaYWNlgbSXRrt+OeU9ndCvzqBFj7OTvio2BLp215WSIsTYybaH4pgN3CWfBXpPV5k7UYkwqMrkSvI3PN+4iyWIyrz++jPH+lnQKRzg17iwbX36HfdkurHjree4d6MA//Xs4LVr+S/mNS0JCXV1MVrEODnZmGKqU6NgFMnf1KZKzcykqzyZi55ssXfgwazZu59B3LzC8JILv33iKF7ZdpaqhjXahyBo6OtHR0cfU2h4HW6EYNYpETyg2c0vMNBrsb2GgyfOpi56BOE+joBVKVOL+baoOmjtU6OoZYW5jh62V8Pa7L9GgFud0igBYX1yvp6uHvqEmfZ8418iwy1Bp2mEkokfNd3qaR71q6U/0aE0HPWN7/IbOYNVbX7Lxo1eY65jO18FnCc1uxabnaOYsfYENVzbz9CgrCrb+hU3xt/MxC0TfZNbGQpEWkp5ThbyjjqyI0xwsb0VvQCCGlSmk+ppj7WKJsbqclBAlY4QSNqKWnNBWeo6dxsQhHrSLiDnZrJcwMLc9HiX1FQVklWVS2NhEq6jnyK5LuA70JUivkZwGD3yEwdPkaDVx9WaoPEsYHyNkbRkc3PQFn1wuE1GsJU6uhYQe/p5rWDF4bA+c3LwYpiOiOdEFaxsdCva+xqzNyUiGP8mErpATVWsHuUlZ5BUkcGrHeSoy9ekRFEA/WQudje0YmelScfpzlm68RnVbIt+PmcoH8bZMFFHckqVBJGZUozIS89xaSEl5BamnN/DxF99w/GY2dbYyLB0thIPRSXlWEtXedjh0lJOaUUt+WR3tTblc2neQyNHTGOZhKoysmua8Yioq0jj26Zes+eowETcqsFRb0qNHL/SzS8itakJecZ3v1pxn+LJROOfFczGnN329jZE3V1HeWILFAOHg/Ph+WQcDI2Ma8krILK6gKP44az9LpZ+DI7a+PZikSCe73hgb43qubHqTJ49l0lxfRUOOSkT35t2LWvRPaiU7/ATJ/kvYFJFKTlYmGekhfDqkmYrKVpCZYaHOJrNQOArp5/jm9WdYG5qN1NKBv6MNNraumDR3UpJXQX11GsG7L2Dd14seRq3kNbjh5Wz2U37aLhTU5sVw6tvt5NoO5+GXv+K715YxdWgAdu2ZHPzhNJdvSEx6/3M+fOcFHpk9CEdzsQ61Oaq1aPkZv84wd8ppbhSRV0Mxl/fs55LNPJ6YOwgXn170DzSiMDSCiMhTvLfyAZa9uoeQ4O949pk1nKwdzOtbPmZxPxuqi8ppcenJfD85uVFxZFSkc/CVuQQMfIPzpQqNhexaoH93kSYkkJiSR8qVy4TjyLQJvfDwH8hdLnVkRCeQknGZtQ/PZ/S8tURVKbsvMsDOPRB/t06SYq+TnJNM5JU4VJa9GNrDvivx9Z8eMR66uvpditrSNZDh819k03PLmBVke8vRMDDC2MyBoLFzefrbHTw56I7t83RlOAaMZ/a9A0j4ZBrOjgNZsTafcYsf4MGJ7iICaqa3txNeNqboluUR29mf3v7WwnnpxT0fTyRibn/6jnmV8FYr/EyFw/PjU4xOWuobcQ+QaDr5GrMHLeVI50QeWjAC64ZCYvt4i4hTOEA6eph5juPe56z4YUQPBs5bQ5X/Yl6bFYCxngl2fj44Tp7BpJlj6OVmjp4w/kveH0nRJ4vp6TKW96tmsP/ZMfyUvVkXmY0HE8cMJiB3Cy9tv4naqTej/dyxd+rJjKdH0XH6TSZ4j+SFGH8+emginlYBTPtkKQ0v9MclcCTP3PTmjQfH02fIYPoFZvDW4JE8+G0+3qOn4mfUgp2xgWi7iXAW5dSWN9DTxxb9ghRCR43E4vQyPHqu4JzDQ2x+dTKu1i6MHNEP1+QPGDRoJdvqHBk7vy9mTRZYy5xwHjiDl0dW8fGiobj2eJ/qSW/z3j2+yOsqKJ88BD9zEQk31KIsM2OsvwP6P4q+PlY9JvD0gBZO/7CerVmSaEdvhvjYYWA9gme3juDUeF88+zzEJdvlrF3aE+pVqNt7EqhxiLprUZTFcybRmv59xjDQzwkLc3PMrT3oOU6Pwtom9GwHs+QNV/aO7c3Qe7bQMuwRlgy1pzL2BvvW7SVOryeLR5iT9O0y/ANWcUaawiOLx2LfXERcT0+crDV/3XDnejXE1n8MKz5by7Nzx9HXwwZjI+EQa5LJW/ZmxV+e46WXljIqyB1rE6MfE8/fWYMWLVoEmg1GNNzekvPzzz/vLhEo86Rjj0+XBvm6S+7utw6fJR9LJ1KrJJX4Wq1okYpv7JdeWjxcfDdImrF8rXQuo1pqbyqVYoO/kOZNGtR1TZ+lb0vBCeWSvFMptRZclD69V5zv4Sv1nvK2tD8mTyrNvSR9/sAiaelbF6RipSSpKhOkTa88Lt37wg9SVPIV6evZIyTn/tOlhfPHSj0DBklz3jwuFbQpJLWqXaqI2y+9PLu/5O7TTxp775fS6dQSqTwjRPrgwYelx945K+W2tElVmaHSd6tmSEP8RB+mPyNtjMiTWjs6pMoL70t+/hOlNy+WSi1VsdKG+6dLk+ZukG7Wi0b8GxBKSnJ2du7+pOXPQZuUsXOVNOSra5Jcpe4u06JFi5Zfx7PPPttlW3/Llpy/bJj/DNTH3DLMk9+STmTXSIru4v9GtIb5z0i1FPH5o9JbZ3IkpdYwa9Gi5TfyzxjmP/+zXD1TnIL6MLinO9Yyfe1jLy1/MHaMfnkD78/wRU/7d7datGj5A/irvbIffPDBX5+aSsvvysyZM7tSrO3Zs6e7RIsWLVq0/CezcePGrtSPv2WvbG3aR+2hPbSH9tAe2uNffPyWR9l/FTEPHTqUvn37aoq0/MFs3rwZY2Nj7rvvvu4SLVq0aNHyn0xUVBSpqanatI//qfxPp31UNpAdeZ0iswAG9/TAQvt7Ai1atPwXoE37qOVvInXKqcuP4eiOr3n77bf58PtdnE8spqn99t97/86oWyhPukpUfmt3wT9CRVtpHGdDb5BZ1fzz3cu6kFAp26jIT+ZGUjkd8jrSo65x4mIOjX+W3VN/Jeq2PC6sDyal7vceexXymhyuXTtPeF4FZYlXibgSQ0nTvzZxoySpaS28xg9HUqj/p+dCSUNJIlduFv0fsp1p0fLfw3+VYZY6Gsi9cozvvtxFWFadWO5aJI1BS4/g+P7jxJd3YmJtgWFbEVcOhBBxs4Tmf8U+xR2FXPjyMMn1v3YGdNA1cmLArIXcNTwQq7+KljXbYFaSeGEfITlNmkcLGMpkmBob/McJsKo6nr2b46jt/vz7oYOOnj4ymTEymsmNiCLqSia1Hf9iz0VSUHLzMD9cL0X5Tz/iaCPz7GYOpd2xa50WLf/D/HLaRw3qZsrSojnx9Wq+2X2Y46fykJxccHG26k6K8K9Ajby+kLibWSIiMsLK2oR/nA1XTUd9HmFnjnCm1JbRY/rgZmn0NxS3kuayJM6HlWLtZY+RKp8T77zJ1lpPhvdy4Mdttv8N/KO0j8qWWopSLnMksRIdE5tb2xl2fddOtWZXsxPHybXsga9mk+ouVLTX5hF1KYR43QEsvncBd00Zy9Ae3tibWWDjYoelbgWRh35g/cYdHDxfiOTmga+9Kar6ZI68u4fo4iROBWejb9NG1MFNrNl4hBvpDciEDDhYG9BansKl7d+zYcsRosp0cXSTSFr/Pp/uCCVb6sX4iY7URJ9i5xdfsPX8DYpxwc/TEnleFBcuneL8mXBu5NSilJeSUA2urk7IGhI4tuZzvt51iPBqE/zdLSk8u4a3150kv8UOPx9T6kuyULv5YlefxJGtm/l+ywWym2U4udthLM8nbO/3rN20k8MXStD38cbPVibuUU78sW18+uVWzkcXI9m64epgfmtLWA2dTRTGnOW77zdwIK6C9qIobrZY4+OgT8Gpb9hb68UQV0PqMq+xf18ZzgMdUIv+n927lfXfHeR6fjsWLm44/EzuOqhJD2PHx1+x6WACZZWxHO0YyhNLg1DlXufIjm9Yty2EpDJ9XPzdsDXqpC4nmgM/bOT7rWdIq9HD3t0RK/1m8iJPsObzb9h9JB2Vhw/uli0kBG9gf1Q6SafPElfWgU6FAZ5+RiRfvkl0eiaJInKOymoXdbhgawZ1udEErxVreddhrtTa0a+nGzJFLUnhe9gUlkbWxcMcDCvByMUDFxvjO9adgvqcKA599TUbdu/nQpGEu6cHdsZtJB3fRorXXFYMdOw+X4m8Lp+oQ9v5bt0PHI3LR2HmhJudOTrNxcSc28Pa77awP6YWSzdHpJjNvPDhTjEGVvQb1Qejksvs/mYd3+8PI7XKABdfV8ybMzkecomLoSGcuF6Cnq0zztbG6Os0knxgH1drRN+NbLA3786sJRzSsoxoTp9MQ2lugrG5KbIftzzVouWP41+Q9lFO6bW9vP76dq4RwPhpUxjilMfuV98RHnKFMIX/ItQN5FzYy/fbjhJV2iLMy69BB30zF4be9QCvPjWXga7mf9uYq4QhWv8hH51MpFahFlGGNQFjpzEhyI5/UXbp/xsqOfWlaYQe+I5P1nzN/uhqzE0tsDbVp7O2gJSoYL549B02nYmn3MgN9zvz8IpoprG0gIJ4GDhpAr1cRLSso4fM2oMB4wfT21eP3JMHCSvSp/fICYy0z2PDkQSqOlV0lMYJo3GKZLkj/fqakXf9LBdqnBg7sT+WlXncPJ9MWWkqp7eHEFNjS/9RPSDmBOcSajCQqSmbeC8PzPRCkX6OzYfzsB42mdG9bKiJCyYkvYLq7JucPXmFHJwIEmPfnHCVlKxSOjprSNp/gAT9QMZPGYJp9Ba23KzBxNQSU+UYFs4bgGlDAZmRSZTkxRF85iJJajeGDbKl6FIkUXEpwoHYQ1iFGYPGTmKkbTpr98cLB09FszAs+/dU4DNuFP6GVVzbe4nsxttRfQfl8Wc5eikBpXMfBpiXcmjjFbLK28UU5HPx2+u06BigVjSTE3uaY1WtdNblEnnhDLFyN8ZMGYh1WQY3zsZQ1npbYjVZom6wfe1Fyuz7MnGYITGHziL1d8OsOpmQ7acptx3I1FGBSBWxHLiQTWNzKdfPxJJX78DQUZ40hIdzNSaLjPC9fHa6APtBY5nQo46DH5wWRruQ60cPcTZDiXvfQGQ1RdxIrKWpsYyM1maU/n0ZM9iLjigxLjH5VBdEsXVHFM3uQ5kyYyy2KZvZGFlGe0sxN08dJDSzFVsPD3Qr0jgVkkXDHQtPXZ/B8a1XKJL5M3rKCOwzjnMkrgylqp7yDBgR5PxjzmypvY6MK1e4ENWOz/ix9DIsJ/FmNNmVxcQF7+V0Uhu+Q0fQuyOSdafTUJkaoKoexYrlI7GsE3O65jzV9v0ZN9SDltwoDodnUVmZSeipC0SWGBLY0x8Pa1n3+jbC3tsRdVUBEdtf5+kNp4lJLKJRRx8TcytsTGuIOb2XTZ98w5HIdErr5V0/kdWi5c/MLxvm9mIidu7lhq4Pdy9fysKFi1jx7HO8+tYjTPe1EF5pK6Xxwbz/yHwRac/lwee+5lxyObX5V1n9xos89NAj3HPPk3x0+AY58cf5WJNeTkTk05Z8xomsOtQqBU0ictr6yVPi+rtZ/thqjscWUZIlPPOjIjo/sZPVmw5yMT2fvIg9vLRsAdOnLOCZdWfJbVTQUXKJD2fO5L6nnuKJJQ/xXnAsCVeO8/UG4UFnFJF+cSsvr1og6l7CC58dIb6slnwRGawJDiP25GoeWhNGZUc5MQe3sfd6MS3t9WRe3sl7mv7MWs5zX5wkSShgdWspkfs+45FFs0Vd9/GauH9GbRud9Vmc+vo5Zk6fxszZT/PdWaHMfldvRUFNdgRb3/2cXZclek+ew90zpjF9UBDuugWc+OBtnv8hFdsp05k1YwpTZ0wi0OYO90IzviVVlBdY4e5g9teOijA0pq7+BPqL6MvVEqkymdjcKuTCiNXkphHffybz7xH1ThtCbx9/BvcQUZSIuipKhENQUElBYiTJnYb0mTWfhfeu5NEXHmdWf3dkMl0Cxs1i/gRb8o5vZdv+rXz3wxa2bd9LsDCeSQWllIsoztRgGLPn3cX4vo4oSkzwtXHBTkQ2xoYthBa2ou8+lvufe56FvW279gSXBk4Q898LS3kH8kpjlPkFVBXbMGX+QpY+8ABPvzCfMb1csfMIooefN27CEVGWJXAjr4YOESzpiNBYpy2VKgMPRi64jxXLRuNh0r0EFDWkh+cg1wli9vzFLJ05EFe88XewRK8yhRMVPRnZwxKVspnKwlK8B7mgzI4keP1G9mzbwKbNQoaOneFaRjH1bbeFQE7BtTMkO/RmzrIlLFw5ixEeNgz0saYx7iRrt+5i+/ffs3nbdg4du0SyWDstevroqyuoa6tH5j+GpU/fy6SgTmL2ZuLUe4Lwuhdy76OP88rzY7CvLyY/LYi599zNuNEDsLWFBh9HDFur0bO2ZfS0WcybO43hVh00V5WQHnqMA4e2ikhcGORN4p4nznApq4q22jLKM71YfM9sxo8chIePjGp9HfTu0A46+ia49vLFXyMD1rpURmWQWynWhnBO4kUbBvtb/vT6QdcQC2cXAgYKA+poTmdxOXlpQi8IR+poshqHIdNZtPBeVj3+HK/M6I2N8CWbek1g9qz+GJbGcEHVk7vuW8rShbMYIwROHpdFdn4hBnYuTJp1N/eM64ePrUn33uIynAZNYPKE8UyZvYhpZvG8/dxTfHKpHDOXQEZPnyrWxTRG9NAjcuuXfL4llJz6f+17dy1a/q/8omFWN5SQmFKBjqeXUFBCsevqYWzny+CJI+nlaERbTTahJ46R6jCDh5YNR5Ucwq59keSVlZEWf53IaksmL7+PewZKRHx1gBy/2bz04nyco9fzxtcRFDQXcWHbV2y+ZsacBxcSoIxj23dHyVC5MTDAD0/fgUyfOhy3ygu8/eEp6gPn8NyTE+g4tJpPz2ajlFeQeCmCaxXuzHjmaRb3MacqO5FrsYnCQz8nlF4IRYZjWL6wD+XnD7DjRBJKr8GMEwrbpPddPD23DxZSE3mRYVzNLKMi8wJbPt5Mqv1UVs4LpCb0AFsORBEbfZaDN6pwnbGce0foELplH6djMrh5+Cv+8mUlI1e9xP1DGtj6pnAs0pq6R+/3QF8ouCDGzZ9CL4tcQg7v48TVNMrqRbQmc2XI/PksGqzLzR92cvj8dVKKGzTJse5AB11hjHQNOrpSXN6ig6qEE/xwOJjzF06xNSyT4vpmGtp1kZlI2PnYY6XTQWVRPoFzpzDYVqIq8TIndiTQrlai6JDQsbZBZmNCZ0MTFnb2eLrZIjM0w7lHHyEnakpTlYzu4YqeopTMUF0e/nID6z/7mE+//I5NX63m0T7GlGKMUX8RtXsKw9daR0GDORY2tpjKrOl57yt8Os+D8pMfsHxDLjJzHaqrClEPDcC5s5XyhnryhJI27tRkYfLARzgVRiY2+PTxxKImis3huVQ2NVMv+mRqqumTI5YigjL3HsdjH68isCyM7Z99TWiDLibduYul1loKak2xdPbFzd4YndYGStwcsbXXoyYjnqLRfQg00+2KklPCzRnmbUpVUQP1vk/y5Yav+PTj1Xy762veenYGflbdLpC6iaKkRvz7BuFlZ4qe1Emn0pU+roYU5mZg+sgXbF73OR99JtbApi/44OHB2Bk7M+Le5dw304eSPd+w8XwiDfIGistt6R3ghpWxMNwWHgwY6YVRg4iMgyYyqb8DYjHSJPrgFGRJR2495u329PZyQKarFs6EEfq6wukMrWPiqrdY8/mnfPThZ3y39yTfzvYUPkkVpbqDGdnPHknU09nRRmCAE2LYu/vRSPqFYMJy8qhvaaZd31CMvRU+DhaoynO57hAgItjuJzVSB3UFcYSFnCGzXYFS2SkcQgtcTC0wEI5vuY0THp6ibkMjzF17MsLfiqaCTOTjeuOmbqYoLxXViIEEiYhYR9EuHN0Omix0aC0Gd0vhAAQ6Y/L/54lU1FOYkULE0Q38kGLMrEUrmNffHjrbqC9LJ/L8aULOZ2I2YBKzxvfG2exvPkvTouVPwy8aZrGi6egUml5PD72/ygKji7G1F2Pm3Mfdnh3EhYVw8noa5eUVNMo1RsAUN/++jBw+gECvPkx7YjnTBxqRKIzL2fJKim8UUVGfQ8y5WDr6jmf+/AU8/dEXrHv3Pob52mNvZYmFpVD67ha0ZsWTmnqB4O/f5umXPuNwzDX2nU+hVjRNx8AQx/7DGT28nzAKQvl1tU2vK3NNmyKbkANfsPpUFq6T7mbeuECc3VxxNTVE39abvj52GHVnx5E6O6jOTCKi1IL+E2exYOlTrN7wCa8sGUrPfuNZOHMC/q3JHL5wnaT0NEqqOkQUpxZGMpTvX32Kb2t689jTSxglFPbvhy6GFq6iPfN4+MWXefWBBQw2TGTjqYtcLVTiNmI6S5c9whvfvsxdfrpk7vyY3al3OAZ6Mqw8HUVUnMTBkASqOxQ0FNzg6PFUmtutMG/LJ0dlRsCw0Qx2biPrhg7jgzww0W2mLKONgUEuGCnbqS4uILHNk2FjBuAsa6RWX4FDbzcczXSob2ygrqWB0qtbePzjQ8Tk5ZGV7EiAcH509W1w7idRLTnQs5ebiDBvcHpPJi3KNmoNVBh4a96dqmktLyDW2BAdByPKL3zGqu9uYtl3IkuWzsDjUgzZjU3UFdfRx08YIGF8SuqK6Qhwx0mmoL2livq6chKOfsOaHcFcjr5Bto41vUeOYZBDEymRukwTBlu3KZat9z3PCXlfEaXPpG8vI6LTKmnvHiqNjBs21wiHpIL6inRO7z9KsYslbpYKcm9kMWCIJRVh5zi4bQf7OvvQ09cSSysrEVMrMXfzx9OwnEtXrxJZqcDgtuHQ0cVA1iyivVIa2yuI2fYdn2f0YKC/HXYOHqhq9XDsEYhdew5XQ85T0NFC1qEtbNx4mQ7fSSyY359aMb5FzWqMdYXx1PxivSWP4+88wvuXioSzUkJLf19cjDpprqmgIV+Bt7lEaXY+SQUtyIUhzLt8njN6ltj37EVgf0OqdMzx7dcHb90kNr95nTYjJfnZsRSO6SX60EljaRWKfBl9PG1/Sp8qnNfim8IxkvkwfOwgnGrzuSEFEOQjHCzhtNT388bxx9RYnTSVlQgnVyJg+Ah62+pQUi++c/LESePcV9dRW99Cc0k4X9z/OSfTiinMKhey5oqpgTE2to60ZORR0dxAblwEiXk19BjgiLJeD32ZEzYWmrStd1JNxLp1nBGRv+3kl1jz7AOsWHEXg6yVFMZdYOsPiRgEjGbxq6/w9PI5jOvvLu7zy2pPi5Z/N78ooTqWdng7aLLdtyJXqX/+bkZ4/43F0ez86BM2JirpNUEYvrFu4pzb55lgY26OsZE+Uvl1vnnlC3aFluFx3xM84mEg1q8KtboTRYsC2lVIYlFaOboKQ2wvvOk7m6VGqVAgWU7mhW/2czoskqTcPDK/uAsb8a2Ori7mTjaY/WwfY32sgqbz2uffsvuLRxjamMLhz9/mvd2XKaz7URX/f0iohHFuFpFlh6TTlfTe2cMdVzslOed38+V3e7mq6Ml9C8fj52YqIlMjvOZ8QOjR9bz/+GQUWz8RUf0HbLhS+vu+e9cRCsnIBCt7Z7x7DWLsXQ/x9n2zGKWJNA1kmFrY4eYXxKAJM1n5l/dYEPhTkkTNo2ob72EsXjkX67B3Gendg0mPbqMxaALzpw9nwIipTFNd5f1F45n12RkqdSXMNL90Fso/4bINAa6m6BiZ4zVwIAMMDjJn7Hye/z6GOpkxeqLcc/B4essj+cuc4Uz6IoF+wjnyszZEpTjJi/dvIVXHmXErFiNtvoeAAdN59boeY+4fhlVzGR3Njbg6iEhXp52K/AwkZ1M8HO1wDxzNyOYD3Dt+CP2nHsL1hUUMsZFoEsY7+O3POJRcRmtdE55efvQd2wurxmAeHTyVlw/V4dlrKKOmzWOmPIQX7x7NXV+F0iTTwUxmIHwUV3pOd+bqQ0PpM30VW8t9WTYl4MeUkjpmXoxb6ENlxHtMWfoK2yLr6R/ggb2I9Nx6eJP85gpmrg8huSgP40nCsJmZ4zFoOEN7pPGXIYOY9kIweA5jSk+HH9+1omPLgAXzcL64llc/PUGDpSPGPoF42VvgM24+C+UbGRk4jCXvxGM1ZjZDhTF07BeAafkpXp06mNHvhuPcpy8DAgdz1xMBJLw+h95BywnWn8miwQYUpWTh4+eEmVpBS1UTjRW2OMjaKTbQoab1Bp89MJmpX9wgcOp0JvXqycgly+id+hVTRATf9+0Mxrwzj56GLdQV1dJ/oDfmwjGoLK6nQicAb0cRsXZ3A10HBswfifL8lywcsZjPL+Wj12mEsWE7pZlljBjih+WPJ8twCBROsmcV62cLmXzrADmNBljoG2AuZHFF7xo2PzWD3lO+pXrCaIZ6mCEpmjj5/BvszdXDb8gkxtZ9x/DAkaz8OBu/mfcx3VtNjlpEzy52mBn+3CwjtMCQx1/jqSVzmTy0D77ONpibGqGvbybmZybPvPWgiJKHCUfKFTsLE4w0qSa7r9Si5U+LZoMRDX8zu5S6UUrd+YwU4D5TenpvvNTY3irlh3wgzXAaJD24NVrKjtogLQ0IlMa/cVSKDN8iPTxysDRh5Trp3Pm90v3T50pL3jsuZdV3SC1xP0hTA3pLY98/I5VmBUuPessk8wFrpejKJGnjQ6OlHjO/kMJzMqSzq5+SZk1/StoSnSxFfPmwNGbySml1aIaUdf5TaVTvEdKcT85IGZFbpaU+A6S7N8RKLVm7pcUW9tKULSlSp6SW2iuSpR9enif5TnhQ+nTDGumxuQukBz45KaUkn5PemTZYClz4sXQp67q0dVaAZLPwGympoU3qaL4mvRNkIXk+f1SKv/q9tKxXH2nx+stSVsoZ6c17F0vzV30krX5usTRo4L3SR6euSiHrHpb6OI+Unt5+SQr5bKHk3usxaU9apVQa+pk0xsJJmvBVtNTSPXy/lX9Jdim1WlIrO6V2eavU3NQstbTKpY5OpaTSlKuVkqK9TWppbpaa2+SSvK1Nau9UiXJxfotcUmiyKWnOUymlDnF9U3OL1NraJrW1t4s6NOf9/HqF8lZZR6v43NIhKbuuVUhy8bnrWrmiK0OTSqmQOjraxfnie/FP1dkuyTs6pE7xneZemjqbRZ1NTa1Su0Ip6lRJCnH/Fk2bOjslRYemD+JeXe0S9xf9am0T13ff/+d9EnV0tVUtKRXtUltz08/a8hO32iVvbZGaq29KGxY+K607lCDVyMVYieu66hNjpxnH1g7RJs0/0a5O0RbN/W+Pq+Y+P6HpjxjL1lapTS7ap+gQ7VT8NPaaMe26VjMWoo1d52vKNe0X7WwR8yH6rzlfOI2SvEW0oalFjFWnKBP3Fv2Ud/dN1SnGVHMPpRgTMbZtYi5bNed3tevWOV1zo5EDzdiKe3aNd1c9ol9d56jEGHWIPt5q409o2qXphxgbcf82uVxqa9Fc/1MbfuJ2nbfmpUUjL21CXsSYadqsmQNNu5qaNbJ2a7yUQq80i89d8iDu0yVrd46LZp6FfNyShe7baNHyH8Lvn11Kx4Ke973N8Q3TqH9rDr5OrgxZnsi4b7fw6cpBuPmPZd7iPhR89zLPvXqBZnsvLPRUKNW6mJiaYiLTR1dHF9OgKTy7ojflm1bS66mLWE8ejKW+iIJlASz+y0c86HKauYMn8erxDmY+9zh39/MjaNIMhptl8uWqTzitnMi6D+eh2vs0o2d+RNWc5/loQS90dQ0wsbTA9HaELe5lKDPFwswGz/6zeOLh0TRf+Aujxyxmu+5QXnxqMYM9ejLx8RX0ifuEcWPXE9+hi8zcEksRGbkMWszrqx/EcN9Khk56nWiz8Tz96v0sXbGAcW65fL3sZXbcUGBla4mkNGXAkjdZt7yV58b1oPfir1A/vkacM4Df82H2/xnNKwg9fYxkJpiZm2FqIsNQX68rwb2OiMYNjIwxNTMTkbIMmbHxrYhCR5xvKsNA8xRCc56unhhXE8zNxJyaGGNsZCTq0Jz38+sNNAnxRZmhifhsanjr9YeYI5n43HWtJnIVderqGWBoaCTO17weEZ/1jZAZGqIvvtPcS1On5s/GzM1FhGOgJ+rUPBI2wVTTJn19DAw1fRD36mqXuL/ol4mxuL77/j/vU3eUJNqiZyCiPBHp3tmWn7jVLpmJ+E4pp8rQFQdHK3F/XXTFdV31ibHTjKOJoWiT5p9ol75oi+b+t8dVc5+f0PRHjKWJCcYy0T4DQ9FOg5/GXjOmXddqxkK0set8Tbmm/aKdpmI+RP815+vqGyIzFW3Q/NmP4a11pS/6Kevum66ISA0199A8khdjq9na1URzfle7bp3TNTcaOdCMrbhn13h31SP61XWOrhgjQ9HHW238CU27NP0w7bq/sUyGsSYq1f2pDT9xu85b82KqkRdjIS9izDRt1syBpl3mZhpZuzVeekaaNhnfkgdxny5Zu3NcNPMs5OOWLHTfRouW/2K0W3L+ifif3pJTixYtWv4L0W7JqUWLFi1atPyH81cR8xNPPMHSpUu7vtTyxzJ69GhsbW27cndq0aJFi5b/fG5Hy78lYtbmY9Ye2kN7aA/toT3+xcdv+fHXX0XM/fr1IygoSFOk5Q/mwIEDyGQy5syZ012iRYsWLVr+k4mPjycrK0ubj/k/Fe2Pv7Ro0aLlvwvtj7+0/DXqdmpyrnP06y/44ovbx3fsPnWTwvr2v7MZioRa2UphzEnOZzV0PYf51ahrSNx3jJvFrZrXJN2FWn4/OqmMO8ax1LrfNi8/Q0VrVQbXYotRdJf8GenKI16YK6KNIhr+Okn3vx5JhaK1ioKMVHJr/uhM0XIKIw5yIr3+786z1FrOzeh4bmbX0PFLwyOp6Wgq5Ob+M6TX/q19wjXfl5OWlkt5bdvvu0GSln+KXzbM6lqSDnzH5++93ZVgX3O88+4X7AnLpF7x96dP3VTApQN72Hk6lrKm37b01a0VxJw5zNaD4WTXatOm/1/R5KjOiQ5n/9EEylvbaGtro7UmlyvBYVyLK6Xlb+VjFkXK9jKid28jvLCtu/DXokbZoUD58027tfxeiDUZv3MjZ3Nbuwv+GdrIv7SNnTf/hRni/s9IqForibsWzvGoIlr/HeKkVlCfl8ClXZfIafx1Oe5+N4SDG7NjGxElf2+nQhVt5cmcDgvnWn7DP849L5wMZUcnf9u/6aQ28zJnIqLJrWv/Pzh8Wn4vfjkfs7qU0A9f5/3IDgL6+OJkZYw88xI7jqVi1HcEgzRbNt4682eoa5LZ8dUPnKu0ZOjQXrjczpH6a1AKL7m6jlYdC9w9nLEy/t/ZcP4f5mNuraM0I4pTqdXoGFtjb3Y7H3MHtfnp3DwXQoFFAF6Wt8dbjaKxlJuxcRT5LeWDV5YxY/woBnlAYlwZuPjQw1lBRvhhNm3bS3BoCTJvLzysjFA2phCyPgX3hTNxqY3m0NZNbD92jfQqXezcHLE26KAq6wZHdu5k9/4oStXmOLtao1+ewMF8K0YOc6I1KYQtn33PgfBIshWOBHjZottYQOTVc5yJiifm3FkuZ8qxcnbCxkhOWdJldm7eLpyIa5QYOOHrZo0hTWRd2M9XX+/kYlQ+nZYuuDia89POjEpaytMJ27uLHYdjqG4u5nJ6E1b2VhhXRfLV0TI8ezpjoizj+q5jlDn6Y9Oez9WTB9j4w2GuZzVi5OQqZFt2h5faSXXiSbaHXyfx2H4OBKfR4uJFgL0JquYirgXvYI24NjJejKGDB262erSWivHat4utu86SXK7EwskBa9Gn0oRQtm7cysFj1yk3diPQ3RJ90eamogTOHtzChj0XSCoBRx9XbGV3yLqymfK0a+zftoO9hy5ToLLB080GY1UuJz+8htOypQx3up09XNUV8SSGHGLb9zs4GZ9Di5EDLnYW6LVVkhpxjC079nBYGGKZvR066Yf54LMfiMi3YODoHqiST7N1zSaOXIunFEd8xLjrNxcQfvky58MvExZfSLuJPa62pujrCJmqKyA6ZDdfbznA6cwO3Hw8sZOpqM2J5PDWjWw9eoW0Sj2cvMT6VVUKuYwgMiqa8EsnOBlThbmTC/YWRl0b0NyindKYU2ztlpWcTkf8HHXJizjE5+t3E91sjJ+bjOz4G0REhBESW4pKv43c8INs3XmQ4+FlmPj64GFpKGxpDakh+1n/7V7CYopRW7vgZG/2U85tZQslSWHs2K4Z1yvkN8twcLPD3EjVlav6+Nfr2HbyBqU6NtgaFnHu00/ZfL4IHc8+BLm1khi8j+1b9nA2rRp9GyecrfWpuHGM4zFJJBw9wXWlE/7G1UQc3cz6bceITOvAPsALB0MF1VlRHN69lW1HosR9DXFwtcdSpt+9hsW41guH+cg2Nu48S0pZPrF7mxj69EJ6mraSdyOEA999z/6IZKr0HPF2MaM55zrXi5vx6D2U/uJzl/yqWymPO8+m77Zw8PgNqsQ68vI0pyXnJiH1Hozsa0xZ9Cn2fLeJQ9czadC3xrwlneDtG9h9Lh8zr0BcDSqI3PMDWw8EE1ZqhL+fKxZCpbTmX2XbpyeIzYtg3/FwCps6qIw7xead4RQrLHDxsEJdkcw5MbY79h7iYoEca0cx12Zirrs28xE6rL2S+CPBJCuMMJKZY2ncvSN7Rw1pN2KISRBrysIME5PuDY7+C/hn8jH/smGW6kg5cojzVnfzwTuPM3/iaAa41HHi0x0UDV3Aol7m1Gly3G7+mvVbzpKQp8DC3Rk7nUoizkVSZhbIxFHeKOKP8dnaDew5cJiwMn18xUK2kenQXpEqlNNmPv16D1dulCDZueFi2UFObCzJleAR4IasMYOL27/j+807ORBXjamTO27CcLQm7uept7aRXpxF6PebORJZgMrJBy8HA6EkhSe5YxPrN+znSkYdhnbOOFpBTfx5Nqz9lm17D3KxWAcPL6FQTMXC+JNsJ/Q3DbNKToMm//HFExwJuUJ6tRpTWxe83Rwwa68gO+UqB9cc5GZtKwo9c3yCAnEUfeq+mNbqLC4LQxIcEUtKxDlOHD/G2fhidH0HM2WEE3Xh57haqsBaKEu79iz2xegyYpQPstJo9h0R/7/Insx9+0kx8sXfRk1+USlVRmKxq1I4fPoa+QorPMyaiAuvwCLIE+O8Q7wfZ84sx3Q+3haPmZsX7nadFCUIo+nUG8+2eA6J8Y9VuNPbqpXo6yV0Wjth33qD4Mv5KM0dcLdXkn4kGYOB/fBsj+artyIxGR6InbyUpGs1OI3oi4uxRg1JdNZkcvL0ea7mK3FxMqA04iyXam0YNcSDtvANfJvnxvzRvuiXhrHu/VicZgTRdPUIIYWmeHtZoiouobxEjVMvL2FIu02zup7EvV+zI0FNgL8nJrXx7Eo0YdJ4B3IPr2VfuoGQHSdM6ovJSGrGuZc1xZfCCY9txtHfjJqb2TQZWWJcf4PjkWXoWTviYacgeV8ixqMG467O5ez3B8iw8MLH2oDaknxSmmwZ0NMRsSwECmrTwggOS6fBwA5PR4mc02lIAYF46WSwbXM7U16cinfXGIhRUDSRfz2UQ0dzMOvpiWlbMYVVQikKg9MgjPKZ2AoMHEXdVfGcrbRmiG0px7a1M+HB6QSQwIbgTKw8PHAwEfWkZ9Hu3AvPjlR27wzmWrkJPfv1pIeXK/bmQsF2lnFt2w+cLjbAzcsBdVYop1r8GWdfwvHPjpJv7YaHvT7leXnkKx0JtCjhwI7jRFQY4u+rT/GFOJptvAn0cezOEqVGnnGMVzbGYS5kxdW2k8KEOGodg3BuySItoxr/yTMZaFrGsYPnSW21pGeABbXnrpIs1oKdtxuWDcnsTzBizGhvdAvC+H51HKaDfbFoLCYtvgmXIT1x7BorFc35kewNuUmpZEeAg4rM8wUYBvnjqkxkw0dnqXf1wMu2g4zQaNo9fVHkXifWZRJLhtlRnh4p1k6jcDgc0avJIL1RD2d3c8qCv+brKDlePv74+JqQJ+Q7RuYunAtL1NXphBZZMsi7kxthJzlXbkEPGwXpWRW0mbsS5CmcT82cKyq4vmcrJ3PUuHjb0XrjJPsz+vLgS6MwzDrPtkPZWPq6Y6nXRFFhAR0OXpgVpVBcJ6PX0CHCGb/lpKvrEtn5eRh1Tm742jYLA5uM9fh+dFzfwrclPsz2rCVy/0mKrHxxkMrJKq7BwFJGebQwiDZ9GD3IkJiwZBp0hKPtbkNbWig3DXozxktGTsh6XtxQgPdoH4wKE4SjVYypnxPkJ5NZ0IaznzmZJ8JJqADnAFvk6SICl/nSz9se4+7EIZK6k+byPDLzC0iMPs+VIrA1McZEOGqKukrKSnNIuhxBfEYZzYYW2Gj2N9fs+NZ19X8m/4xhvjVavxo17Q111OsYYawviQGO5/A333I414x+A91ojD3P3r1RFDffkSi+KIqN227Q6tCPUb5qzq5bw7cRxXQqqonat5YvD5fjPqA3JuURbP72MDdzy8i6EUHI5UQKMm6wa90P7I9X4DV0MJ5VF/nknW2EFjTQXHSDbTu3cihZjVc/G4rP72XT9mvklGRyeucOdkU04TkgEFluGPsPnycxNpxN67YTVmfDkIGuVB78lDcPxP7tR7l/GoSCzoti9ydr2HWpGbfBYxk/YQqzhvXC26CEs599yCub4zHoO5hRY8cyedZ0etvfjqIEkor2lmZ0O924Z8kiZk8YgL2eMcZWA7lnzjh6GRRy4ugBtouo48Txk4RcEkbtZCLlik7q8tPIGjYAf2szrN0D6dVTROL2etSXZpJdWkzq5VRqG52ZtngZDz/1KE8+OpXeLsLIFJbjKxRnTXgwOU7juP/JVTywdBEj3FsJSyqksrgOqcmfu++azfTxA0S0bEBDeznxJ452ZW4KPnGcUyFnOHfxMomlrUjCa1Y2ptNsHci4RUu5b8lw3LoNUtf45CeQVtGG39QFPPDwXQx2t6KnUGw2skZSzlczeKAvNiJcainOIM6tDy7tSRxbv4mDhw5w8sxpzpy/yNWELCpb7nhUqailMNuWkUMmM3PJCh5aMRRd4fhVNGQSvrMYn+n38fiqlSy8qz/WzUlkVyuEcayjpbMV6z7jWfDgfMb30iP92CEOiOjh2MlbfTp/6bKIptuoExHqV5v3cHDfEU6fPcOFC2HExJTQdFsURdSXcv4kh7ZsI/h4MKfEOeeE4Y8vrKc2O5lEMS9Blj/mfgIdXWQW1nj27UHPHl5YtTZSnFpEpVCYZ+Lr0Q2czNIVD/H044/x6ISeOJkb0+Y/kUXLhiMlnqfSZwr3P76K+xfNJsC2ichs4XxViqhUKMbRM+eydNpI+rhaiKhTrP/CaHbE6hE4aT4P3P8wzz7xCMv6W1OXfpUTdT7MvP8hHlm5gEleZjRGZ5JbUkSHrRWDZ85kwazx9JAs0JVLqH90hlvJvHCEXJcJrOySlYVCVloIy6gRYYM1fq5jmD11OM7KOvStHBgr2rOgj4y0Gn3cxs1l+QMP8djKYRiEJFLYphZDoXlKlEO7Qy8mLr6XxfMH4yy7LS866Oib4SIcgP69gvBzUJORVkBRTS2Zl44QY9uPe0T7H1z1KKsemktfJwssXN0YPnM6ozzkFOUWYztmLg88KsZqRk8aGqrIK8olLcaEPn0mMGPJAsYapfH99r3s33OYM2c0cnyByCt5aN4Uq2raaM/XJ3DsLFYunc5IX9vuhCdCTxbHsDdWl4Bpi3jgwRXMH+5OjXAuHPVqiT+2jS0H9nPg5FnOngnhfEQUifkllBaqMVCLYMbmp4QjOnq6qJuzqdG3pc+0JTz29Ex8jOXUlFQT2MMNc+Gc1Mubydb1ZtTMJdx313h6OZohOfdg0OzxeCvTCQnexc5jJzh+6hyh505yIqkcpaqZktwCvO5fyvJZUxk7wBdD175MmDmVyQN74KJniKGhDCtXV3z7C0fOzwFVRh45RfV0/qhjNdviWuM/fhZTx45mjLjOJPcEb3+whkOp7bj1Hsi4qRMYO2kEXqSy7eMv2HYxk/r2P/g1wp+AO1b3LxC1gacXnMJCuHadNZYMef4dVo51oFkYvQt7zhJlnk59qiF1wmBaK11EJDag+0Id9G38mThDITywOuJ+SKYqL52wnGo626qIOnqRir5ruP+haZiWj6ewwQh362ayuq5VivriibhWgfX8J5izZAiSfSm7nz1J8M1p9DBSo6trS49Rk5k+toL80+cITsghL18hPL7ThCfrUFxijaKskAo/Swb36k9NQR7pZTk0lY5g9PgZ+Axw53aQ9OdED1M7LwaOH0ZLdDpRF2up6D8Fc3NTTGzt6TVxPFPS8kk7foZqpZJRI8xwsjbhxydAqg7hwFRTV92PWfcsYIR1K32dTwivXAeFUIwtxSkUBYznwYUD6e1g0nXJU8YimjFWkZ2fjVXP6dRGnWZ3mi5T7VqEAVVhYqWPlTk0FuhgZemJj7MFMmMr+o5yFvfLI/qqLoNWKEjZ08CYt/vjbKaPvFZJp7wNS6EIG2sUdFoMYFCQDR2xlcjM9fE0bia+yINxy6YxYoALxl0NscSnry2G5kN5bPUjXI29zt5Pi3G7/xUeuW2YpXbqShqwEFFlL18nTPXLaK2xws3fFuOmQq7nuzPYxxY9nRbh7MViO3I8spIbZBgv5s13J+LaVY0R1k6e+Nn89LpFVVPEzTp7Bvh7YGVsiGg89eaGSIVJnGvsy4eijaZ6bVS1K1A0yIS370CfmXNEmHCT66d2sc9qAHMnWXK9LICZqxYypIcDMk3FT1nh569H4b6bdCz+C5/N9L6VplTPFFsXf+y6u6VqKCG20I6+dz/ZFQWaaebzKQtheO1pOJ2N9aDJP56ryfLWXJlJ5MUQckwGY9fWgqLTGBthgGSd9ZSZ2jLE1wM7EZUYmfZlvLuC4uM5NI6chrtOGYfPtTH6w944mOrRJBwMdUcHFsYSTSUd2BkFMLy/p1j3P94MeVUxBU4BPK6JgvSMMPMfzqT2aiIiEpCPfIY+9kL+GjppkxS0iIa3VTVjIyLDIb09xJyEkmZjx0APGxEtdwupqoy44/WM7ZIVPeTtnbdkxVEjK+006mmiaKVwwJS4WfdgWE9H5MlHKPdwZq6fM5Yimupoa6LMyqwrAjdxG8Wq91Vcu3mFvecb8L//OVbefrLQVkpsSLRwLDtx6mVBZ6eKNgs7LK3UVF+pxmNYHxF5GqGnb0zgcCvqC6K4UaRD/+nmNBZV0FFuQv+FHpgb6Qjj1oaRcHJlLVUkmfdg7IheuFhCyZkIimc8z5fze95SrrqGmNkF4GFlhf3dSzCxi+Ly7oNI7qNZ8ZBf9ysZFQ3FWZR4BLJS9Mmsa2wknAd4Yi0vJTdSh3vf/oApHrecbn1zO9zEmESkQoudI5Y/OqpC45oHsfAvj3A9IY3Tb79H+/zXeFO/ioJrJgyb64C5sy0zVt6PeVQ0+/dFYzfsHpZ411JnZ0hPsSDKT1bSe9JyBg0PwrbboTH27SWc+wLyr+ky+YNBOOqXE9VUjdWY+fQwUXCyVkGTmSutmVeJzSnH2Nkf604ltJniamnetaf6T6hRyusozEgiLu4y8XIvxo8LpL+bGer2ZmrKs4m5cJX8pk58RoxmSIDDX+ff/h/g1/U4aCaPvfYMywdakpVeikngIPo4ysRACg9Q35FhK1/hs6++ZVfwPn74cAWDnLtUq0AY1/RwduwMITJHnyHzJuJirEO7Uo2kbhdKtFVIkj6GxmY4+vVh6OCAOx7DSnR2yGnv1MdMkz7S0BhzKwv01Jp0kZpvxaW6JtjYCsNgYNSVbEDq7ETR0U6Hyo5+Ux/hL5+tZfNBEa2se5bZ42bz4uqPePPZe+ihjuPowT2s3X6V0n/Hrz1/NXrIrDwZPGMBDz39GKvmTSJQHc/mM2FElYD3+Dncv+J+nnz7AcY4KUjf/QUH0pu7rxUeensLZdWlZHv74yYMqq6BBT69ArBoFc5PooiIxALX7bDA3n8gIwc6C+UUQqbKEFOpkqyoBnq6GFKaFUuZQ2+GD/QT1zVCgzV9vOyFYZLT0lxPS2M5MfvXsvZIBAXZGVwvssfd2R3XXhJZ2RW0KprJjwzhYpQLY331KGgsobG/L06GrVSIqMiq3RI/H3e89IWht/Vl8PABuNTfYEdmCzLDPPavfI5jnQO5667pDOwhERpXwk8/R9Mkb1BQV19NVX0lOVfOsi9TwtDRms6SVML8vbFoSeXqmR1s2iQM0EAvLC1t8RGKwj5oCIO8DMjLjOd6gw7GP3poKlqqSkhvrKCiVYGyLplD28PxFdGxr4MTfu355Fc001KdRcTlSDICemKcdobdGy7S7DGeOdN70tRSR3aLvjD8Eub2AQwbNQCnqqtsymzH0tQYawdXpBYL/EeMoKd1mxjrSKoNjBFLowtdEwucDfWxsfKg39CBeLSlciizDrVePTnRdfT2sP8ptaRYY63VxeTfaMC1/xD6uBiL8VDR6eCNi70Zuk3NNDW00FwezeYXv+FkXC75Yl56BzoLh8YSW79OsvMqaRUGJi3iKonpbozxM6GhRkLSd8XR2ujHaEyDvqH4XFVNTUsHrcUX+HjpV1yr08Pa2gF5XhFVLU0UJUcRm1GBXz8bGnLFGla5i6hOl+rCTOq8LHFxtsT4tveoa4lzD7WQlfIuWcmLPE9otCuTgiyoFVFana8LtlILVTWaBBzO2FkYY2bjgG51vZjzNjrqUji09SJudw/GS8pg98Ovc0FnMHfPnkSQlzBeiWU/yovUUkmikLlmYUiHDfJAWVuCqpczng6WmJmpKSutpU3cMz34Ex5ed5WKunpqil3wFpGzsZXQaaatlFU1CMc+kfMhFVgaueOg00iNlwMODmYY6hpg4+gq6jXCc8R4hvvqk3UhhCJVO1ln9vLZjhwcpsxgxlBrdFqyKKy7/eNWEUnq6VNXVEppYwvVScdZ/1UBk/t4YKqZI+HMKayEkzQsCOPKPGJDK+noqKNcjIuui/VPKW9VJVx8/yN2JRsycMJdXc7h2au5wnlNJ7rSEzeTCi7sXs3GJDOmiPU0QjjxbTEZ5JXVYGFkgItw9h08hCNt6UDgkOEMdG4kdGu26LcxqtJ0rlf1YoCvCXKxNurzOhkY6IiqroIS/U5kfcX/iwi5qcWK3sP6495ZS7rSDU9PO4x+/EGIhKKtiNCvvyNSyIzvhAd4adVylt0ziV6mddw4d4FTpwuwGjKZeQ89yhMrZjHUT1yvd6cE/m/w6wyztQe9Bk1g4Stv8cZsBYc+2MDZ/A5MXL3w85TRXCJEX6+JiF3b+HpXDFU//na/naqcRNJSRWTk1YceHuaafPRd6Mpc8R/uRUdmFvmlJUTv+oD7F77EjrjqLqOrCeatHT1wthLRTnoGpbWlZMSlIDfyoa+viIL+5g8DDDC1csbR1ZTG5lZ09BRkHtnO9zsvkpZwiXWrd3Gtox9Pf/UJT/bUpzAskcI7H2H+GdFkBDIWxtPNh14DRzJh1n08N3cig1zFWBqaYGHjgn//gQyfMJ3FTz/HDJ/bua00jo1QaM1VqHu4dj3O1Uy3gYMXvS2baMhPpdZhNA/3qmPbc3MYMPwNrpqPZkIvW/Tl5eQk+jK0jy99Bo3A/tzL3L30cb69UYmRmTDcZs70mRqAlLqF+0cv4ONLSnz9vTBtKSXZ2Ql7G1eGrrwPu2MPMXDgWO4PljP2ufsYadVOZ6ucgB4i4mypJa9U6BITTxzdezBtRU9qDr3BzEHTeeWSAXPH9MBG5kDATC/inpnEyNkPsrbAh+XTA7G41UExNqa4DxiOrzKRNYsf5NV1IeT7uOLuaoWFozvD8jfy7NJ1QjnFclPdj0EBdtgFDmfqpCq+nDCSGY9upMi0D5N73ZFDGTnlObnCWWki+fMVTBrzNrHeK3j73n5YOg9h4Up9tk4Zxug5bxFtNoZHlo4n0N8V4+ZIvlwymZnvn0Py6MmwfiO5Z1UQxZueZUr/GbwRZcnyiUEiGjLCfdxSVuruZsrA0Sx6OQwGTGag221nVnRLjMn4hb1RXv2ChUOm8MyxJsYO7oGLfj1ZCe4M9rO5w1gaYukWRI++ag6sXMzDr+8muU4XM30ZZp79mBsk59QHyxgx+wtSvPzp6Wkpop8mLr/9EXsyzRi6cAaqbcsYOHoer183ZMKj9zDYpJW89iaqXe2xuPXSuxtdTP3H8qh/Bq8vHM/ge/YhCWd7gJ05XkOmMrl5C5MGTeT+9xNwnriYu3oaUiYc5k7heNnLmilOrRERqS2uVnc81dEREf3992F95AEhK+N44Fg7Y55dxnjhFCpL4wg9sYFtIYmkqzpodLLDzEgPC78xLPMv5+snZtF/+FvctL+HFxf1EZGsPT5jbbn6xCRGL3yWnVU+LJro91PObWsvxo62Ii/kPeYsepdDsZXIzTUZvCzpNWshfpFvMWrAUB4LM2XBlCDM1bVkpR5h7ZdXkXv3o4+nklOvzGTwvZ8SaTeQWTN7Y1BZJCJuGXbGhqJPwkEZuYz3fC4za2A/Rs/fRdPAOYzxtxUybotx8S6Wj7+bl3dnYNFnBL1/DGDEdb0nscohng8/+oZjZSocJUf6e1tjaOLBmMXTaNqwhEHjl/BhnET/2b0wa63HRF8PPzfb7t8lCHQt8BjtQ/X255kzaQpLzhjxyKL+6Jfmkurtg7utDW5iDGuPPMv4SY+xKVpF75nCaTToIDP4GIeOpWAyejY9Ko/y2PQRDH8tDPuFo+llqUdVZhxXBg8iwEJJc2EZRSlCjwjd31BZKgI0JT0Cgug/YRDG2cd4+e4H+fhoAi3tMkyEwde9Q1fry1wY+cjzrJg9hXGD+xEknEwLM5kod6D/lFnc99A9TB43lF7+7jgKObmVde1/j1/eYESVzb6li3hRtZzg7x9liJ2MpqRtPDjzNTJmrePop1NRX9/Hp2s2cDpBImDIAp5+dxV3uRSw+sUvuek0k9cW2nDh/ffZmaigx4LxWJ3ZRfSioyR9OoHOzFC++/hz1p7Px9ltGAuffZrlo425sH4t+ysCePWdB/Ctj2TP6q84FJNHhftUXnjlRR6dGkjnhdfxvPcSjx8+wwf9C/nu4WfY17KM7w8/gGveOb7+9Bv2RxRhI5TiqpeeZskoG4ovHmD9+1u4XFFFg8FwHvnqA96a20cosT/Ho5Lfd4MREfGoVbTLW2nXMcHSRCyQrmI1ClHWodbDyFhEPx2tNDS30anS60qhaW4iFIykoLmmHUNbcwyEt9/U2ES7WqcrbaGhJoWkqSmG4pzW5mZa29XoG5t2pWg0UMupawVzEdUYaOpoaKC1U0LXyAwr8b2hjlK0px3JyFwoFRVyEXWpNKk7TQ3RUbbT3NhMm0JTnxkWmvOFE6fsaKOloQm5pIueTNSj+TGIWKy30PRR1NnSTLOI5nPOfs/2+j48tGgeg531aa3X3F9f1K9He4dw9OzMhAHW9F9EkY1yVPqGmJibY6pJAXn7nae6gsuffyVkdwIzxvfF1tAQWde4aMZPODvi2saGVpSi3cbiWjMxhrpSJ+2tLbS2CsdDV9RppikX46iSi2i1GbkYA30TcyyFEej6pakk+t7UQENbZ9djUzMrMR5dqSRvo/k7chGRivFo7VCJft8aXyM9Ec3XytG3Nsf4R5m9Nc8dbaJPTWJsRZ80qTH1u9Irit6K8WsSTqpCLZxWC9EumR6q1gZqW0Q0b2uNMR1i3JtoUwqlaSzaaGbcNU9t8g7RRyPMuwxO9600SEo6RF/rW+RiJI2wsNakXdUTbeikrbmJJlGRnoj+zS1MMdJXI29XIIl6TGXCQLeKdugYdqWB1KSc7K6wq68/yopmjs00fZXEmIr62iWMTU3QUQkHWl9Tj2YeVCLyaqFBtEGpEvNroUlvqfmVt+ZXv61dctQu5EXTHysx5oa35UXIvkaeNOPRrtRDZiRqEg6MpakwDBp5bmqiWRgZfRNLrMV1XfNX34LKyELInQEqTd1irSiEFBlrUlcaGyCJ9dMqibGViT5pjIiY246WRmqb29HRlXU95TMRzoS4Ma0tLbTIO9E1uJUq1MRIk76zexzEuLa3NNGoEM6PWA80d6BrZSnmWUeMj1yMj2aOdDDQyJEwZHpiXco1a8XIBNmPj3rVqBTiPqIfrQoVkqEpVpZmGKlaqZMbYG1lhBB+WkQ72kTwpG8k5EqzVtVijQvZEQtbyLmemCexntrE2tQXesNSyKaoXyUctRqFEfYWhqLP7aIvaoxthIPV2U67Qsy5mDcjHc0YdusEmVjTQqcYW5p2te/naUT/t/hnNhj5ZcPcJcjtYunqCyEWC0IzuEIRdohFq9ITC0wIluZzp0IhFLswLJo8u+I8PSEgnYpOVJpoTwiWqut7seiEwtAR56v1jDDWaF1Rv+ZahVLzow09DAwNxIIV/kCn5u/tRHQnPmsWoVJzvebxtyYnrNGtvL2SSiGES4WBkQxDXU10KBSJaGdXLlmxOLrapJS6chHfqldzjRKFKFephTLTPEIXdXXlgP2TCI1256//A+pKItauIdx4FIsXTcPf9uePYH81DfFsfOg46vlzxSLqi/2f+0cIWrRo+ZPz++/8pUl4rklQL7yfrqT3XUXCSIuIqctzFWUaY2wkIiYzTfJ5TbJ6YQBvJbCXCcMtjLQwjIbGog7xvbHwKrsS0QuDrjGGt87TJMUX9d1O4K8x0MLYdiWWF3XpdidOv52o/lYyfs27RSPMhCfdleBdU4+4h+b+t5Lz375G06buZOtd19xKhN9Vl/CSbyeQ1/JfgK4jY174jLcev5uAf9Yoa7AawKNH3uXx+/prjbIWLVr+LWg1jxYtWrRo0fIn4q8eZWuO+++/v+tLLX8smsxednZ2XLp0qbtEixYtWrT8J6N5Pbxnz57/2ztmLy8vXF1du77U8sdy7do1DAwMGDp0aHeJFi1atGj5TyYvL4/y8vLf8cdfWv5QtD/+0qJFi5b/LrRpH7Vo0aJFi5b/cLSG+b8ddQf1BXGEbN/Ixo13HAcuEV9cS23+TSLSCqiXK+l6dPIvR6KzvYHignwKy5v4fbZ36aShIJ6opHTKmxV/sx+av/VtKU3i5OV8mv9eR5WN5F2LITmtjJbOf1NCRKmN8sRkUhPEnNQWEhGVRk51699J1/f7ICk7qC1I4vz1f1N6xb+DJmVpbmIiV2NLaf070yHJ68iLT6OkrfP/lv9bXUfqsRASK+TdBX8A6hZKbsaTmlZK89+QN7W8mMh92zmZXssvSqPUQXN5LpmFVTT/s/tKS+1UZ6WTVVAhZF+JvL6IhEuH2bZ5k9AXB7mcVExj5x8gHMomCqJjSUoupvkXUgvfRupspSwjkUtXC2juPl1qryHtegqp2bW0/4nk+begNcz/5WiUW1bkebZsPk9cdg45Od1HUQX1rXVkXTjE8Wtp1ArD/MegpKUsmfBL57he0PjLCufXIrVSeO0s56/EU/pjApU7kZBUbRRE7ePLM9nI/85ildqKuLz/IhGxJX/XEPyrkeQVxJw4z4XQdEqyr7L1RARJ5S2/kwPzt9Bs3VpP2rXDfH8p7++Ozb8DSdVJS0M91XVyITV/CwlFSRQbdkaQ1yoMc3fpP4WkoLG4nIb2P27ipbYSIvadJfy6MCp/5Xl1UB69n7Wff8qnJ7Lu2Ib2b9BZS8pJTT25NHT8M+2/lYb0alQMWRWNtFSkELIrmNOXY0nLyiYnPYHLx/ewObKE35Zd/7ejGZNrhy5yJbroR0P795FQtlQQGx7M9suF3HKphExUpXL45CUuplWh+A81zL+c9lHLH8o/zMfc1kB5diwXMmvQlVliY2rQ/fe6IiouyiEh/BLFZr64a5KndiGuaRaKPjaRdNeFfP7+I8ybNpWpU8Uxqi/eFg3E7Immw70/fd11yLkWzNa9x7hwow6bQB8cjVTUZ0dzePNFYdSvcSI0lsqWVopvhrA/OIYaXSucnS3Rb60Uiv0Uuw8EczaiFEM3TfpOGcrKWPb9EEV5QzxHD18gT2WHk6yOyKOb2HQohg7rQHp5GFJ84ywHDhzh1JUCOi0dcLYxRV9exs1z+9m05zgRic2YebriZH47/7TGmDRSmBDG0f3BhMUlk3ylAmPXfgwe6oluTTpXDuxi3/GzRFbK8PF2xoQGEs/uJdV9FssGOd5KMCDMXbuIDGLPBnNgbygJacmEVRjgN2IQfe3byYg4wY79RzkXWYGJlycuZgYoarMJO7aL7YfDSCzqxEqTm1q3hYL4UI4cOEDwxVQqVSY4OFhhWJfE/nNx5KWEcyS2DWeDbLafTqU+J5RjKTpiLAq5uG83+89cJ6taD3sPB0ybczkfVYDc1RcPKYWYFitG9PFAygpny+6DhJxPoMbUDT83i+4+aBDjoWjryo996tgBDpyOpaxdtMHFFjO9VvKuXCAqI5OkCyc5FlYAzpr5uZ0PWaKjpZT48DOUeE1ltpeCtIsnOLDrEOdTS+k008yHCcqGXK4f3cf+oyeJKO7E1tEZa81uaN11qFUK6gtiOLVvP2eu51BTW09Ndj2GLjIqImNIK2jFxMkKZVEUwelNWFuaoKpM4dLOrew5dYH4ZlsCfBww+XFfZCWttaWU1tRi4e+NcUEs12/eJCHqMmfPJ1FvLGRJymf/d+v5+mwq+r1HMMFNRWbEKbZuPcyVuBJUdm64WqmpTIrj2unLRMZHcDz4JHlt+jg4u2Ch20BySDjZShMs2vI4V+vCmGEOtGRe49SWLRwWhqlQaY+3mxU6jYVER1/hcmwycaGhXM/XpEq1x9JATkXaNQ7sPsDxszepMHTC28Wya4e327Kq7mynJi+WkOP72XcimsJmo64c0LL6dOEUC7nt1ZdBmkQn4prbqJtT2ff+SVp7e1KaY8fMeb2x0lXR0VpN5tWzBO85QnhaNZgb0RR3mm3r93G13JKgoX6YNaZw6oedHA45z41acwL9nDDorCE1VMhPgoisI+OpsfLCo3sfdI0xvHomglwDH4YPcabq3DEu5poxfPFyHrx3HjMmD8BeqqNS351+rkY05N3g5L5dHDgTTWa1DrYuYhx0hXOcGMahg4c4dimTRkNLnO0sMFI3Cr1yiu93HOTipVRabLzwdjK9lbylC7EGG0tIOHec/XsuEJeawpUKHVwHD2KgSyfZkSfZJdbg2WvlGLm742phdMcuYira6vKJvRlJS08huz1sRL2d1GRc41JpG579B9JDVsH1I3uE3J4iolSFg5OQW2MV1cmX2PfNDjH+N8nrtMPH3QbZv2hP7j8g7aOWPxxVO42VOVw/s4+NW7Zx9GoWjW1KzRbaQlmWkp1wga3vrGN3SDQZNUoMfyZcatpbayjOiORm6Abeef5Znn1WHC+v53BEHo2NtRTU22JvqST9xDEuZTVhYmWNWd1VVm+Ppaq9iYzLB1i79xoFzXLqkyM4uOUsqXWt1KdEcCnkKnlV5aSGnCY0sQzJ2BKLlni+3X2d4nYFtUkn+WjDOVIaRHsb84jYeZK0mlahcHUxxl8YZR2yz1/gfEgqjbrGGDUls+fINdKrG6lOOsZX4aXIrC1Q5p3n6wOJ1N/2oFVyKtOvce74RbKblchLUriaXo/cxAqjljSOHwknrVboLGFQGq/vYmt0GSqViLxyVAwOdMKwqxJhzNqqSA69wMlzmbTqyMm/eY2sjhZMLeVknjpBaGoV+mZWmDfdZM3261Qq5RRGH2TTzQZMTSVKEi+x53wK+Zk3CD97mYIOY0w7i7hwOZqbBbXU5kawecsxrhTKMTXTpynlBJ+sO0WG3AhZWxYh64NJEO00NRL3uxHK0St51Ig5qbPUF46IKR0a5WJlTGfKaQ5eiKcOU6wNyzn3xV5iqju7etGF5nVFXjyhx8PIa5dhpVfPjatXuZhQTlt7GdF7j3DsZCI1Qg03Jh3h+ysiAutUixEQaHb3E05Ocwn0ddYhIyqEXWHZtBnJUJfHcyn0MikVVeSFneFKchlqY31qow6xNyrnjjqEgqxM5vS6oyQIGZTaCrh4eD8HYspExJtP2JUormbXCZXZTG7oGSIT86ktjmXvnstd7bWxM6YybDN74mt+eoIiddJQmEJsaBTFddWknz/Lsb1XyW8RBjs/nP1X4igUTmJdYS19hJMZYAlFl3ez82oVhjbCaWnK5fLWc8Jw1JIbeY59uy6R1aikvTSOsGvR5Na20VIQxb5LyRS3yKlLPcPW2GJaC6+weXsUNYZi3g3byLx8kDMZNTSUJHAueD8hKZUo5RVcDYngckIRxSmXOBqaJMbWGGuLZqK/OUR0Satof3eopu6kqTSZ0MOiLa1GWBm2kHzjKmduFFJTV0WdoylWLlY/JfXoQjhT5/dyxXoKD8wajHtqAeWtKtTtDeREXuDIUbEW9HRpFk7z5dDr5JZUUuwqjFZPd8zrY/hh30WS6sHSWo/SkE1sj6kSzlcBEbs3sftaMSrTW9ts3rqjWKfCoYspV+Do5YdLZz5n4tUEzp7EqJ5OyDSbMBna0mvSEh4Z7YqqIYer+w9ws84AS8NW0uKucFI4QXXliZy+doOURl2MWjM4cvwaSWVV5F7Zyy7hrLYZWQq5LOb0FweFzN9+/qFZgzWkX77I8dNpNOu0UxIfRXpLAyY2CnLOnuZSYrlYIGIumuP4emc0pR13PDvSbG3bUE1zro7QJd0pNCU5tSU1womR4WUrUXjpFFdSK0Ud+tRc28+uqFwaMs/x8bbLlOqYijluEvprD6fSG36fp3e/E1rD/Kemk/rCGxz48mt2ni3H1Ed41iMnMWdEX3yFJ3hx3ef8ZXM0bU7e9B40lPF3zWGg0535mIXRaqpF2WTClEnjGD5gAAM0Rz9/3IQy7KwsJEt4u2ZSDof2iWgo+JKIruNJTAjnwvEkyjsaKS8rx3PpYlbMmcWEwQEYO/Vm4py7mTkwCCfhuSqrUjl++AC7Dp3jenQMiYlXuHAsnlJh1PMTk7CdN4u7Js9kweQhWOW1otSXYeToT9DUu5k2yJSMnHJafSey4olnePGRCdik5lNU0YJS1SYirVZc+03mvseWMX+QC0ZdmkRCKSL0pMQ0UvUGsfjxJ3jg7pHYDXJD5iqjPvE8+/fv48jl69yMTybxyimOxpfRWV9IepYvg/0suxWSkuayTBIy8zAet5DHX76fu0YHMNDdGrvWTI4e2M8eEeXfuBkn7nWZ80cTqFCK6Ke9RTgcOgSNEZH3yrlM6mGHgb4xVq7+DBgyiN4uEmXFeRQ11FKcnY+VX08mz7qXx+cEIM/IxWvMRO6edQ93uVcJr96VWaue4vknljHNx5gqzftkoWRNDAzxsVFRmmuMk5FETkgaHU6jePixJ3n2xfsY3HGNyIIfcyYJP6WBrKgTfLf9CBeEIUtIiOZa2HWSMquEU1dIvNIFn2ETmbn8XqYHijnr0LyP7b5cs596TTmFhZ74WdSRlpCMzoC7eeSF53l83hAQRii1vInO9jpS2k2xGzib+5cvZmKQQ7cTqHlNoKA64yrBJa7MePhxHl40AW8vE9o9hRNUV0CBgRpTf3dsdOrJS9TB38qM5vjT7Ny7j2PXYogT8xR/5SSnUqt/Uo7C2Wiubhfz5oCLYTNZwqgZ95nErHsXMH2QPaZSO5LMBHsdP6YsfJjlfTs4v+579h07w42EeCHHkVyNuElWcQ0FwvDKB01mwTIRAS6ZLBwhicqaPCIPxqHrM4CBQiY0j7F9elpRc34nG4Ujc/ZGAgkxMURfvUREdhk1RXXQ7MOMWXOYO2M4No7CQWktJe7YIfbvOsTlqGjiE28QcSGUeOFQ3ULIi6KFwpsn+XbrIUIuRoq1dYPI8EjiUwooLK7ExtIMDwfz7vSPGjS5maPYelLFhIcnExgYyCD7AkrFWLTV5pMUF0db31nc/8xzPPX4cmZo0k06WuExfDJL7h2BdWkUiQo3Zqx6nKeefYGHBsk5FFlAU3UJ+WmeTJ49lzkL72Kou9mtddCpyVhWiEqyxsfbFnVlPjG61ljbW3YZ5b9CRx+ZjSe9Bw5hQKAtnTVZpJU1oVQraMptETLhy5TFi1k2cyDuxtVE7U5A8p/GU08+zTPPLSKo8TI3i26Pj4rWqhwSUzPQG3UPj7/0AHeP68EgNyvs23I5IfTKbuHQRAu9kpQg1uCxOErveBev+W1EY0kFhbXe9LjdH6GzyjKVGHU44mAl6/oNQpLcDMdBd/HAisVMCDShMOwQ8RajePCl53l61UrGuNRxPqlcaNs/D1rD/KdGkwDfCf/+QbgIIU+LEwIqDFljq2aDeUs8+/dnkKcuhSICiEsvoKy+DfVthatB1UFTSS2N9UNY/MCDXRvHdB3LZjC8hy0dlcUIrYeqIpWiPjN4+IH7uGfuHBY88hab352IvVDKFcmGTJw8CAfdJio727AfPZggWTuFDbqorBygJoNc94HMWb6CexfMY/6Dr7LpwzkEmjRRkKhg6qyR+JrpUCeigyLfABwNmqmmBb1AR/QrhQETEZhTH1+cTQ3RFQutQbP9q4EBVn0W8tGTA+kQEd6HH1zD2MPxVl5ioewUzbWUtrVh1HsgQfbG6OvpYellj5OtkuKIMvxHzxHGYwnz5yzg4TfX8fFMPzorhMKxCMLzdt5lSSiSKhFJyE3oIxwOO5k++vp2+Djaoa5IJ893FItXLmfR/LnMf+gNtn48Gy9DYzxGruD1JS7kXTzCtp2p6Bu1CWMWz/UKTWKFRhpEFGdkbYSFcQeVyToMHTSYfh42IkqvJTvSmHkLxuJt0kFhZgItI4fT18kMPbVQxprHcjIVzcVyTFrMcdZpJlMyQ1ddT2ylAz49/HG00Dx+Fs5WjWFXMorujohoqIqCmhqs5z7Ck8sXMO/eh/nLq6u4b7wHVBdT6+dDL9FHZ/168hMsGCjGUpPYocusqpW01JSSaumJZUcV9dl6DOrvj62JHiqlAn1dCZmBJb6TFrN8gg8dN/bw6ZkKjC3Mbm2/K+pQq9qpKs6hWfSnn7MpOsLYm4h59XQ1pqWoApnaCF8RFVKRQ7TSBksnIbNXKhg4bwUPLr2HOXcv5LG31/HGeLcfFZLGAapoaKLE1gNLdR01Vua4CYfUx6yd8kwDvC0csVRUk1rjjrerBboiYjtWMJb/x95dgEd1rA0c/8fdXYkHEgju7lYoVCkt5dbd3YW6U6xCaSlW3INLkAAhQIQIcfdkk2xks8nu+WZDaOl37+2lvZXQO7/nOQ9kds/Zo/POe/bszOMv3MtN185k1l0P8fS824iwVNMsssOIMQMJd7MXAceDFkVPxpl9bKi3p9fAbvjbqsk8asxA/zYSN5cz6YknReNCnMs338Gjz7zMnVG2qCq1IgXtw4BIV1pU5Vg4muNnWUt8jheDZ9zGHNFguPa6O3np6+eZakjf2xkGPVGRV5SPxfT7eXTujcwQy3z2mQe4a4I3muwWnNvscbez7GgsCuJ4J29bxdqD+1n9yr3c+sDbbBPBMqusHo3IJA2DR4T0C8fDxha3kCh6RfljVNkk6gd7PO2ayDhSQbi4zkI97MR1YRizohE7cSy0lSVk+ovG2SB/kTz++GniDQ1UlJlgY+YpApnhXpKCSWvbxfEELr5DNM5EkJy3kJhCsS3x+9mUZ4yZCOiVdY2IxBR7JzscvPpw4w0T6e+cz+pF0WTXiMZYfR6Hi3yJ6hUszifDFy+ttFSbXxzUw8AwlnhVJU31FnQfGI6blRkmpk4EuLthLAJ+Tpd+XC/qlVnXi2Nx1/MsfftaQsW2dMwsGj0iO64up8Bb1B8OhnKxv2vLuKARjU9vX1ztHAmecAtzR3eh8cQK3omuwN5eTdKOaoaP7Nv+lZ8ism5dqwYbw2AtFxfcKfzyuuiKODjvPm6aNI5x4y5O4yfewisrTlLa/AuJv1a0vHd9waNzZjBuxhusjy+mUXd5xPiD6evI2PUlzz/5Jt+eKup4KOBqZIKVcxBDrp3FnffN4cZRffBuiufbPUc4XWpK+MQbuOf22cy5/1qi7NQkr/6czRkNHfOKTKqlkbKKEnL8uxLgevEG7o/0aoouVOJmboeflydGba6EDZvItFHBqE/HonJ2wawkh6TKrvQIsBCVdznNJXp6hLjSVlVEgbUxNt0C8HNxEmvpRkDvkUwaHQEZiVQb+iKvOM+B5K4MCHegTVNLkaiUlcEhOIsWrSIytkAfV+yt7TDTtFJXo6apLpdD22Iw6uZLgOYULz8fTUO/kUydOpKw5kMczbk0zrSBEdrGJsrLK6koTuXgplO0VFkQ5OaKk6cpevcgBoybwOiuxiTtVOHsZklpRhJVPbrgfmmAfkNVKIJcY2MN5dWVFIlMf0NMGXWWvvh6u4vg4kZwf1GRjQ6n9Xw81Y6OmKVv5PGXj2M3eSoTh4fhVBfLyZQM0nOzafCKpE+4COqiAvey9CDQsoWiche83UR2ZyGCYF0J6SVBRAU5YmRkjp29IxqRpdU0iuOQcpJzmeUERrnRVNZCg5EzNBRRYi8qTH8fAk1qqakSWau2mvMbV7HBawTDRYZ9iWE0J2tbd2ydujJk/HBReTWJCqsCrNooPV+Ip609fs427YHxUE0AYQHOotI27AdxjuiaKSnIoDaii6jcrDG1b6asslZkqxkcP5AjElcPXCr2sWDTOYy7DOCaSX2wOXGenNKGy54UNwwQo6O8qISKmjJSD8WQeNqUCDdjylI0mFRYoKtMYMuq9SSKBpC7ON88/UzQuoYzasoURga3cGpTLS6edh0VkmioiMZXYV0pzYGOtBYVYdZkQpiPE6bVBcRXOuLg4YGFuoS0AF88nC0xdXAhQFRJ7r3HM2VMD6xqUjnWZIG1Is6bJmPC/Q3DI5pg5+SBW8EJVi6OxSy0F71DReZfk82JPDcCvb1xDzZG696bideMoZsI2OlHGkXDpIHchnLUPYLaxxEvTavGpU00Vrp4421ihkeXPoyZNJJuSjbR1Wa42osg0fE9qLGJBTZ2HljZhjBo/CginVqpLisWDWgNJeJ6ajNzbh/R6SI9zRf28XFcIM8sfIcXH32IB+6/l+mjzUksUqGIxpROzFejqmu/k7ZyxSrWHEklP88MB9GodLSzx9HbmIrqGhq0LaiSd7B0oxPXD/URx7OY2j7h+P74WRcpIiip9aYYiXPE0swEa79QhqgSOXU4iTK1Fn1zMSdWL2GtVmyrOK/yzh8n0y6M/r1CcBT1i7HaiR72texeuYVdueb0nDqeIZ6VZBfmozK2xZcqyisb0LdVk7B2BTsDxzKoy6Vz13ANiqy5SVyDIkAXpxxn06Eiqkz98PMRwVlxJ6DPKCaP7oY+/RzVdnbYXxaxDGMkWIhGvGlVCeW1mvYHwRKPxJArsuqQ3t5oE9bzyeZELIIHcc3EXlgdTSKrwhjHLnry8kWDwHA3I24/h055Mr6X12XPbPz1/kMjoZny83Eca+3Orc++ytvvvMFDI41Y/9ZrLDwmTq6Od/0T0fJOjt7D6Vpvpt0xnaGh4qL4M5sjRtb49JvMHffMZryoLP9fSLq6GEbUsnHCOziCvoNHMnby9dwxYRCRHjaYWNrh7BFA1LAhjBgznpkiGx7+47i+Cm0tDRRnxRK94TmuGzqwvUcxwzTy3nmisXSB/AwbPK296DJkBg8EZvHG3KkMGfs+yV4jGexvQmluKqd79iTEVktNThVVOX509RG5X1Fhe5YaGuCJR9eR3BpWz5qXbxXr8DIH2rrSJ9hQmaYR160P3ZyNaWkspyxVI7INH8z1LZTGnWLX6l1kmndlUpgxpxY/zJjRT7K+KJQbrx1McEAgA30zeGfO9cy49T2yImYypdulLMQIS2c/Bnb1Rn9yGe9sPE1Vsx1hji6ihexG92umElyykYdnjmPMq4ewGde7PcsqySimV58gHH6Myxa4BvUg1E3LkYWfs/VsGU1OviKIu+Pdexx3hJbzxRM3MmzMm8Ra9mZgsAPmLj5EWh/h8WkzuO+Nzai7T2R8vx709renZOUz3PHifHbn1GFjbY5RdSHnbGywcLUV2amIDXmpHPXxx8fRFGMzGwL7jmdE7bdcM2Ia97+bgOvQGUyNsKTMwojWYFdEioarCKb+Qb2ZfosfGfMfYeqwG5gX78L9T80k7McK1ghzey/69O+HX+LHTB55C6+tzsdWnC9+1k0UpZvjbe0h9o0xVVnJFPQKJNDVsuPBLxEKWuupLqyke49gvL3D6RHlyKl3ZjHqllfZog1k7LSR9A4Owkt1hI+fvJ0b7t6EMrAfUWKbL93pNDa1Jqj/OEbmLWD2DQ+ycF8RevMQgn1EAPVpJfn0Kj5euIzoQ6X4icDo6+xL/5uuJyB5ATeOG8m4d88RfNNgAi5+VyHo0IgGU6PImH08LGnMb8NC44m/uzm1RdkU+jrg5ueEpWGEuXOLeW1tPPW2/bnvKRfWzhjNmOlPs6MmkIndHWksqqYmzwFvZyuxp4wwc3AlRG+Mm1c3RvcNx0dkTS2leSR6iKDs4seI++dgs/5eRoy6hoc2VxA8KRJHTQ0tzc0EiXPOpqGKnEKxzdZ+ePhFMvW2UErXvMz1I67nlYN6xvYNuGwYWSNMrV3oPmgkPXMWMWXkDTyzJBXz4B74mNSRKzJl4wAP7C/dx9bks3/5SQLHT+GGCRMuJkNjxzK0ty8XMitRXIPpFubCmQ9uZeqDHxHf4ESEOA5oktnw7Wb2nWvAf/Ik/C8sZe6UUYydF0/gA/dyfXAbhemZ+Id4YndpF19iqF/EP0atrehFhW7iGMXsh6bhX7KKf0wbxcBhLxLdMIAHHxhPgKMz4b0H4X3sLebc+xRfxpViZmUhslBnuni0kLzxXW6/7iG+z7EV51EY7r49mDnXm/iXbmP0kJv4NCuYx56cRrBo1LczMsO5Sze6ikbayYWfsjGumGYnHxzdPfDpOZo5oTV8//wtDB/zGoeJpK+oV34ah18cTQt7AgaOYmp4OvOvG8bgCXfzUYwJQ6ZPZ2ykO/bieHpVH+K9R2/jhnu3YTpiED19Axg090Yctz7MiBGTuXdTHf3uvZVRTjUcXvUlr3x2nLI/7icQV+zXjcfsZk1z6nfMHvgcmvmH2DkngPKk3Sz+fCEbT7XRbfgtPPz0WKwPf8m8N7/ikNoS1ynP8uUzI9DELOPDVSdQNfbijo9f5qHx3uRsfIu5HyQQEGCL2rQ7j756N2EVu5i/+HsOpVgxcOadPPLQZIKqd/HYqz/Q4C5OrHNnONfgxviX32ferd1FS7qAEyu/Zv6nG8l0C2Tk3Od47obu1B34hs+2lNDj7ke5xS+PVW98xg+nMqlzGMYdrz3O/WO7YlefwncfvcoHWzOxcezP7Bef585ruuH0ZzYiLvN7j8es17WiFhlMafXPf2xhbC0qNhd7jBs0KO0jg5nSWldFiSEr01niLDJGVzsztPWiTGuLv6jI29Rq1PVg5yWymuZ61C0KFnaO2JopIrupoayqlmatOQ7urrg6WmEsKrP8egv8PWxFYtpMfVUdRk5u2BppRMypFkmMHW6u9piIDLqiupZGjbHIZpxxdrEVjTiROdSLZVbU0aqIrNHFA3cRpMwvXZSKrn1M5er2sXKtsTHUKKaW2DjYIKpZ6kTru6quiTYLBzzdXXCwNKKxSgReK0/cxbZ2LEQsplVk6ipqG0TFb2eNrlXBzNoWBxsTWuurKRXr3NJqjqOnG64OVpjotahVVVRUiQxAfJ69ixsu9ubt4xtXVqloNow1bCYqOitbbC0Ry9Vj62DXPrg/GhX5NcZ4ezm0f1duGGO3VqxnRZ0Wc1HBOHs4iX2po94wzrEIdLZGTTS0mWIjgrtpq5qqsirUWrHPnVxxc3Zof3jnR+IS1rU2if0qtlvdhqWtE65uDtiY6WmoVKOzFMuzs0BpEtukscDDydBYMNzKFvtA30pDTRUtVu64iDZdS0Nt+xPVDTozbEVF7Ooo3ovYT+J4VKrU7fvDwU3sDyeRXXfcyjZ8vmF7asrLqKwoJu7wPvbXDef9V8bg0mzYN3VoTcyxEDWNqa0DTmKZZiLzU1WUU9XQgt7SCR9PF+wMLZh2Ynu0TdTXN7Q/UGip1bSPn2zrYiPOqzoqm42ws7XFShENz5IqWu086eJi3f59YklhNS3is+xcxDnsaIm+UU2DOA7Wbk7tYxsbvt6pq6hGrVjg5OqItbmxmK+WQpUR7u4iaxTJSGVxKTXi/DazdcFL7EcLsa6GcZixccbBrI36movPSjiI89xIK45NaRX1Gh3mIui7uxq+mxX75dKTw4ZjI/ZNXWUFFfXiPBPXnqu7EzYmLdTUa9vH2nYwfI1jeK9otNaVq9CJQOfY/sS7mF2c2xp1NWVaG/xcLGgT51qVONeaxPo7OLviLM5nTY3huBvh4OGKvYVYP3FeGcaD1lk4ivNfrLOIvA3V5TRauuPx4y8bOugqift2I0laH0bcNpkwexPRWDOMj11FZa24hkR94CSW6yK21cRwXFrUVJZVUN9mjKWVtdinplg5OmKha6KmqqZ9PG4zW0dcxL41nPe6ploqSqvFuWyElbObuI7FPv7xVrrh/GujWVyDKnUrFrbWos5SxKUs9onYrjZxzpWKekVjuAY9Oq7BS+dcu4t1XFNdDTWiDmlSDOOri3Pfxa59WGGlTUtjXTVVtQ3ivBX7q6NuMmlrEtdTGTXNenE+uuApjpmNUS0JJ08Sl+fH7Dk9/7kB81/4LT1/ifPmok8//dQQoBURmDtKhLYMZfVNvRSv6z9WTlY0KDqlRcnd+LgSZBeuzPkhVanI3KW8NmOUMvqJb5VDR7crb99xtzL38VXK2dTjyuJZo5Q+1z6trIqLU7a/dIMSOeEJZdmxROX08ieVbl53KWvTy5VTS+YoNu4DlLu+Oq7kVxQraYeWKg9Mm6bMfmeDcmTv98oj0+5Snvx4n3Ju/yJlZE8/xW3q68rO49uUd6dEKg5hLylHa9RK9pYXlT6hU5QXVx9WDix7RpkyYpLyzKbjyrFvnlImjrxBeXnjbmXti48oDz61UNkfu115d2JPpcvEd5TDxQXK8Q+mK25Odyvfnk5Sdrw7V+nT6w7lu8Tajo3/84mLWfHy8ur4S5KuNjqlqSxJ+X7+U8od3yUoDfqOYqnz0rco5adWK+8v/U7ZnVGr/E8eMn2TUpp8SPn+1UXKgdz6330fPPbYY+2xVQTmjpL/7Mpyw10vMjbYC0c7Z6Juz+CWhd/yzjQfGnPOc2r7EY4sfohpk2fx1uotJBZlUNJohI2lJeZWdjgr1Zw/coGyg4t5eNIwRj+4mKyqWI6kVYsFG2Nl7UuvXl3xszOm9kIqCdG7WP/m7Uy57n6+3hPN6bwsKutaxHvd6T2oHz0iougRYos2t0y0QOvJOHOacn1vRo8ZzKg5b7Fx9ybmTQ1pvz1joFj4MfLeu7lxnCNnvlvA16cvUJBaSV2LGU5eLqgbV/DwxLG8VtCLl95+mAld7UQ7TJKkX88IS/dIbnngHZbc2gPr3zHrkP4gRma49b2Rx2+fLep4+47C/zWWuHcbzqyX7mGkf8fT3X+xKwvMk9/hQGYSMfPvwduklPIWi4sdARgZYe7bnRsXHKG4poaqyhyOfPcCE0Xg/JF4j+EH4c43fsCRzGKqqyopKzvFhxO9xIsmmJra49LxVKLh9o915HieWB1PaXU1lZUXiH7/H/T2thSvGmNiYtJ+u9f4stsZRmIL9Pra9lsooulDW2sr2lad4Q6SoKBUnOGrZ1/izcXxOF//EE8NCcaj/cFccwKu+5D4PT/w5ZtzcVjxCnfd/ygf7Mn/99+dS5L0Cwy3cI0xNTPHwvD7145SqTMTx8zEFHPDQ1Q/u038P8QQo0RsMTM3u+w77L/WlQVmA2M3ev7jGT64056tL7zJstMqrAJ70K+7HQV7o9m8ZQUvzLmLu17bRkb9ZaHNwZ9+47tjnRzLrthTItDeSUTU00QX/r/O3Szs8OrenW5uLaQd2MfW1Qu4a8a9vPDVcYr/TQe+xiZ2hPUdjL9lHqePxxG7bQH3z5rLY9+dRdX+DoXWJjXVSguNji44GWmpFKumNXwnpq/n3JJ7mfjwHjR9buetLx6mu1kLqtqGP7zbuV9HrGtrM6rKEvLy8tqn/JIK6pq07T9pMDzJqW2oorSu+ec/cejUDJ1aqKmtq6VBKxpRHaVXL8N3bw2oxPbUt/xZfY5LkvR39R8CszmO/qF06+KKlSFDNvZm4lPPc2efMvbuOEODxxDuevMpxjkc45O3VlPmPZYH7htDqLM1Tr6BhPi7Y2fhw8iHX+fte1zY9+HzvLbJlme+fopJgVZYOfvSLdwXR8PTMEY2+PWZzsMvzSagagsffHoY+6EzueOGfvi5uRIUGkKAm51o1Zlh5xVC9x6+OFhY4jf+QRa+1J/cDx/jicVHcbruIV68sR++zl4EBgXg33UgN988jpDKXbz55WGaI/oSFemKqeJAv9vfYsGdCp/ffxsPLowl6NE3eXVaV376IUpn0EZt5iE+e2YWIydew7XXTuPGh15k/tazFNa1oBeNjsJDC3huy1lqRVC4Kigaik+tZ8mSL9mTWd9ReDUTxyjnKCu3rGXXBZUMzJIk/VfkeMydyL98KluvJmv/ejbFlNBt7qNMC7OgOnErbyzMoffsG7lhmDv16eUY+/niatFIUVY2RXWtmFl7ERTuh5u1Ma2NKgrzCyhpAAfDk8tWNjg72WFseDrV0KmHiI2uQb44G9dRcKGAmjYdFp6GBpk71kYtVJflkaPSYdXahNbMAVdHMxqrRNZu7ExAoD8etkY0VhSRUVhBc4sZrn6BBBj6njXcGmu/M3Tx6csmVRn5eSWodVrKT50is8aJkQ/cRpRtIxX5+ZTUNKBz8CMsyAcnK9Mf+2E2jAzVpComL7OAWixx9AkiyNMRM30j1cWFFJfVoLF2o0uXLng4WmJq6IWoqpTs3BIaW23xDg/C380KbU2R+EwbwkOcMGpQUVPZiIWXF9atKooKiqlQtWLt7kuAvwcOljpUubnUGJujqyqnSudMSI9g3K2M2js4KSoU61uvYOfehWAfexRVDXUaU5x8nKCujJyCUuqajHDy8qeLvxu2ZiYd++K/oYhtyCej3gIvJ0ccDU+ptpfr0TbWUVNeg87RDWfDE8vmV34zTJKkP85veSpbDmLRifzzIBYK+uYKkg4ncKHMm2FTe+NuaY61CIwNe1NpcfcjyKOIZfespDIqBMvzm/ji2zVs2XWIQ7HZ1HiE0dtDS3rMepZ+v441+0+QdPIoB9NrsHI1IeWzr9gYc4ojx4sw87KgaN8WVi1bS/SxvRxKqcItog9+ZLNx/gs8uyWVqrid/LAjjoySIpL2rmThulSMRAAPtS1i59o1fLVmK4f2HCU+RSF0aCReVoZgJKKRoU/bmhyOr1/KVyu3sO/ICeJO1WDiNZARIxwpPHWQHStWsSl6J3vO5KF4hRLu5XjxJz2i2ahrKef0qs9Y+JXISE+IbSjT4ebng64gju0rxfZu3cKuuHRqrT0J9nPDuCyejRs3smLlRvbsOEVSpRN9B7mRv/ldnjvgwNSRHlSe3M26b4+jhHhQe3Y3K1dtZuv2/ZxOrsXW1x9f5yp2PPMKqzPKKTi0jq++P0xF5HCGuTZybsv3LN+wibViP5/Ib8DG3Z6avbvZfaQKlxA4t3sdX6zcxN7dMcQnNePZIxQfJytM/+vIrKf+/BYW7MlBV1tFYYUGU2tTTM1M0ZSlcWLHTs6W11MlWlrNbSZYmpu1v9ZJvjaTpP9JchCLvx2RIdVWkCWysZqAYDwMPQp1UEwMXUgao68uIdVJZIRebeSeTMd+6nMsnP8mt/eqYFvMBXIz4tm3JQ3/G15l7aLnudbbBc8mG3wNXT626DGKnMrLi57m5h6Qet6ckS+9x4LPXmBo7n4OZNXQVFNAQRJMuu4OHnvmISZ0s6TZaTAPPPcMM8I8UZfXUV2YQYoulDufe5v5r0+i6eAZ0isNT9K3ryl6kWkXnz/K9nhjJr+8kAUvzyYkxIrmLs5QdJIfVu0iySSMUdffxHDzBDYeT6Wm6afb8jptNTlnc7CcNY9P3n6e64J1FOUksG+jCH6FtvSafjPjvOs4feY0F0oLOLdhKwdqw3ly8Qo2rbybkLo6VI1iPx3No+/oCFxa1JQWlZFt6odZ0THWr91HhXMUM24ZgUdxCvGnMinPz+J0iQMeASO5Y+EXvDq6mmPpldRmH2b51kK63/UJG5e9zwODnaguq6BYrK7W2web5iIyml2ZdPdLfDbvRuwyssjIr+OyLn7/CyY49b+FpydF4UGuaAxtYd0XX/DD/iJM/How8ubribJrJvfsLpZ/t5zlO2LJVmnEEZAk6WoiA3NnZuhLtqaMem0Lft19cGw/WjqaSnNINTXHzNmKppJs1D3csK0tJse9L2FKAWcSk0hJz0axgrqsfLIqIxnWPxg3RwecRYYb5OOJaUMJVUERDBnfly6GofFyS3Ea7I1x6QXOJyeSdE6Ho6UxjeVVVBiP4MaJkVg31WJm5sn4CX1w09ehdrfB1c+UunJTurma0ViQyfmzCcRrLLC0+OnU0rXUU5iXTXHXyYzt7oGDvTPuPfxx9TdHlZhOvbqelrpczsaeJt8khN5BHj91oCGyPVMrH6KmjYTsWA6cykITPIIo8xqKM4tF0KkmVbRGL6gdCAoIxN2kgoRYU0YNEPvC1RbrLmN59rObCWnKISnRmwFhTmibaiirr8Qkwon6rALyCrToqtI4GZtOUxd/AkNd0ZVmk9VzGBMm98LbTE1hmg1DQ5yoyUrirP8UJvf1xsE1nAkzb2N2hAVq02bM/S3EsdHhbWWBqSqfVLEvztQrKOamv8Nt7EtMsHJ0wd0/nL5RLmiyUknNqKBZlJtb2uHuG0TXID9sNaWkZhdQ9d+OUyxJ0p9OBubOTK9BVVSOpsSSSJFdmqGnRZXLsehz1Ab4ERRqSXlyPl38HWg7t5HFhjF/gwPxsDPFTOdM324igzN8t2lj6MtYQ3V2MrFFldR5uUB9LX4+roS422OuVHFm1Ubia8zxCxQBx1iP1jGCCB9TygozyQ/rToBNC5UFtTTUeRPiZUplfhGm5ub4WpazZ/1p8hps8RXZuLmY165fOEHtg0VcjEaG74ibNY1oTPS0NVSSeTaRiiKFUC9HjLVGePW5hkff/JhP5j3GDaNv5fahEThai2DWPm8LxWcPkGgznmdv7o1lURwbvz1Cvlo0HPwHMOe59/js/Re449rbuHlQf4JcLNsH8mjT60W7RkXa/s3sMQzbl5nIUc8eeOlyOHfyBAlxdfQI8xD7yZGgwbfzwoef8O6zdzNt9jQG93GnIbcYzxBPvO0sMKpI52BWOAPDndp/kqeIbWzvhzz9DDHRIkvPL6FV3UIX+0ZO7TrFuXxjPHzcsTEHm8gAunhYt4/P+9/T05gdw5o9sZxLzqRY7cG4F97k+Xv6Yludy7l90cScTeZCtSndp9zFy/deT3/fS/1PS5J0tZDXbKeloGtWU5yTztGTJ9m46B1efnkenyzdQmJzF6YO60eEczO5CQp+Ds44+4URZZrOjg3r2JOYQUWFOWEiM/YJCyXKJpHv33yHD5as5VStCjtfM5FJa7DV2YkAaC6yOSs8goMwTznOtg37OZsosltjX1ys6ygUGbffkGAcm1Tk1qgoEZ/jYyUyyBQNzoggLTLMoFBrClKPsGXncc6k59Ma4oqLIePtiEWmFvb4+gdje34LS7YdIymtErM6W4I9PAkcGIWzksYP8+fx8uer2Hfe8MDWT53VKiIYqYuT2LX6CxasPEBmpTt9ugUR1K0rXbo0c3Cp2C8ffc2G2Eyqm1rBypOew6zI2Pwl7776Cav3pVDV2karokOvPsT3H65k+/44ksr8iAwLJKJXIF7qGL569eK+PZVdJRoRovFwWkcPV7f27jxVFxJIiOhJhJsVLoFR9KzaxZuvvcMny/aTXFJJdXEtLRW2eHu44RVoR13JWbZvj+FEUg4NXvY42egoObaSRUdzaNFduqcttqylnuy4A6zcnEJlfSmnDx5ke0wu9doa0vbs4dCRVKqaf95xr6KY4tAljF6jb+KZZ65nSLdg3G2MUYxMsXLwpvvQydxy823cNCYKP7fLhxOUJOlqIR/+6kT+6eEvkfrpjY2xcHfF3ckWGxt73LpEMnT8MHqLbE/Ux2DuSUjPboSEiyzVspVGnTleEYMZMagHwYEe1OWd4VCVHeE+5qhLq9BbBDF64lBCnN3xDgnB38cRC1MRcIK8sWxtQWfhStjgIQyJiiCyl8ieLZzp3jMKXzuRAds64BPRVQQoa4yNHPEOCyMwPIAQP0NWZuh3tgt9B/end/coevs7dfTHbOjAwAx7F0/8Hc0wdwmgZ4/u9IgMIyDEG1dXD9xEVopOwcIrivHTR9DT7+KDXxeZYOvWhQB7Pc2t1niH9mHU9IFiezxwdRafoW/D2DmEweNGMKi7N3YWNrgEuGOpa0Vn6U6P8dcwvqcot3chwNIYa88Ieg/qRY/+/ejbwxc3NxccnSzQt5rg0m0gE0YOoKu7jWhMeIn9GoKns6XI2o1wjerF4C5O2DiKxoSLMU2tFvhHDmLsxN742Tvg4hNCcGQwQb6G/pdFm0Q0ELr3E5/Rqye9ujjTlriJ1bVdmRrh/mP23P6kel0tta32BPhZ01zbiM7cER8vS1oqa2mzcsTVo6OP53ZGmDsH0iNQ7Lf2vosvMcbcxgmv4BB8XOzb+3+WJKlz+C0Pf8mfS3Uiv/cgFrqmahL3r+D91XEopjY4mHeh35RJTJ/SB6//N/yb9MfRV51h6coE3CfO5Jpwp/YeliRJ+t/wW34u9U+BOTIyktDQ0PYXpT/Xli1bsLCwYPLkyR0l/yXDz5RUxaSnppFfpcfBPZCu3QPxtLe4dJdZ+jM0l3Iuq5XAUB8cLWWDSJL+lyQnJ5Odnf3fBeZ77rmHm2++uf1F6c9lGH/V2dmZdevWdZRIUuc0d+5ciouL2bFjB5aWhr7s/x6mTZvG9u3bO/76e2hoaGDGjBntHfB88803HaVXt4qKCmbPnk23bt1YsGBBR2nntGjRIjZv3vw7Dvso/anksI/S1SI0NLS9vmhsbOwo+Xuws7Pr+N/fh0qlaj9WkZGRHSVXv4KCgvZtGjRoUEdJ5/XHDfsoSVdET3PmFh6b/jbbs+sNjb6O8r8rhbb6PA4sXci8t3aQob5K+iqXpL+AomskcfmjDBj+PJuzGjpKpX9FBua/u7ZaLuz+jDnhXohs/Kdp+AMsOJRDw7+InYqunDPrFvN93MUxuv4TXf5eHn9xObtS0zi27gh2s8YxxNu649W/AxUnPprF3LUZoulxGaWFqpx0cssaCZ/SnwCbv+L7YwVtYzlnY7axdnc6TdVprP5kMfOWnKLid+lt7EootIgGypbXJ/38HAuZwsOfxVL2q9ajFVXeYT68aTJTbvuOhLqf/1xM+j3oaCiI5bPHbmHS3Z8Rk98kykSjOmMHT1x3DZOeXM650gbxrt9OlxvN/ROu5a7FR6lsbG0v07cVEL/jPAMf/gcTAv5O9cPvTwbmq4bSnoEqej06MekN/+945eJrokynay//iYK+WU1BQStG4xdxKCO7/SGE9mnvZ9w/IgBrwxjWbW20trah0+nbP0NXm8LG1+IwcTRvX65OZ3i9VbxPLN8wtOTPgnkr5TnJ5FvosbTyYviTb/Pyjf1wtjQRAV4n5hVTW8e8hnU2THpD2c8/07BQQ/n/XxfDSxf9NG+bWF6reJ9hP1x8j2Hb29rH4r78cy75aT4xj2H57fN2LO+yeVt/3L6L08Vyw1RJ1gkNUYHuGLUvx7Bdolxvjlv3scx5+nFm9nTDTKzjpe1qE+t/cT06VqJdxzLb98nF9df/bHs6PttwjMV7DOtr+PyftlPMb3i/YV3byw1lbTRWZnD28A7STawxdwzlhofu4tm7+uKiXNz/7evbsew/jPgsjVqDuds1fLzn/MVzLGkTHz80EHejjvXu2Dc/HVvDtl7aHnHsLpXrtDSoqqiuaaRFvP//z2M4z9v32c/KO9ZDugLGWDt6EuJmTmXScY5nlKFRmshLPkVCmp7wrmF4OVhhfOncFPv5x2NjODfbrzNRdukcNhyPS+dkx/uM/cfzyabVLLhrMC7WpqJMtM5Mg5n97TbenxGClbFRx/IunhcXJ7GMP+NcvQrIwNzZiRNUr2tF09RATUEqsZs/5cEFa9h9QSUqO1FptTSjVpWSGrOVRY/fzRfn6jpmNBDZVHM9Rc0V1ATaY6FtprlZTJo2FCNjTPQ1pG78kOv6ReLj3oebnl1LSvVZvph8Pe8XRPPmoyuJTd3LW3eMw8MjkF7D7mFBdBq14sL5kdJMVWE5Xs52uJnl8P21tzBv2wXxGWl8OWUYd775CnO6BxI1+TW25ajR1hZycu27zJ7QA4+A4cx+YxNJlRp0DXkc/Pp5BvcMxcO9Lze9sIH0eq0hHHd8jtiWhiKOLn2KacHu+PUexb2L9pBdU09J6n4W3TuVAQEeBE99nOUn8mls+3FOQaH68Lt073oDs2cPJShiIk98dYqqVg2VGYdYcO+19HF3J3DU7XwYnYKqpZX6rIN8/sAkugZ2Z8LsZ/kq2otgTyOytj5Pt4n3ct+91zPl9S0c2/0d79/1OtGp+SRHL2DW+D5iX0Uy4fZP2J9eKSq8y/dVFftfHMv4R5/ivmGjeXj1PqI/f4qZoR749x7HQ1/FUNzUTPHRJTz05E1MG92fXj5DufX93eTUamhTpbNv8VP09ffF138sTy4/R3lVFjs/f55H3olm98KvWbN5JZ99/C5rz5xl5yuv8PSNtzB+yD3MW3GGiuY/vrIzVLTaFo04zzRoRSVrePy/rSaT3YseZ1SfINxchzDrpXUklTfSpi3mxPevM93bG08vT/o+uJiTRZf69m6kLHUTL8wagrNnH6Y9vZJzFc20View4uVZ9A7xxdUxgmmPryChqvn/NUilX2aEsZ0rYf36EK6oSD1xgdLGesqzimkK6Eav3n7YGZdw4qtnGRQYgKd7ONc8u5rz1Q2Uxi7iOhdXwgcNY9SgKTy4ZA3fiuMxxN8VV/9h3PTqWhJKG2nN2c5dIycxZ0EMlQ3NqJJ3inpkGJ7+QYSH385728V11lhJwspXGOMVQo9JU8T54YfngBuYtzmRGu3/9vGUgblTE9lsUwUXTuxk6dvP8+i8z4muiuSRmZMYE2JFVVIMm1Z/xmMTH+bLODVBd8zjnl4OHfMKIotprC+l9Nhu4j69mzH9+tHPMI24hw/WJVJZns72LU1MeGUNCYkLGZhzjsR8TyY9OYtuz2/i1IbpaGN3k9z9FRLTY5h/eySl209T2HjZvUldHaXZhr6yPXGoy+dESSgRgW4YV6YSE2+NT9gNvHd4G0/1S2Pr6QtcOLaTzXtUjH1pDbE/PIx7fTrRxzPISdzDqqIgXl4dQ2bcG3juO87ZwqbLgqvIDMsvkHRazcQV8cR+/Tg9NWc5cuIw61YfpDD8bpbsO8yXEzUcOBFHnkrTMZ9BMzmpSWiHTua5Bbs4tHA2Vnt3EZeYwLbt+0ns9iAbszLY+0R3ipOOEJ8Wz+YlP5Af+QR7kvbwYjctCWEB+Dq3UZyVQ5txIDe9sZrdzw/AqKCWMsJwaRHbkdJI/6dWkZqwlGuoJf1cEQ2tl1UwbSLzPlNJs91oXozeyJ2msSyL8+KBTUfZ9t7NuBXtYHtSLiWZFZi3RHHPgu3s33kfuowMkoryiVvxPp+kdWX+gWPEbL4D/UeLOVrjTL/xd/LAzLdYuvop+lsqWLe4EmjdSn5lBeUe43h7w2e8PLcfHtZ/9OXeRGnmBp6bOVScZ8OZ+eBH7MnI49zGL/hoTQG9ReDdsnQG9VvX88P+CxQcWcH9zxzAd+Ex8uO+YXT6Mj7ZlS6OloEeU+8I/vHaYpY/0IPSE3s4kJpH9un9HGnrz4urt4sA3ZOUNevYlVCJ9k+7bf83YWSDZ0gkoeGmZKcnciEhkeOnqnAN6UaUjxVlOz9n7puJDHx9JUd3Po/9+pd4eWumuArFaWzkiPuo51h5eCX3Oaaydn81ES9/x6q3J6CPj2H3iVwu/wZCqU/gq2efYX79XI7npLP1FQdWPfo0nx4qbl8ezZYERN3O2/NFkuBaw5EDcWRXXxoE53+TDMydWivVuafZsHAVsdU9+cfjz4oKeBBBHg6YN2az5/OFfLy3jQnvvszjc6YwNNydHzuJMlBaaa6pw9x+MksOnCc3N/fidH4tb9wuKmq3AAYNbCD9dDQ7TumYMv95buxlSk58Nr27emEpMmMnr8FcF1jLyehotsWcIUFjyo+dcglKXSnnCw29Z7lCbRHZ/UMJ8DanIeMcZyffx/23ROGgbURbbUWEnUYErcNsOBLNoifncvPDH3DkbBlWRjp0VhHM7O2GNiuevZu2sqVEZMsml22MkQlWzqJFHWHHvi07iG/swsTb72KwaSEpcXvYsnwe994yh+eWx1HWqHSM5dxBqaM4TcOs26bTy80aWw+RcbvWUZKfg1oNw0YPINjFSWTwfijmxhSfj2W7vg+jxw/Az8mLbv0isRoWgqdRBbkJtUx//HbG+VrRpmmkXISR5j4BeDh6MzA8lC6aDA5v3cGWtFIq9Yaez36iiIbF8ZQRPPfgBDx0xZzZvpMzZ1fxwj9mc/eLX3AwT4dZq1ivMhdCIkbQL8wLVw8ffEWkUirOs319MsUxi3jslhu4+b7POefugHGzyGIq88jp5o+bcTNV5a00aj2waCkjwy2YPjPHEOVnz0/jkv2RbPDtdhuLD6WJ8yyFQytfY7q/juL0IiqSj7Plk+d49K21lJnXUd9SQ356EhWtYQzp4YVN4LV8FnOW9ff25uK3j/a4OUUQEeKGrYWliPla6psUXKLGc8OgLjQe+4FPNohjXVeFulkO1PHrmWDnESjOMQ/ack6xPXo3h6tsCImMwNuxlcLUDLTaFHZ8+AizHljIBTd36surEZcLZtaWeHcNwsPGBpfArvR0U3Hk3ReYtzaf4CkTGRcljudlJ76+MIlNca0MmjqCCHtxjkRGEaS+wKFz+bQ/AubmhltUN8J83LBxEHVHSxMtv89wbFctGZg7NQs8uo7hgQ9e4rb+Nez5bjFL1+7kQGI2Zaah3PT+R3xxXyApS77k65Wb2bE3loL6S08GKyIuN1OdV0a+KpwQL6uO8g6KhpriZvynP8DDN/ShedO7PLrwAIV1JSJ7dWR4VxdqU3by0Wv7qbF0xsXZBfcgX7xDfXCxuvSQkx5NdQmZItiZu5lSW5iPaaArbhZa8s/n4DNaXOSicdBUWkBGTjDdvIxpsPFm6rsbOBF/iphdIgCvfIl/9Neye8EmjqXUY2HrhJun4UINJ9DVXAQ2wxWuoG/T0tDQJi78R3hvqi1xPyzk7SX7uJCvJWTAPXyzK5bTsQfYvHorKx+eRpir5U9BUZNP0h4N7o5W6FtEhp+TT36TqPBbNeiqLNq7BNVpqshIzsPGxBwnEw2Km5UICCbo1fmcO1lAt26+ODZXUJTWjbE9PcWFo9DSWEONWoWdWwvnN29l49YM2qyd27v5dBMVl7+PA1aXRskS79eU5JI4ajh9fMzE59WjbYjghVWHORMfy4HtW1nxxkvcFACp1XWUm1thbtxESUYmZZ7WWLepyDSexpsbxfvPxXFoywo+X/4Kk/zaqK1X4dmzCw4N1eS21FMZ7I1lkwovb0d6iONxeSX5pzM2xcLGAode03j6iy0c2r+N5d98zjPT++Dt6oi5USWlVU3otXXkJcVzOqMKzb+LsrpKTq8U2f+CrWR7TeTZf4zC1+X/ndfSFTOydSO8bxSBygW2rNnGBRsvuvcU57mVOZY21hg5jOPp7/Zw8mg0Kz5fzOI7+uEk5jM2NcXKXpyfihnOQf249qGXefvV+xjgksf3r73Dwg1nKGm8LGW2sMbZvJXaChUNbTo0DWq0FnZ08XLk7/ML+N+XDMydnak1rv69mHLXc7z76rPc1s+SrKJCCqtbRDAUGdGo25i34TMeuyYK+6JTnCv/aRzkNo2aIpGlnTEvJSlmV3tnEIZpd2wiedWlpGxbwZfz13AsoxHXYQNwEhebolFRlNtCaVapaB2LwOTuRFtzHWVFuWSL7MS2qweOPz58rKWyIJc2F0tc7JrJiSshxENkz0alxEc3MzXKB+O2FioKMknp0pPIIH+Cvf1pFhnuDxs3s3rpcjbsjaOoTofeyQG9iZ6m2nKSE87TEuWNt9VPwyW2NVVxbsci3lq6k+Ra0bL36UGUlT2ePbqI676YmOgtrN+4ii8WbCcuq4aWHxvcCq3FmZxuVsg7u5dtIpvdc6YYyxnXMLRfEI5+9RzftZkNm0TDJsGEYP/e9IyIwLU0jX2x8Zw9c0hUWrWMCvFCX5pNkmUwvs4i/1REBldZgiq3mXBvZ5FFWKO3tRCVThVZFy5Q426Oq7stP41+qaEkKwOz7n64mRhj4eBP+Bhbzu7axMYtG/h22Q9sjj5PYWUZNU2i4ZB9mkMbN7F2bz5RQyLp0WcwN3at5vTm7ezYvpk1Xy9i8bFCmtuaUBdWYFpRQl5JKdVNNdh6W9Jc1IBliw2udpc1UP4KVq6EDxtMlGMdcdEbWPrRuzzx9BdEJ6lw7jGWCf2MSdixla0bv+Ktl17mvU2p1P+7wKw3HFRTzJo1NJaVUFyiESeG4eEw3f/8w0K/iZENXmE9CAuwQZXXhG9gOD38XLA0siNo6FgGB1Swe+0GNi39gCfufYMfzteIq+kyetFwTDjA2m9WEVNuSa9+gxk8IBBbexNDz1UdbxK5uW9vbp0URmPsZr7dtI2tO1PRD5jCtD4+IvWQ/hU5iEUn8k+DWPyMESYWtjj7RTC4WxC+Dpd3q2mGrZsv4QOH0dXFvKNMQWfImIsyyMxMJet8cnvXcIbpQr0pXkGRRInWsZJ/jmOxp0g26sFds8bRy90UVfEZzpT7MvK6QYToz7N93zlURj5E9O1KYGA3onztOwZQaKOhsgpLtyCi/Oyoz9YRNHgQXd0VitNs6TWjP57mWqoqCmmNGMz4SG88HK1pyzvF7pgczAOHM23maCICvOjiWE/y6WOcuKAjpEcQLoG9GS3eb2N68XawkYnIuhwcUApi2X04izbXnky8dRx9Q/2wb6kg8fhh4qpcGHHLdMb38sPux4Ec2qg6uZoPmnpxnVsG++LqCJ14G3dOisTdzgFbkZVmnzzMsUITuk6YyozRkfh5eROgFBGfo8a1awSRli6Eje2HZ0shyXYRTB7ijw2tNFXXUF/nSq9xw+juYywqN5HJxldi590Fv67d6RceiLe9RUfrVzRQMjOxDB/O8ABHTE1tcHa1o0o0UvaJCs++z0RuuSEK4wzD92v12Jo0k5dQgcOQmdw8pS8+zu506WpGRnQ0B84W4TTqbp6a0QN7Iw1VBQUiKIN3qDeOpuYEhITiJDIWU4cuhEX4XrYvfj+G3pZqamp46aWXMDMzQ9G30liros0hnGHDe+Fj19F6M7LA0SeQILF/ii8kkFbizLjbZ3H9yHDc/UIZFOVA+YG9HM6oxH3Kgzw7ayA+IrtSqzTYBvVh8EA/zBsb0Fh503PYUIb08MWssYycVDVukd3wcfUmYsgAehpu1/8OfZC/++67vPDCCx1//T1oNBref/993N3defDBBztKDYwxtzDHrNUIS+swxk2bzGDRmLY1M8XGO5QBQVYUxMdyJt+IQfc9wb3jQrFsU6OqMyFg+Cj6+7tg7+GHn5sRJUknOZ3VRsSomdx63VCCHPRUVuvw7d2f/t1EnTG8P4H6VHbvPUONyQDufOFupkQ6oRPZs1pvT9iQgfT2NketbsUxoLtYjyBcbf79FzD19fV8+umn+Pr6cvfdd3eUdk6/ZRALQ0uznez5668ne/76I6iUk+9fq4xflqq0dZR0Wi2lSuyS+crHb6xWkqq0HYWdk+z56+ohe/76a8mevyTpnxhjGzyR+wd6XTZMYmdljlNQL3r17YnXpYxTkqT/OTIwS39z9kRe/wDXRTh2/N2JmTvTdcIIxkyNwFWOqSxJ/7Pk1S9JkiRJnYgMzNIfpI3qnFi2Hcjk8q4+rir6Ks58u4gNZ4poabv0mLcebUMpp6K/5ItTZeKvf6ZvqiT92AkScstp1Bm+XvoPDE+3no0h+tsdpNVc7Ff4yijoW2pJj93Cp+uSUP1v//RTkv42ZGCW/iCNpO/8mh1FLVfvSdZSSvzGNKqb9Cg/PvBrhIm5LT6hfennY/svfoqkp7XiPBv2nyOlrAn9lTwobGSGnVcXQnuF4Wr16/ZWW3MtuWnHOFWrw/y/fyhZkqROQAbmTk6vLiTmhy957IEnufee27jtyUXsS62gRdFQmRLNx3fOYurYsVz32nLiixrQtVUT++XjPPPxx7x9/2MsirlARsxyXrpjOmOnzOWp+dGkVl7e1aX4jMpTLLj7dd5+5UkmT57Ije9u5ujGd7h+3FRmPbqShNpWdM3VpB1YxvNzxXKm3sGzi/dyoboZfU0yK9/+gi8/fY/7b7mOG19eSWJ5DRmb3uKRT7az78vv2JWWT8L2xTw7YyyTZt3P+1uTqNGKYFeXzc4ly1jw9ns8ee+t3PjUIg5mVKHVNVOavJPP5k5l/LjxzP3sICXNbTRVpbH7y+d4ft483nzuHTaer+nIWEUWWxjL/CUb2ZlURrO+nNgFH7P+VAGNBQd55bYPWL78LW6cMoOHvzpGmaaN5posDn7xKnPFvptyx1Ms2ptCdfNlnSIIurJsjqjaKDj4GddOmcjsD/dS1NSKujCBfYvPoDNupfjMFt5+9Ob2ffv0gt2kpMexYsmXfLfsMxZvP0p66ik2vPcQ0yePZ+z1b7Mjuw59WzN5R77mzmff5+23nuXRz7ax68RxtuU0oqk6x7o3HuVmsV7THxXbGF9Aw//vb7K5kH2LnmLsxClc9+piDsSXEBbsCqpsYpbN48FpY5l6z8ssP5aDuu0KMnZJkjoVGZg7NR3NtcWcTU0g2z6C62+9gT7aEhJizlNWkMCaRafR9b+FZ+c9xfi6Paw7U0JrawXJu/cSU+jEiHvuYLBlJoe2ncZ+8mO8+sBozOrS2JdYetnt5VYR4I+w5lwm1X6jef6e4agWLWF7fT8eeHwqHmc2cii9gsrMUxzenYTbNY/xyj3D0FWmcii5lOriFHacOkOCEsKse2cSGLuPo6n1uIV1xb/tOl559za8CveybK+W4Y+/wdM39UafJgJRWjWNldkcjo8jtsGN8bOmE1WQzNlzuVRc2McnS5JwufFZ3nr7aQaVLOXzI4U01+UTv+846boQJsy5mWEBdh0Zq4aStFPk1VdhZmGBWWUaO3fXoBUv1mYc4ZvYFFQ+Y3nknpGwbh0nc8rJOhbDrlN2XPPiy9w7xIWq5GMkl13spfmiViqykkluFllv8ERefeEG7FYt53CuGnVxJiczFIxai4iNjyc/5CZeuH8UxiUJ7E5txt3bl2vm3M1T03xJWbCRc/r+PPDSqzw9uop3PzxAYWsTBYlHOHCyBr/Rt/CPIQ5Ul2aKBkMV57Yc53xzD+a8+jyzfKo5l5BEcf3lt7cbSN/0EfOS/Xnw2Se4zrmCE/FWBNs3c+7wPvbmezP92Vd5YIg1WecOEV+o/nmnEJIkdXoyMHdqOprqa7G2duGaayczcuggBnWzw0xXS6OJG30m9iLIw4Sm0guc2JFBqaoFpTKTxJM9uWvutQzqHUloYBjdBg8m0FJNYWYySefTKBNZ3085mIby3Hz8r5/O3GtG0tvTgtLwidwwYyh9Qn1xULzwc7XD2i2QiIH98bdQU5CRSFLqBcqb1ZTkZOM8sC/XTRnF0O7+WFQ4YmtlLrLhKrK792dAlB25u77lu+/f5eG77uC+J9/ky11nya6upao4H/PALkydOYnRPYOwb3DCxriNzENb2LxlAc8/fBdz5jzIO6sOEp9fKTLVMqqKBjL75sn0iwjCw9bsYmDW1VFwVoWHqWt7F43a8jySAoLw84T8hGS63fcPbh/Si8gunhgX22LrYItraBgDRwdg0VBM5ulUUhMqaP5Z/7zNYr8UEXbjtdw+fpjY7z6QZ4eNNdSpSsjrHoivvQ12Da3U7U5G5dKfex+5i7kjvKHMDn/vnnQzKWOv1pOek8YxcvBQxk8bQuDRZHLryyi4UMbwf9zCzAERdHEEs6YWQgL8CesXQVRPF6gR2xCTTo7IsFsv/566IY2tn1Vw3Z2zmTZ8CKMHDyJS54ODLo9jG79i8cJXeOCOu3jklc9YfUQca7U4JzpmlSTp6iADc2em11BbVEFDjjlB3s5Y6Fuoq9Sjb24kdcvXrDmRQLm6GSMXETytPenq40hbeS7x/ScwursTirqY2K3L+PBAMVpMsHBwokuoCx4udj/1UaurJPOolp6BQXg7GVOYEo/R2P70tDOhMT+D4yZBeJqXcXjL98w/XEqLkSlWjobluOLhZER9rpYQT3/RQLBHW5TBiYgQuviaUy3mZUx3vJuLKDrnxzs7TnLq+FGOnzzDqU3f8OQQZ+pLRXZp5U03fxeUinzO+nvg1EVLzoEW5ny4gWPHjnDkyHFOn01k7U1BNKhrye8/jIEhDj/r5UlfW0ZasRWWTr4427WQdeYsjmEe+Ng0UZRozLjB3XA0V9p7QUsYEIlz01m2LP2CwxUajMwscXT2JdTZBWfbyzoI1NdTIjZhQGQoXg7mNIns+cigvuJ9zZTmZRLYPxh3hy6MvuMRXn60CycXf8Kb7+0iv6KawibROHFzobkkhYZwb7F/HLEUV5qmOIezXbxwopbK5ECuGR6GramW+mIVzRlWWJceZeOmLSTWaDC2cRTL9ybM3Rlry59+06yvzOV0cxRDRPA2FQ03TUszWj8vrJuqMdaPYvHuE5w4dkxk0Umc+OpVZnRz+Rffg0uS1JldQWBWUHS5rL9zEK72g3hpf5lhaNxfprRSmx/Ld19s4HiqqMw7iqVfQ+x3bbMIzAUkZ9VQXl1G9rHdbFVpMevlBzlqHF2jGDN+AJ6Fiexp7Uq3YBuqCrJp6huMpym0aeopryrDps8IxvT1x6i4HKNKJyK9HTsOvIJOBPK4Sl98fd2xMi0n6WADU3sHYKJrIC83lbZrBxNiIpZTW4V935GM7u2FLr8C81onwk1riE+zwsLGGwfbVgrTEtD3CyDQro3SzHL6B7hjKRoM/oNbSc6tw8RYRdyqr/l43iGR3ZeRkqalEX/cnRTKclLRhDiJLDeI7iNMOV9UjZGdNc3nv+PBa77jQouWKjGPLsIP158NoaWnsTyfM87G1BgVcW7nUj79rAA/R0/sKs6zLTmcXiH2KG315GYkYD08HNf6amqzrek7ahR9PE3IL6yn1lXsM2ezjmWKfV8rGgrHHHG1scfUpE2sXwa6voG4aYvJPtlEV7c2sS0fMufxnTT2nMyds/sT7lFOfn4xuW6mKJ7O+AWEYZpRwIVSFeri4yz8ZB/D5g6nS00xWc3BBHpaoIhGVnmhOLZ6F8zr69E1ejF49DDCjGtIqBaNDR+xb61/CsxG1iLbL47nRFIVqoy9LFm6loqxPUWjzBWbYA05lSKoa7LY/MFXLF+VhEq5OAyIJElXjysIzDrUyQdZszubxubTfPTBFi4YHigR0VknAkd9tYq6hhbadK00NdRRU6emsbGAY0s+5NP1ezhb1dQ+YLqutYXG2hqqq6qoqmtEq9NftoxqVLW11KrqaGxpk7fe2im0NdaS11JHnnMNm56/kes/SKbvjFu5fdRQxt07AaN97zE1aiYfnKqni5091qYimKYX0T/SB1sjY6ycAxk+dChWy2+l/7T7+S67FVd/WyxMLlXWeupL8jnfKwBPP3ssawtISohicLgz+jYVpRlqxovM0MMtlFEDeqFfejMDZz7GmkIdrr620CQCdpgnLqHu2JqIbDYFxoX64WhhhqlIEfc8+Tw/FLgz8uabMfvuRroNuoWFNcHc8sIkuiiNVHqJde4uslwzkZ1mtdLPzRtve0/63/YIIzM/Ynh4GIMWtnLf2gfobVZHdXEVPYM9sPpZpDHC3D2QUZo4ol/5hJWbk8l1jiQ8zB3UFRSO7UO4k5k4/8opPW/NtN4iAIf2Z+BoU5ZOGsGMx1ZSgDM+1haY/DhUpCKy3QJS+ofhH+SAhWkt2UnVTB0SgnVDrTiHgwkLEJn+oIEMs49mdo9+3PzRGWz7TGVwsBNW6RtZsmITyRYDeGpoNR/dNpzgXu+imvAqr80QmX9hJqn9wvGyMUbfqkFlpEXTvQeDJo0kwPIcL46YwAOLjtFq5oibhenPhrA08hjO018EsWzG43yRaMWA8X2IChMNq4C+jBoSSvKbk4mY9jpxQQOZeWt/vOWj2pJ09enomvPf95Wtq1Bi3pqmuLsNV6ZO6alYWc5UvjqvVvStaiV39wfKBMtgZcQ9G5WUnOPKO3cPUxxH36K8/Pnbyj/GBCrmVvaK63VvK9uSU5QTWxcqDw/tpoQE+ime4x5Rlh7NUxqb1UrB/k+Ua+wdldABw5VxY2cpr0dnKZqOj/5f8/O+stuU+oKTytLPn1Oe353X+ft5lv6nyL6yrx6yr+y/1h/QV7YebWUSe3dewGr4zbzw9Bwibc+xaW8qDf+24wQLPPtOZPbQfnQfOZcPXpzDAPV+nntqI/U3fsmx87F82zOBR29/l51FF58NbjN2wXvcs3yzcxWvTQ6WQ4G109GqbcFGb08/X4eroJ9nSZIk6ffwy4FZaSJ73zbW5poTFWEjgrEHIwM1xC5Zz/GqK+2hqJWKgiwqNf707xuMg4Un3YdE0VYZz5msuvZ3mNla4R3WBbefBq+VMMc5eASzHnuR6yOvgn6eJUmSpN/FL0ZCpbmAuH1nabEzpT5uHQvmryXVyh3b8kPsiS9HZ2qCmZkevU6LVqsVGZ62Y87LGWNpY4elcSNV1er2ziNUFSpMLH3wd7Nuf4eJWI6lraUIRZL0N9ZWR86p45wvb5bPUUiS9G/9QmBuRZVygt3x1Xhf+yLL1m1m2/btbPruVcbY57Nv2ykqbf3o2t0WVfox9u6KI7e8vmNecxy8vHDQFhN3OIVG9/5MGGVDTvQaVq36hmUxtQy/7jqGBlwMzNKfSY+mOpfTKenkGHru6ihtp68lY08MqZV/Te/Whl7OjsVlUlyv4Uq6mP5JG/VFKZxNz6KiofX3D3piv1zYdYj06n/V8Pz3DNtzPCaVfFWz2B6F1tJjfPX5Co4X/7zntSsnllGZwrbDWaj/zQIUTS1ZFy6QmFNDi4z+knRV+oXA3EZTqxUR0+fw4LX98bAya3+zmc9A/vHEvUzxtMTUaxA3P30vE6MsUVeb0XX0TdwxbTSRnt6ET7yZ2ydFYlpRRb3zQB577QGm+TeSdvoCLf3v5sN5N9HT0RIbnygm3nojowId5M86/hStVKftZ/WOvcQXN/w8MCtNlCam/r+epv4sOhoz9/HJmiOkVTX9fL3+E6WBvCNb2brvFPl/xLorjZSeS6G44edddv5HzdWkpxRT1agV26Og05gSMOtRZvVy+eVbVf9WG6qzq3h2dSJN/zLo6mmpSmdXtGhAx5fInylK0lXKyPAEmOE/n332GU888QQffPABzzzzTPuL0p/L2NgYT09PSkpKOkoEfQvqilziY+M4l9mEZ2R/hg2LwNNURdrJoxw/X4jaOIDBk0cyKEhU+DXn2bQ8BbPgVrIKGvDp3o8gfS4nk+rwihrGmOGeFG9YwsoTZZh7B+LsGczwMcPo5e+EUVk8K+PMuWZqOEpGLHt3xlNmYYtfv0lMGRiIVZuKvHOxxJ5KpdohiH6Dh9E3xAMbs8vCTGsdhefjiD6YSL3iSq8p0xgZbos6J5ljJ8oxd64np1hH6ODRDIvwxvrH3yQ3kbXpHV7I7MGLcycQ0JTBwa3HyW5tw6nnRK4d1h13m0uPwIkg11JPcXo8x06mU29mSt3xTIz7TOCGOSNwacrl3P7DnC2pxzRsDDdO6I2HpZ7q3Hhidh4lBwcC+o1hbJ9AbFqryDx9gtMJeWi9ujNoWH9CzEvZf7YUM20p2dpgJvZo43CKPTOnuJK1ci+lLtYU5VVh130EU4dH4GLcSFl2IrFxieRoXIgaNJSh3dzQiH14RuvHgFAX6lJj2RZ7AW2bH0OuG8+AYAd0tQWcj4mjwtKa2uxijIIHM2p4JN42ph3bKbSqKUo5RfTx86jsPHFNXc2awNfZfU9XKi+cIXZfrNgeRwL7T2BiPx806btYuisBq8F38dBwXy79Mvv3FhYWRmZmJo2NjVhb/33ufNnb21Nff+nO399DbW0tTk5OREZGcv78+Y7Sq1thYSH+/v4MGjSIEydOdJR2To8//jjz589n/fr13HDDDR2lv+y3NdylP4mO5qosju7dxta4XFRVuRzfcpAYERiTDm4n+mgSZfWN1GYcYuGWBCpaNJTH/8CrH20mrqCSsuRDfPfRKo5cKKIw6Si7f9hBYm4xeSkqGmvMsTRtIvf4FjYcO09FowbV+e0sPJKFSmSuH323n7TKBhpqsond/gN7MyupyTnHsei9pJSrKDt/mJ0Hj3GhUnPZbdkWys9uY+XeZCqatbTUXmD3Z5tJLqvhwrFNfLR0Pyll5eTHH2XvpqPk1bd1zCfom6jIayTU3QWnliw2LtrZHli1LZWc3fwt0RmXVZY6jQhKJ9mzKZozeWUUnT/JgcQamiydsBABPXrzQc7kVNEsglrOwe/5Pr6U1pYS4lYt50henWjopHN05wYOnM8RgXEfW7bFU6iqJOvoHvYfOUtG0iG+/GoduxKLUGtbqE7awvwjuTSVxvHdmyvFMmpQV17g+I517M8opzztBHs27+JsQRWV2SfYuO8o54pLuLB/J8eSMkiPWcuqXXHk1zbTUi0aTp9uILm6idqsk6z74HsOni+ivDCRvft2cDi37rK7BVqq0w7w3dbDJBXXUJ1+mJVbq4nydaY5/zgrVh0lv15DY3UOcfs3cTC7WhyveqxaLNp7YrssvEuSdBWRgbkz0zVRlnqexLhmes28i+deeZx754wi0ttGJI2WuIX0YfT40fRzqyAupZDatgbykpKxn3Ujs6+fxW0TojC18qPflOu5bcoguig62uoqydHZ4jDkGuY+9CD3j3GmoLyMmqYGyvJKCIh0pvbQWk5ZDeWeV17iuUfuZKhbKXuSytC0qNtv5+q7TWTWrJuZMiAEZ6vLfsjVUsTRb5exYuN+MoqKROafxsnd+zlXUC7+X4zH5EnMnDaDmX0jsCmsp/ny+9XNFWRm2BPk5omdudg8W296TprEpJHdMY0/3f7A1EUiW26sIOlcMslKT2559Anuv24oLr29sPSxpDZ5D6tWG4JqFgUl5RTE7WBdfBF6pRV1dRlZLgO45qY7mDO5D05N2ZxLSkPpM4P7nnuex+67gWHdHFAX5GPtHcDIa+bwxM29saqqJDjKD6viDNIiJzNz1q08+sgchnlXczL1AgliXZJaI7nh3id59fF7uWVEBB4WjZRmWuFvpSFx3RmaAybw1DPP8/wL0/HNjyG5uIHq4gKy3Ecyeca1zLhuJF1tRKOhSffTVzraCs5uOU2tTV/ufuQZXrl1CC41QYR7m5C24xuWrInmhGiYlORnkXTqIEdFA6yyqEW0W/wIcLeSXw1J0lVKBubOTGSGqlI1bdoA+nbzxNbei54j+xBuX0lsjqjEm5uoqlFRW6fCUmRIdlSREaNl4syR4j1tlFYWYzlmFP3djKmsakZl64utXmR1Ttb49wzG08YcExNjzE2NMVaqyYyFAX6tJO+oZPiYAQQ4XLwRaqS0YWFuhUtwP8ZPG4Nf9XHW7D1HgdYRZxFFLwUAXXka0ekhXHvLtYwZPIhBo67j4Q/upo99PfWlZoyZ0J8u5lpKW7So/QNwt7usD2hVKcl6F+xcIPfoAfLsjNFXl1CubqS53BJPJ6uOdyq0NFRR1NCIWfd+RHjaYm5ujmOQBx4ubRQeLcS/72imTRrNkIHDufbBN3hxXBBmFt4MnnsvExzy2b9lPdsLbHE1Exms3pTQPqG42zrg23MwA3t50ZJrRK9e/ekX7I6lUQ0ZR2FwsAOlGcm0jBpCXy8bsc3GmBjpMdLUU9LcCqE9CBPHwN6nO2MH9m7vUjNR74qtIo5VsS89e4fhZm2KsYloWKjFZadvpkJVDmNHMyjAGk15I9S6ESK259L+1KtLSM62pXtENwLcbDC3tMTaNYRA9xoStpUx8s65TBsxmGFjrmXOXQ9xfYg5pWoN1Q4+uF5+O1ySpKuKDMydmZGRCJx6EZjrUatryYndwupNOzh6MpaTpY04iGAQ4QmVuaYMDPPDvjqDo9lh4v/2aJtEJpWqpk+UDybqSgq1deh7+GBakUtZbgk6fRsNhefYH6MjzN0PF00hp7JcCfLxxMlHobS0hmatmvz4GGLPuDDQs4ZDO7dyWhvKtZMH4CWyyLwzudS2/nQj28jKFneRyfv3n8zs2VOJNC7gpOKMQ30ByQXB9OhiQ1OtWK+2Gsx7dsHV/NLp14aqJJtid2vsHZrJ2B5HnU0QffuHY19RQKZtL7oH2Ha8VxAf2dLU3N4oqS5NJ2bbabQ1FgS6ueDgbIqpnwiOM65n+kAXSk4b0cXXkvStH/LxOVeumzmOPh5mFO88R6kWWttaqFerUeUc57tVW9gdl052qQPeLu7YWZmgVGYRm+VBmI+evMQLaBqa0WjqyI2P5cx5T4Z1dcOkrZWWejVqVQ4x369ji1h2ZlYGua52OPp54mtcS5WqCZ2uhuSNq4n2GkqEQxUFCdXi+IhMXAT3omI1ZWbB+Lv9OLyICNAKSn2taFQ10FJzgZ0rN3C+byCBDvY4+JhiFTqS62+6hr5ie2oyTHGybKZEq6Ktiyv2P+tPXJKkq4kMzJ2ZiS3e3UPwtDzJ2zfcxgtfnqbZxo+wXgMYbJbJunee4Oll+8mt14ns0wJ1xln29ehHpIsRmpICss740zfYlobqUhEQmwgPd0Zb1IptSQmHFz3Ljf9YxHmPAUwaEoZtbQEJbt64u/gx4PZrMd34KJOm3sQT2+voMftmJoSIQKWr4vjS57j9vkXE1TnRvV8QTpf1xWzs3JNb7/Xm9Mt3MmX8XBalOjEqwoXGygIuBHcnyFFHfUU52kroHmjIRjtmpIWqojI8vR3xcvSj97S+NPzwLvfd8RbbL9SK9okT9j8O5GCEhZMvfUM9aDu5nA83x1FWZxiP2AV3ezcipk7Ev2QrT86ezjVv7oe+YfhaWWDr5EbLoXnccusTLNzWQI+pg+ge2pVQdx3737qDm178hnSNNR56FSkWVpi62WEpkk6NaDCcFQ0XL4syko/YElm7ibnTZ/Pi/hYGzZ3N+MgQ+oSJdTn8Ptff+DzLU9TY+9vRUlaMjZMlrn69uH62G2ffuIdpE27nszRv7n5sKl1aqyhJ8xLHx1EEddFw0tSg6x6Eh2EYqg5G9sGMudaRsyu/5auNydTpW3Dt44+bmWgQ3DWTth8eZvL0W3l+VymeAwKwalKhaLUEB7j9v/7EJUm6msinsjuRf34q2zDIRxOqshLKKhpFRe2Kl487DhY66spLKKmso83aEUeRcZq6+eJKNWl1tnTv4gCNKkrztTiFu2MhMm6VqgETBxcsGuqoVTfS1KqhscUUZ29vvFxsMW2pIrPcCF8/Zyx19ZTkFVDRpMfc0Qt/LxfszUWQqq+mtLwCVYMRts7ueHu7YCui10+hRE9rg8gEs4tFJm2MnZc//h526NUVFDXbEuRlg66hltpaDRZunjj+OJyhjuaaMmr0Njg72GGqraFQLEOlFVmgmF9Xb45XV09sTTqijaJDo66htLKWNkuRPep1YCaybVcHLGimuqSI4mo1rZaudPHzwsXGDH1zLeWlxZSqWjG3dMariyfO1kY0qcopLa2iUTSC3D29cbXQUlqtxc7ZCScxn9JYQUa5Mb4c4O7pF7hn+2241aoxdvIiwMcVOzPRrGispbSklKpGIxzEdvl42GMktrmy1QpXJztMRNAtzi1F1Sr2m6cPfu5OmOvUVBQ0YRfkibXSRLWqjhZzZ3ycrH62P7UiaBcUqjF1dMTOpJ5aE3cCXGxAW0dxXr44RgqWzt508RbHra2B2vpGjO09cLH+Y29ly6eyrx7yqey/1m95Kvs/D2Ih/Wl+PoiF1Hm0KhW7nlfc5qxTivQdRf/j5CAWVw85iMVf6w8YxEKSJDDBefSLnF84DU95i1iSpD+YDMyS9B8ZYWJhh7u9pRzlS5KkP5wMzH8ziqKjVdOMpvVXdWopSZIkdRIyMP/N6FsKiPnqM1advTikpiRJknR1kYG5sxMZsLahhoKsNM6dS+ZCTim1Ta3oFT3aplpKM1NJSkgmo6CKptZGys/uZc2np6kXWXNTm4a6sjzSz50jMSWDwqpGWvU6WuorKC7OIzcjg5xiw3w6w0+DobWeopwSqlRqWn4c3klBL5ZTX11CQUUtjRrx2R2vSJIkSb8/GZg7NYW2pgqSY37grdde4uGHn+S5F75k1+l86htLObdnI1+89izPPPo4z77+FUdyUtn95jv8YFRCzIYTpOWeZvWCD3jxgYd45Jnn+WDNATJVteQe/pb33n2Fea+/xxebT1BY1zGcYUM66xf9wI69Bzl29AwZxZWoGltpa6zk/LENfL1+DwdjTpOQlk9lfSPaXzc2oyRJknQFZGDu1PS01JaJANmA7zVP8+2XzzHMtoXMsznkJe5n7Y5C/O/4hPU7l/JANx1lda70v3E03R+cz/fvDKTu4AaiTcby1o5drHv7VrxrT7M/OY+yHBXqhgDGPzGP1x+4hnDXjn6VnfrxwNOT6eqrJ3H5MlatXs4362IpN/agz+ibmNPLloqUo6xcvIzvV0UTl6WSY/5KkiT9zmRg7sQUnZbGuhasjV0IMCkn+WQcpwqrqTERQTg1DeN+PRgU5YedXSATn3mFf/S3IPdsKf26emLUUExuQhWDxg2lq6sNVraOWNlZ0lhdRmapA2FRoxka4YX1pU472hlhauuKj184A6YMx1uTyYmjCRSo9Zha2OLsF0Kvgb3o7tFC9omzpOXLwCxJkvR7k4G5E1M0Ki7EHmH7vjKsPT1xsbfAOsAT3wBnrIyNMNOL9xi1UZ8bx+YjF6hRl5GT5MqAMJf2oN5SZyyCOrQ215BzPgNVpTmhDgrlrnZYRfjhbHjxck0FxGzZz7FTcZyNz8Nu2P2889ZdDHRuIjf5MDsOnuDU6RwavUdy9xuPcvOIQOzlGSRJkvS7ktVqZ2Ziho2rI2amFZyIOc7xMxlUWhlh5+5Kl/BQzItPsmLxh3zy/VaOZVShMXQ7WVxI7N5U1Hb+dBvpyvkNn/Pup1+wJl6NR/hgwq3UtJi04SyC8099VXfQt9CoOBMcNozZbz7H7NG9Cfe2BZ0evWKKXXB/rpl9Gw/cOZk+gV7YX9avsyRJkvT7kDVrJ2Zs4UT4kFHceG13XCxt8e05ntumT6C/nxtevSYxc1QffO1scOo2jvuu7Y2HQwjjn7qGcBsTzKw96TlhNtN6uGFu5Ubk6IlMF+/x8+3KhCGDGNTF4Z87y7ANY/rtExnQMwRXi0unhhGmNq6E95/E9cMj8Xe3kwPwS5Ik/ZE6uuaUfWV3ArKvbOlqIfvKvnrIvrL/Wr+lr+x/Gl2qT58+7aOQSH++FStWYGVldeUjkEjSX2TLli2o1WpuueUWTE3/PvdQ1qxZ075NfydarZa1a9fi4ODA9OnTO0qvboZRzTZt2oSrqyuTJ0/uKO2cTp8+TXp6+n83upSc5CQnOclJTnL6fafflDEbxrfMysoy/FeSJEmSpN+R4U60u7t7x1+/7MfALEmSJEnSX08+lS1JkiRJnYgMzJIkSZLUicjALEmSJEmdiAzMkiRJktSJyMAsSZIkSZ2IDMySJEmS1InIwCxJkiRJnYgMzJIkSZLUicjALEmSJEmdiAzMkiRJktSJyMAsSZIkSZ2IDMySJEmS1In8OIjFwYMH2bhxY3uhJEmSJEm/n7vvvpvevXt3/PUfGAKzgRyPWU5ykpOc5CSnP2b6TeMxf/bZZzzxxBPMnj2badOmGYokSZIkSfovLF++nN27dyMCMzfccENH6S/7p8A8b948HnvssfYXJUmSJEn67Z577jmWLFnyqwLz7/Dwl0JbkxpVRRk1Wn1H2R+hmbK8UtSaVv7IT5EkSZKkv9KVB+bGBJbMHMKAKQs52/hTaNQ3lHJy3XLefPsopZr25Pvn6hL5Zu4LfLE9nZqUDdw28n6+OVfb8eKVaiF/7wLuW3aA1FpN+w17SZIkSfo7usLArKXg4A98orHFoWAnh1PqOsoFRYdGXU91dTO6fxUx7SK4Zf4LzBkfgi0NlOSXUdfya3NehdZGFeX1TWj1MixLkiRJf19XFJgVXTGnd5ylz3WP8/hMHRsOpFKvKChNFZzZ/DmPv/kJO6Lf44Wn3mLR2y/x6IypzBg6hCjvKbz02Ze8NeNpFm9No15rCKp6WlUXiP74QfqHjeCe+TtIq2iiNu8Ynz51L7fPO0ixTrxNV8qRj+5l1mOv8dXi13n0/XWkr3iJG6d9yqEiFTUXDvDhfSPx9ulC1+43MG/1CfIb2tA3V5NxcBn3Xz9cvOZN6ITbmLfhNKV1Wi5+my5JkiRJndcVBGY92pwz7DgWwuR+/RkwdhS6r5azO1sD1u70nfkon736JNdMeZ53P7qfAe4t5Ga3EnD7+2w59S1P3hSJvZke3Y+Z7jnmL43Fdc6H7N36JM7HPuXFpcepbBXvaWuj7bK0W9GJv9vM8B//OPOfu4muc95m/fbHGaYc45WbnyOh67sk5mVwdNXN1G19nWeXHCI94zgr1h+mdfQ7nMlIZMMDUaTu3cXOlFKaOpYrSZIkSZ3Vfw7M+hriN28irm8fegfb4xA1jMneSUTH5dP6bzJQm+5h9OgdhJ+fBy42Nph3lF8Uxf2P3CoCuDUOgSO45dohNO6KIam8teP1/6SVwhN72GQ8nYfvHoibmTnOoaO4adIAGvccIbG0GXNjI2xopFalx2/Mw3y36CXuHNwFG6OORUiSJElSJ/UfArOCvjaDmH35+Hkbo76QwvkcLU7dTDkZHUtGY1vH+37OzMoCSwtzTDr+/rmudO9iL/41wsjEHAcXd7z0ahqv+HtnHU3qOgjywd3asPpGmJhb4ubtT5iuBQu37gzu7knJ9/N4/MnX+eSrtew4kkxhvQadvJctSZIkdXK/HJgVDWXxx4jRWqI9u453XnuZl1/9hF25RtinbGNLfKUIk79WA+omQ3asoCh6WrVaWowsMDf9f+msXo9Opzf88/+IQGxqCk0aWtpve4vl6HW0aJppNDLDyiWYcfe/wddblvPe3aNwKN7LW69+xvf701G1f8ctSZIkSZ3XLwZmpbmAQxvPYDPhcb7ZsJWd0dFE79zB5jWfMKdvMzGHU6lpMwQ7QwBtE4H0SgJfAjGnc2loE0G5vpS09GzqA7oT7G6DlbmpKKulXgTd5ppyCsprqb38Dre2jTa9CU7+IfgWJXA6tYoWEbk1qmKSk1Mp9vbFvq2E82eSKda5EjHuBh5+5E6mdLFBXVpLc6v8BbQkSZLUuf1CYNbTlJ/EoaIujBsUgZuVmchVBSMjzB1CGTKmN/qThzhZ2oadizUmzec5euwcBbUt7XP/exqKkmLYunINa1Zv4kiJBSP+MYLufv5ERYViW3KMH75dzZYdxzhf2UizmciOxWpauXjiW5NKzLazNARM4KFROo7/sJLla37gh9VbOFlpw8hbhuHTksnhDd+waOm3fL96NSuiT1PrFkrfnl1wtPrXN9clSZIkqbMweV0w/OfkyZPs2bOHMWPGMGjQIFEiAnNNKcUu4YwZGo6XrQXGFyMzRsYm2DrYYdPagGVwT3oFOWLaWklFsykeImv19guia0Q43vYWGCmtNDWZ4NkzgkB3M5ragpgw1pOy2NPkaT0YdsMcrhvUBTtLa1w9XXE0rib7Qgk65xD6DehOaNdu9AgOxM/LHaeGInJzjfEbPJxxY3thp07l1Lkc6nXejLjxVmYMCcXN2QMfT3s05ZmkXSig2tibQVPGM66PCMwWphcbF5IkSZL0J9i/fz/x8fHcdNNNREREdJT+MtlXtiRJkiT9QX5LX9n/FJiHDx9Ov3792l+UJEmSJOm3O3z4MOfOnftVgVmOxywnOclJTnKS0x88icDcEW3/s3/KmGfNmsXUqVMNRdKfbM6cOTg6OrJgwYKOEkmSpN/mkUceoba2lhUrVnSUSH+FlStXtj+/9V/dyv7ggw945pln2l+U/lzGxsZ4enpSUlLSUfI3orRQnXOS9d/toiLyRh64vjduZv+hfxtJkn4zb29vysrK0P9zZxDSn+jxxx9n/vz5f/Z4zNIfRt9I4akfeGPGKEaN6pgm38Ory4+SV9vSfn/kj2Boq9WfW8Hcax/i6/jqjtJfo5nMTc8zYdJ8TtRc7B1O0TZQknyehDQrIiL9sTORz8dL0p9HT0ttLtGf3fNTXXJpmvY0C7cdZd8XL3PXc4vYl13NlXaQLP0xZGDu1HQ01xSSVtiA49gHeOuTeTwxzYvE775k/pqTFKn/uMvHOmQ8z817lKlhhu5Tfy1zfIbfwwfvX0eEXcdvx83sCR5xIy9++BBTurliefG3d5Ik/SmMMLP1ZOD1T/Hxm08zI8qG7CqImP0cH719PzOG9KDvtDt55t5r6ett/2+6U5b+LL8cmGvPsOi6ifQJnsuXJ0rau8BsPPMlY6L6ctvaDP51T9lXSkdTdRLLHprJNY9sJ+/X9+35v8PCDpeArvTsPZRJ08YxyLmEgwdiOF+ibh9Cc8sHd9AvqivBwbfyfnQGjbpWajP28s49Y0RZd4ZOepxlh3NQ63U0Vqaxe+GTTB/aneBeN/Lsd8dEgC/lxPy7GTLmOm68bihdh73HwRPreOKul1l9tpC8A4uZ07sP/adOYnyvSIbOeIKlhzKo1bZSX3yGtfPuYFTfbgT3u4P3olOob2kiL/pdbr1tGWfr2tA2lXBq7fs8MH4wo2+axd2fbie1upnG7EO8fv8sxl4/m1tHjaRf8HD+8d5Osmo0on0vSdLvxwhjUytc/LrSu2ckwd7OWNg44hXand5RIfg6NXF+1Qc8/c73HE08yPwZ4+l9zQxuGNqN8JCBzP1oL/lNevTaBgpOruWluSNF3TKASbM/YVdqJf+pWynp1/nlwKzXUFssKuacNbyz5hgVmjaUlloKcvMoVWs73vTbKfoW6sqLKSpvkLdOroSRMeaeXegV5ohxUw1Vjbns/fhFnt/vwuNLN7HxDQ++u+N9tqZlsWfhByw/NZj3Vi7hjsgKvv/oWw6n53Bu7RIWbylj0JOf8uk/3Dn+xUo2nsqjsqqU/LN1BN26kEObHyLKtJ7CvGJqmltpbaqlNK0SY/tJPPHp20ywS+PrL1YRk5LEoc/fZUmcPXM//oL3JqlZ9uIy9ubV0VRXRm5uFY2aBhHYv2Xe6wexfeBrfnj/FhwPf8mrH+0krUZNVXkGZ0osGfzEU9w32Z7jy7dxJLMazY/DhEqS9Mcz3J0rp6ismgZNIypDvX/anOFv/sAPr/bnyDtP84Zo9FdlbOeDh98gKeAh1vzwDpMcT/HBq4vZm177h3219r/oym5lG+sp+XIFm5JVl43QpKC0NVGZuov3756Mj707oUNExrY5QQTwGhJWPse4geOYcM0oQoLc8J7+GPPfeZDeXq7YBdzOwtOlF7MiXRMl51fy6DWRorw3k19ZQ0J5Balb3mbmsP5E9e9JYM+7+HRPChlnf+DZ4cF4ONpjO/YpNqap+F+rv41EcDYxNmrvwUypzSf+YDoVhxZy39hBjHjgSwoa4zmV2YKrrzX5GZ9w96x7WccInnv+VgY6NpCcUY3aLYK+PQZwzSPzOXRkIQ+PCcLWcCa4dKVPVABurrbtQ2f+jLMLboMHMmhAT/oHedKSns6ZM+c4lNGMdUhveof34/rX13A+7n1mhjr+eCtMp1WRcuwwqWZ9mSIy5u7hPQkLMiYl6SQphQ3iHY6ERfaiV69eRAQ5Ya6qpaZO+y8GL5Ek6U/VX1zvIpuOGjeewY1Z7DyYTFZGCsdruzB4zAj6d+9GnzB3mlLiOJhSTGPHbNJ/78oC85Snef8piN5zlpq2SzWmDnXJGb59+x3WNk5mbeJxvrrFjj0fvc7i6DTUbW20VbfhN+4FVnxwH85Jq/ggOYoVcWt5xGQjL38VR4UhqOr0WJoFM3veBva/OZ6mzUv4bH0ClYb5VRZETJ3HnpglPNI1j0/v/IjYHi+yI34/i7sc4vanNpF5RQNn/F0o6OoqRCbagImFI87WhlG5jHG98UOOZpVQWV5Cbs4R3hONnIF3fs7RLd/w7h3DaPj6ee5+8k2x78sxNtbR1NyIukWLrq2FRnUDTS1tF1u71o442JhhbPQvvv8VDTJFp0PfPuKXOAeMRQPBxBhT41ZqG9Q0t+rE8jSo6xvR/HiOGBi1P20uZqZVlOv14n06M2wsHbCzMvSDfvF1w2caGaaLM0mS9FcT17tOZD56naiLRagwFXWNiYmJaHTraWszvCauZ1EfWNlY4WJnhVnHbNJ/78oCM+4MvuE2vLdvZUdyVcf3fzqaVfnkiKzVbWB/ugd6498tEm9NI1lnCqjUiKreLZSIrgF4uTtjYurHgKFR+Do542ol6umzRVQZFmRqhYNfBFERXfAOiyTC3ghVahHVTWJ+Oy/8u3jjaGNMXWEmp5vLSNr4OjdPms28o2oCi0oorf0f+HJa20R9WQHZmSnEHjjA/kpXBo4eQY9uUQyeEIXN+Vh2Ho9lx3t30XPAC+zIymHvxw9z10cpOIyZwxPP30CAcQsNJvZ0i/DHvyWflMTT7Fv1Hjdf8xifbk/7z0Ni1tZQGXeKo8fjiM2uwr5HD/r368OY7h7YVWSQcD6ePV8+z5iRT7IivoJLizMxcyC0bz88TJLZE72fk+fiyShS6BYVRaCr5cU3SZLU+SSc4dS5ZE7s3MsZ5+7MHNeDoNAejPKqJP7Qfg6fPMupjBosu/Wjb6AL5h2zSf+9KwzM4o1+I3jo9jrWf7sPdUeZkYk5FpYmtDaIrEujpaW5Ca21Jfaedlj9//GV/x1DJtWipr5Bg1bM32xqhpW7PVaGo2xmhaWVBWYmRpiYW2Jj5MfE51Zy4txZju/azIrNDzLYxZB1/V0ZY2HvQaBjGzk/vM5ds+by+MpMut31MM/dPgR/Bz9GPPw6b9/tyqFPX+Gdnc688PVTTA0LYvy9L/Lw0GI+eeIJPjlaz4hHnuKeUf0ZfPMDPDIrjIxVb/PK8iIG3XMncyZE4BcQKgK9N/Ydvy02sfUkIiocb7uO/WttRL0miU1ff8c5kwE8+OAcRnWPYuwj4nNGGRP94Uu8ttWYue88zPV9PHDwCKZXLz8crO0InfowC1+bhNGmN3l2/n704+/l5UcmEO7qhF9QKOH+btiYiSzaPYBuPQJxtzO/8hNTkqRfx9hcXJ8BRIYH4Wl7Kc81w947iG7BPji138kSAozIXPcWzyzLY9Kr83njmlBcQifzuKhrBtZs4LlnFxKvH87TL9/N2FAHebfr92ToYMTgUpecH3zwQUeJUH1MeWtAN8Xpmo+VkxUNSmtRtHJXgINiYuusjPk6QakrT1JWvTxHmXDTC8rnK1Yonz/3D2XmrCeUb44lKrHfPaWMHHS38tGudCU35mMlKriXMmPBcUWlPqt8HGmt2PeZr5wsjVM+mR6quHW9Tnlx6QplwUu3K8NHzFJe2XBCid3whnLNsDnKK2uSlBqdougqTiof3zJO6T/lCeXrNQuUhyYMUPo9uVMpEq/9XRgZGSleXl4df3US2lolY9vbyljvXso1C04qqo5iSZI6N0NdYqhTfjVR77/ZL1xxnPaJElfZqPyNqti/xGOPPdYeW9f/ii45fzkxMXMmbMQYJg8MxsncBGOfoTz46l1MmzqZIf6O2LiEM+3+J7h3qDEn1m/jbEsEtz7+KDcMCMLDP5Khw3sS7G6LlUswo8aNYkCgE6YmDgSPnsqUkUE4WTgSNGgik8b0wDg3hn0Fdoy690HuHNcNH+8wBg7rQ1cfu/bvLozd+nL3e6/zQEQNe9fuo7DPvSx8ahQ+MrX6YxmZYuMRypAJoxhoOH4dxZIk/U39WO8H4SjqfenPJ7vk7ET+1l1ySpL0p5JdcnYOsktOSZIkSbrK/VPGPGnSpPYxmaU/30svvYSdnR3PP/98R4kkSdJv895776FWq3n77bc7SqS/ws6dO4mNjZXjMctJTnKSk5zk1JmmX/Pw1z9lzDNnzmTcuHGGIulP9tBDD2Fvb8+7777bUSJJkvTbvPDCC9TX17No0aKOEumvsGHDBg4dOiTHY75ayYe/JEn6vciHvzoH+fCXJEmSJF3lZGCWJEmSpE5EBmZJkiRJ6kRkYJYkSZKkTkQGZkmSJEnqRGRgliRJkqRORAZmSZIkSepEZGCWJEmSpE5EBmZJkiRJ6kRkYJYkSZKkTkQGZkmSJEnqRP6pr+ybb76ZKVOmtL8o/bnmzp2Lg4MDn3/+eUeJJEnSb/Poo49SV1fH8uXLO0qkv8KqVavYu3evHPZRTnKSk5zkJKfONP1Xwz6OGTOGQYMGGYqkP9k777yDjY0Njz32WEeJJEnSb2MY0aixsZEXX3yxo0T6K+zbt4/Tp0/LYR+vVnLYR0mSfi9y2MfOQQ77KEmSJElXORmYJUmSJKkTkYFZkiRJkjoRGZglSZIkqRORgVmSJEmSOhEZmCVJkiSpE5GBWZIkSZI6ERmYJUmSJKkTkYFZkiRJkjoRGZglSZIkqRORgVmSJEmSOhEZmCVJkiSpE/mnQSxuv/12ZsyY0f6i9Oe67rrrcHJy4ptvvukokSRJ+m3uuusuVCoVmzZt6iiR/grLli1jx44dcjxmOclJTnKSk5w60/Rfjcc8ZMgQ+vTpYyiS/mQLFy7E2tqaO++8s6NEkiTptzFkak1NTTz88MMdJdJf4ejRoyQmJsrxmK9WcjxmSZJ+L3I85s5BjscsSZIkSVc5GZglSZIkqRORgVmSJEmSOhEZmCVJkiSpE5GBWZIkSZI6ERmYJUmSJKkTkYFZkiRJkjoRGZglSZIkqRORgVmSJEmSOhEZmCVJkiSpE5GBWZIkSZI6ERmYJUmSJKkT+adBLO655x5uvvnm9helP9e4ceNwdnZm3bp1HSWSJEm/zU033URNTQ379+/vKJH+CosWLWLz5s3/3ehSkZGRhIaGtr8oSZIkSdJvl5ycTHZ2thz2UZIkSZI6AznsoyRJktQ5KPXkHNrAqj3xZCUfZNW5MuTI0Ffmzw3MjTns+WQPaarWjgJBaaW+OI0TG/aToWrrKLycnmZVHmcSsqhSa67gwCro1CWcjo3lQGIpze33A66Ugr5ZxYWzR9l6PJ+GK5hXX36Gr9YmUPOrPucKKDpa6kvJTk0mq7Klo7CDvpbMvfs4cTabwpRDLD+cSkVTq1j7/0SPtqGc9NQM8krr0XWU/lF0LUWc+GY9CRXajpIro69MYsV3J8hrENv0a/ar2C8Xog9zNqWExtbf44BoKD61mY1nC9C06f/F/tWjqcnjXNxhThc1XMH+/1cU2jS15GelkZpTzb+6Aq6Y0kxFyhlO7D5FgfrKl6S0NVOecYr1+7Oo/z122xVR0BafYumGs5S26H7dcf7L6WgsTmDHsXhSyhtksPk3lLoMtqzZxYF9G/j0zaXszKz7jdfI/54/NTDryuNZ8sMZKlp/fiobGRljYmqCsVFHwc+0UHZuF1tOpFDeeCWVjagsq7M4FneU4wX1v/JEEJWFCOrn4vaxK7P2CuZtozpxE5/uzxZr+TvTa6jKOMvBNUdEgPr/IdQIYxMTTExaKI3bwsa4LNSGyq3j1X+vFVVOHAeOHiWlsvlPuEiMMDEz+zfH9ReI88HMzEScFx1/XyG9OpeDaw9zJqualt+jpterSNmyidjsWkRc/meKFlV+Isej95FW9esaHz8RlXxlBicO7uR4/m8N7pcYYWTyS9fSvyIashoVaSe3sSq+5L9rGPwqbahSovnyRC4a3dUW2rRUpR9hT+xp8mpb/oTr6Cpl7ESPmffx+Kwx9Bp6PY8P9cOk4yXpl5m8Lhj+c/LkSfbs2cP48eMZOnRo+4v/ll4nAlgRCcdPEXdEhXOUNzbtFYFo/TdWU5R6nC1JZWDljLuduaguDFqpOrOJBXXh3D89EkdTQ5tAZKgtavLTE4ht9KVPiELm/nUsW/glG87ko7VxwbI8lmVLvmRjTCWe3fsQbFXK4VWL+eybH9h1QoVdaCB+dsY0laezZ81SPlm9i5OpF6jRGBHefyjhSjZ7vl3K0m9XsTurGRdfX9zsLDC5VOsrelrV+Rxd/zXvfrORI+m51JRX4TFwAoPsq4nftopvv/qGzYmVmLl44+1sg+mPtV4jF3Z+yxGXCdwzwIHCY5tY8s5C1sTEka94EtLFGZNGEeh3reabJV+z6Vwxir0nXs62mJtcWoaelsoUopd9ziffbuDAmXrsg32wq01k/bx3+eZQCTg4UFedzL59hzh8JoMKVTWpKhNcu1hRvmMfBXV1JO7bwdZUDUHdQnCzUGgoSWT3V8fRdg3FoTmf2LgYjmYUcH7Ht3yz+TzGHiH4W5RxaNnXLF3xA/vywS/AF2crY9T5x1j59jt8vf0Q55udCPL3xM78UhtOR33+abbt20b09mh2rY3hQpsDfj4umJYe57N1J8hP2MaXx1oJtctlS74nQ7ppiF+xgiOZFzi4Yi1Hi83wCvTGyVRkahdOsm7ZN3yz4igFbbZ4+dpQfXY/6U7h9DNJ5v2Pd5OZGc23q45SYe4n9qk9+voizojj8tXnS9l8NotGKw983OwxLjvLqth6/AdH4kMWexfP54s1Gzlc7kBUhB/WShNFCbv4/uNP+f5APEWKK128XLExu7Rt4lyoLyBux0q+WLqBkxkXOLuplq43TqGPRwvpB9by0Ydfs/NIJlr3IILcoTwxgeR4LV0nDifIwfTiYlrryIvfzZIvl7JS7J98jR0+AW7YmhmhKU8V5+kiPv52KyfKTHB3aCV52yJx7I9SK7Yv2FNH8qbv+fqr79mRpsLa3QdPRyiOWc26+BQS1qzjmHEw/QMcO66rSwx3ispJSs8hz9SHYMtcog8dFdd1DDvX7+ZstQW+vm7YGdeSdXwbn320hA07c1D8u+BlU0vyoV2UB45gYFsOsXsyMQ7yw6IigeizF1ApOkqjT5GrMcfR3R4zcW5+P/80Rl3d0efH8sMH77N0x2HSNB50DXbDpE6cbzE72HzsHPHR29h7Xo2DtzduVs3kn9rJoi++YdXJNPLPxlLbbSq39XWl8sw2lsybz6oDR8nQehAe6IbVj9eI2DpNDZknd7B06Tes2JZMraUzfh4OGBXF8OH6Qvy6emNnVEbs1z9Q4NUdf/uOY6FoqEg/SUx0NMdPHWPbuoNktTni4+uMeUM+xzYtY/E3K9lwoAiroGC6OFrQkn+EJa9uIj7nEN+t30NWnWiAn9vK4q/3kt1kJ64TS0oOHCDlfBZp506y+0wJ1l6+eInjlLdHHPOEHFJW/UC8bTiBLalsXf0FC5bvJqnYGK9gX1ws/114aiL3wAo2FNnSVSzMqPwkXy3IwqOPPQVH1/LNkXSyD25mfUwR5l5+eNvrKD9/mOVLl/LNqv1k1og6wdcDB6ufGsOK2P7MPaJu2Z9E2prv2XRShVVwIL62emoLRNa/6ju++mYr58oUnH28cLGFuqwTbJi/mG92ZKIY5bL6WDM9e7iiTt7Bgj2NdItyRVt4nrg9p6h39cZMnCdbVyznq2XbSaw0xtXHEyerBlJ27CZPaaYo5jDnCozwH9iLEEdTWlQ5HFr7NR8sWctxse8Q9aqXmy3i8vhb2r17N6dOnWp/Sj4iIqKj9Jf9yoy5meLkk0R//wEPvLKexKpGLHycsRLZXW1pOjEbvubD+Yv44UQpFubW2FmbXVZ5aCjOyMY1xAOnyy64NsMFl3KE4xX11GWcIe5YKkbBPQnU53L82HGy61rQqsIYNXQY3f3aSF61jP01rgwYOoQQ5STzN52nuqGEuN0/sD7TlK4h7rTk5JBfYI5HWz5btx/gWLU1YQN64lZymI1Hkqgw3CLt+Hy9Xk3qrqUsimslPDIEG7EdZ5NNCLBWc+bwYWIyFLr0H0iQ/gKHTpwiq1rzUwtZX0thSitDIrxoEJnzvLWpmEf2p0+gJYUx64hOK6UsVTReTudgEdYT/5Z0Dh87SWb1ZdmqvpK4ZV+yX+3DsGED8NWeZPH2CzQZi33n4Yjl2PEM8mnkzN5d7E6sF8G4Cy7NmRzLyqWiJI+EBD3WzqKiHhqJfdIavjlZLNpNLZSlHOb7syowbxUX4HkSD5yiTmeMkcabiMCh9HOvYvN2ccG0uNBjUBSOmdtYcTRDZN6lnPpqGSlOfRjUy4u6oyvYmFz90+06EdzKU09yfN8ZVFb+hPpqOHLwFGcKqqjMPMr3K0RQxZ/BkW7UJ0ezvUiNNv8M25fsIaXaEndfM/KT97A3o4Ka7BOsi44h08iHnuGmJG2O4XRaJkm7j5BbVS+C3g4WH7yAkXcPeno2cWrpNs6X1ZBz8gg791fi3r8/IablJJ+K5UJlIw2VpdQFOOGou8D6VbFUOnVl0LC+OJz/liUnStCoczixdjulnr3p6WtMztGtHMyq+2nbWqs5v2uTqGircAkPxjL3NAfqHHF1NaLo4DK+jmsjYvgQMW8L8Us2k1TWQF2NBrVZID6u5h0LaRMV21FWHkxD496NIaJSzVizn7N5dbQ257H38885qPKmX79gjDJ2sOy4aKwpznjYDmZ0dxPiD+9nd54Rgf164VMXz64jp8mvqSBj/wa+3y32RUgUkd62/y8oG+jR1BaRmHaGpNoGqi/Esmf3AdLVdgS6tXBk60lROZaTe3Q17+3IE43pgfTxKmLd+7u5oFKhLjIhysuEjERxfWfUo4hGU0nSaZJPp1LfqqVaBLcE0bCrF9l1arRotDRqMSo+wsKv4jCOGMrg3v40x4vGQ0IZ9eVpHN25heP5rbi5W1Nw5iyHTmeTl7SXZbuTaHINpbtFMbv3NxLi5kTbhW289N05jLr1Z0CEC5VHVrHp8nNONAYbis6x/bRoJDiF0dtTxe6dJ0goLhONjC0cLa3HWBFJQXE8a5Zn0HBZ/SJa3RTGHWfnmjjKjF1xsy7l2JkTJOdncGzZRmLSdAT07k9P23Q+/+YYBS0a8k+sZ8GOBFQ23gRQwp6vtpGmdcTLpJTkfSIgZxeQmdogajR/evaPxKP8KFtPpIp6qILU7Sv5Zk8eDlF9CTLOZc+yreRad2VYn0B0padZszeDun93g0BTyPHlsZSoDPVTGyXxm1ieX09bUyFx21ez57wKGw932gqT2L47neKCs2w9FE+BeQCD+rlTvi+WM+dLaWq7LIfXlxO/ZjUncozx7dUVK1U8q3YkU1ySwpH9B0lt9aLvkFCMkuI5cThF1NHH+VI0JjPN/OjdVcexxaJuKlBj0lZLqkiaTtcpmLc1inPjDHv25lNZdp5DB8T7RVO4/5AgdGdOcfKoSIxq8jj2/Q72Hy/HOiJK1H37WXQ0n1ZxPC4cWcO3583pM6QXXm0lxK4/SWHzv9sp/5t+RWDWoYr7jrkPvc9hejHr+omMHTWS4SO80ebG8v28D1l+QEPIsMlMmjCByf0jCHCw+KkC0VWScUTDwBBvLH/MOEWGIjLmxmo1IcGe2Bq3UdrUQK5JAMOm38ZtU0TG62KJxq8Hg6ePpU+wO05duhIRGkxggCtKSTyncyqoLk7j9E41Q667jXtnXcvErlEEKC5QlUJGTSvdJl3Prbf/g1tH+5JWUEZ5k/bHwKirT2f/0gL6zhTzzr6RGf174dfigXVTJgdFa/qbNStYvmotmzZtYWdcGiX1l926EpnBmaRA+oeaimxqB9UhE7j97tuZfd1UIjyaOZFRhc6olYKGRorMQhj9f+2dB5wURd6/n52Z3ZnNOecEm1lyRgGJgooCCqKenlnPcGbUuzPdmXNARYyAKFFyFFgyC2xk2ZxzDpPTv2ZB5e6807tX7+X/Xj1++iPbM11dVV1V39+3u6dqzvUsmjacKO/vBnGBkwr3yGTSEuOIjvARg8tJTtZ0YVI54xkayujpExkSAc5Kd8bPuoJ5k4cQrjIS4uuKr7GVosBUhk+bxhXXLODKdD0HytsxW/qoKc2lb6QIcDRmuht7MTSFkCbStwbEkDB5HAmaJlqs7gy/bD4LrxN1MyGAI2fq6TI7CTffwc56FZFDZ3PTLTcwKe48IRCdsq1eSbD/WC67ai7zrp5IdK8IzFqbKSssJWLUWGZPv5xrJkWgq2wiOSkYY30VxYmzmDPnEiaME3kSzsnhKkuziugUIjVt3tVcf+vN/O6eWQwNtdJQ7EtCsIbGkgZGzJ/DFVMuZd7ciSSYS6gVo5q7fxDxg5OIF21A1dZKVaHIt6GPxopmIoPUWM7sYfVXn7B0xQq+WL6ajZs2sr2oXUT/SkwimDrW7U3KhLn8ZuEVDI9wO1c2O6amIjbn6fAYPFPUyULmXJSMZUQ8weoatr+9lC8/F05vxXJWrlnPrqM5lDW0Uy+Eqjs9nhDX77qSEwq1HwmxsaQlCDfq2svJvCoaRICpLd7FW3lhTF+wkBuuvZG7b76RqweHoPIKwH/sRQyNRdRHN9ETr+DaG25g4SWJNLa2UFtXTt5RH0aPmsr0q+YwKdHvR4TZir6vC0xmYoKVQkgNhHsPYebMS5kmBkyjtxKjsYp9HxcRNOgSrr12IdffdTu/u3k4Pp2NVFTHkeAn3E2ncDAZAwl31tJcYcLTHCzqNIiQODsdpq7+RyFfH3Bm9Kwk9Ie/4tMvRT0vX8mKlWvZJETrUHkTHXXtWEQwPefyWUwel4FvuItoV83kbj6NwiuT+QsWcfOV40k0JzIgWEHp7nXURk3m+ltE35k7h5HRBvadbuaHhwNOKFVOWEo7MXZ4kj59PncuvIhkfx2nd7YzJC0GXxcF2trTHI8ZwsAA53PHCXnr66Sqx4Q5cwaz5kxl3KBwgp1FsF9fwMYSM0HjZ7Fg4SJuunYUHnvyqe7rpk4YiLjfir46fRJjM2JwjhrMxBmTmTgomXClBpW2nXJ1IOETpjFn/jyuHOkpAsl2+toqOHUgmGnTLmXKnOkM6NzL68u+YPmyT1mxapUwCXtEIN1A73m6eT7W5hJ21UeSGh+IswiMagtKiRmfiKe4Jg1Fkcy7chaTJh8WgEsAAEQaSURBVAiTEO9Ks/i+s9qbyKhYMgaIwNDDxJniaipb9Zyvy3Z9A2VnUrlm/mVME/115qhIjCdKKMrbz9p3PuDL5Z+y/MsvWbt1J0eLyzh9RIisPZiL51/NtYumkuztTEZKGGpTPUU7+xg1Ig43o2gb3W3UhYdBeRZr3v2QlV+IdFZ+dTad0gbaKks44prOqKmTuWTObMYl2tEZLWfHO99ohqaJ9hbig6mrlhNFrWjPz7TkXxFmBe4J47npqrH4VGzhjWU7OFVRS4degUdQAqNnXiwuYg17NwrHcaSYpi4d573iha2llEPVMWTE+513G9kiovxW2nI9GRQdhP+AcVxz3XzGWo+w5NP17K3UY+gWLijalyAReRtyxXmzWoSYd9OqFflxt+EfKdJrbqTSmMzoQcGonezYNB54hHigr27H3RJASkwwrs52tD3deLqq0Ch/KLa1tYyTHalMGhGOq1Icq1KjCQ1A0dEqOsdQ7nv2eZ56/AmeeW0p7913DcPC3b8fFC0tlRz2ddz+aiVvi45xY9JERK7AYjFg0Wvx8fAmJG0Si669nMHavbzx6RaO1JtxdlGdS8NCx4kNvJTVgZO1mxZHmTzs+Ef44tzbhb7BmUFRnvQ1GPC2JzBucAxeyl7q88yEKTyxtVeiTYslNcpPlEnUsdWOj0aF1dhE1cleRg2KRqProqpJdM6QeAKUXXS423EXjr4rt40gTRgDIvxQq2z0dXWJ/KpRK/0YetszPD3exuEv/sJj69vw8NZ8X2Zbn3CsLWb0/nFEBruhMBvo0ThhU/ZQe9KNi8cOIyHAHYW1UXRkN0YneNDW1ojy4jFkBqvQNfRibgllgHChQsvx9IwiJsQLtUcQycMGiAi6kcMeMYQH9lG8R8uoIUn4q0X6wrXpuxToW0Skv20TxWYzZoMBm92TILUnXhoDjcL9hIrgrulIN2MW3M8zf/ojix97kpeWreOdy4UD9oxh8q0PcnN8Exs/e4/3DnTj6v7doxbhylpraPINIGZgDP6uSlGfFoJSwglsPc3a+pn8eclL/PGxxfzhuZd546N7Gemjo0/XSUBcEB7nKsjWJ5zCmixKzzSj6zWKbqPA6BuCn48z+qYKqhOGMjTCExdnD0KF+x0U6ESnsRNlaiD2qhacOrxJTwxDZEsIbS+uQnDUPY2cChjM+LED8HcXbefHHr7bjHQ3dAs35U2CtwhuOlzxiUhnYKSGzrpagmL9iFJrqa71F0IWhY9aiYtvLMPGxqDqaqAwMApvETz31VoYlBiMsqOBgl4TPaFRBHq64+kvxNVYSdbn32BMG824BBunv+niyqde5cU/LubxJ5/ltbfe57FxAfS069B5DGZYki+mziZcRJ+I9bFQ2+RBZGwCkf6uONks2IJiiArq5NQ3PVwkBDzYXYnVasTY14eflyvnbkYLnNCEDePam69icnQDn/75Cw6WdKHorCa7OoJkEaC5KPs4c/gYgRelESZE/Cx2jOL6tCtt+I3OJMHLTGuZHV97AM4dFTRHBglDEIqXs7jW2k5q/TxxUzRR/K0Tky8ZIgRcR6OoB8/xw0l2NVPfpqfNMwRnYyMdAW5EJUfip1b09zsPZ3FdRPs5HDaOSyfE4e6ko7I4D8UNz/H2X/7A4ief4fU3n+eZm4cR8KOjrshbeQHV6bHEBLqh0pdxaKMrF6UFYhYdpU4xnHGZITjp2zAJYUyMFpq44wA5h6rR643YhOE0+wbiLQJ2UZzvsdQUstuYxuBUUUd2mwhMRX9V6qmvFgYj4w6effkZnlj8NK9+/BK/vz4TRb2OhMgY4oK9cbbr6KwNIinMYRiKONKUwpAEd/S9zdTXVROc6ENXnQ310Lt47qWnefzxp3n905e5d+EQFE0lKIenMUK0NW9zLce32xkjjJWh9gAr3zwmxgvR30Sw6uTpicLPX4zL/4IU/RfwL9SGcFJ+yVx5083ccss9PHVbBvqcA6x6YTfN7uFkTpnDb++7l3sXzWawKpelm3cJ99Z17naUDX1jFbkhUYQHiEH+XL+xW8z01FZR2BOOr6mAL5e9w1dV/ky5YgYjVUp0pyupqm0T7tCdIE8VHaXHKFSFMWz8eAb5NpN3SM2UjEhcRfq2ukox6DRTkb2DDXl5IkJOIE4MSlp7F03ChXSWZbF6g4l0EWEGeXw3GDsCOBWq+lJKazppLfqWr7bvoWt0MvHB7jiHa8SAMID0GCXF23MoLdWC+P7ZY000leTTnBwq3JIfISlmzgiH16dr4/T+vRzPj2CIRzlfLPuQrc0hTBMR9DCLhZ6SJnq/f2PYRMuZwxRqYhhz8QRS3BsoznZlUkoIto5uOurDiPK109VuwawMF/Xggl0EKkV1wpUJJW47U0ZXjRAAi5H23G/4aEMEc0dFYWkqJz8rnIHqCrZs+JpNB07gnBGFu3BUruLU0cHBBEW60GFop7Wnj46iXXy+VsVFqaE0bVjM1R81MHLm5cwRg5PnnpPUar+7zWTD2NtBVXMVFVotejEw7t+ShS3Ul0Rvx8AVTHSIrxB6J+z1hexrjCHat42yQ62MEddJre+lrqGTatdE8T13EQTo0fa20yuEIXvlq7yyajtHs08J9xRIkK2FovwOmjq0mHV1HFq3nkMZY0hQtlKbqydm2CgyQlxo7bBiCRLXlDbONDmjFEIfnepMp4sfiUOGkOxewcrnT2F203Pkk0d4eJuF8bNmMz0lGuXhIpoN310Lxwt1KnoaRfotHTQX7eTjd0+THBiMX2gkGdZOISQZjMwMo+fkBpaeEW1B30p3pVkMYl7fv9Ri720iu0Qr6iSTscPC0dZXYB0aRawQIzdXN0QjpalPR/3x1fzl9g84JFy3uUdPYlQo/oGuWDTdoh676Ko6Jpx+J+E+QkTN7bQliHYmBl3VP3gjzm7oo1n0lQZTMO7GeorVBpwGhOKr7KTyWA+JXkEE+3nj6dRCfUsvVl0Fa/90J89/W0Ft9Rl6E/1R1bTSVOCHr76AdcLh7a9txEuc10fpjE9gIOXrP+ONMz6MvDidMJ9AItKg0RrMkFGZBGsLWP/+GQz2Xiraq+gckkCow3WXtOPZ60limAgee5pprBXi31zI+o++4JRo5xF+wUSlWyksbkBr6qH8wDZ2HYli2uDQ7+vU1l7Eyrc/5YtsIwNnXsbsQUaa22qpKcpjb0IUHtpCDmz6mLff0TJhcBTf34+yG+lqrBMBuuj3ccKFdjdR2CoCV/8YYmPDUbaIsUG0L0NHPl99tIuoS4cS13aGA80ZDE0QRqCnSfQxEyNEH7d1NVPrpEc9OAynhnKaztRhMOr7x5W1W5RkRkWi6K6nRQhrtBirnJzUBARHYutUE5k5iChVEyd376HOLgL/H72EPVTmlJEwUIxZeYfZ9OES3u5OE4YFKktOUj02lWiNie76VkwVGtJFQFdS3k67hzAkwsU6dYv8CNMTGeZ13h1JC52VZ8jTd9Al2lh72WF27S0lfeZQBnp5EqFyISQxlVjnBnadyKOozwlXNx3V9SLw0DaRt/oL3m+PJjHGldbik+zNSMK9eh8bV61l9w4nBqdFE+LhRpizhrCBKUQ7VbP1RCFlInivy28h1M8XPzcx1or2kN2SzLAB3hjrTrOrOpDM8aNIDrbQ2NOK7/BYEQT9eLv+b+VfDFOUwnX4EBiRwOAR47ls4SJu/v0EQpVKnNUe+IVEkJg2ggmzb+CRq6czWri9s9UtnGFDFXWnXmLe8BTiY0VUOCCFUU9tp7S9gcqYaCJDw4XTUpK/5EZGjb+PdY2eZExMxk+h4+RHH/P51mLUmbOZ3f45iy4Zx7yPclD6qvFyE+dNGcFFFzXy2q2vsbXSSnhyCGGRESQMGUea82levXY8mb/9hI4JM7hyfAK+QtS+awaqsLFce7uZ169+kuX5JkKTgoiIiyQ+ZSTD4+ysu+cSMua/QHZgPEOHiejv+zBeT0NZA0MGxeDnHMzIhVei/Owa0oZO5b79zky5ZwGTk+MZ6GPk0GvXM/qiR9mpCyDT4XqEAzyLhpjxc7m8cQmXjRnFDV+WovJxwVO4Xset/4KTK3nxqdXs7emgISJYuGEn4UBaKHdToxCuqLXciwzzSR6/fCIjFm0j9P7bmD/QC5VHAP6JB3nslof4dG8J+mZvhiUEoxLRctmObaz6PAvtQBEI6Pby2BUjGXz3BlzmzWeu6CAx6RMZWfsiozJGc9WDpxh4xyxSfb4bIs10tzSIShMBSPbb3Dz+Bj4oi2fe3CkkWhs47u+Lp58GpZMdbV0pOfGxhNjaqSuOEZG2F6a+Nur0wiYPjSNYOOS0qUkoS5Zx/YjLeGqXhQEpMcIxNhMa5o267gz7UlJRbL6F5KHX8bV1Gk8/OJv0AWkkpej5eN7l3PDocoo6VXiqnLH2tFAmggL3qDjGXL2A1LIlXDk6ncFP5jDo/pmku7sTMTAT7/0PMHrY5Tz6eTMpCy4izuO7LqDAK34k18S2883St/gwRwiKMoRBEb5oAkdxx7OJrJ+RScrwG/haO4LbJkZhbdGibY4mPuyHuygK/wHMnOhK9qf3Munyp9hU1IXJ01U4OiWeGZfxcOxOpqRlMO2RowQumESyp43GnBOse/MrSrwyyAho5/PbJzLo2jcoShrPFdMSsNRVEBDkIdqNsxjwbfQeeZ0JMz6m6PtXqB1vVvfRaOimLcIfpbYdN9GG4iL9cOmoI6/BVxwfgldAEjPujufYvbNIS7uRHW4zmJ0hnHBdh2jHiYQEa0TQuIE/PPo8a/bV4mH1F27JVwQDSrwDQwnQxzNh0mSGRvuLoCqQsbfdRty220hJGspVKzoZc8dFRFi7MfboSE4Nw00M0FXCUZlcYwiNSeaSBVEUr/2Ylz86gd7LnejMSPxdghhx4w0Erb6O1NQxXLfBzOSHruficOGqz5XOyS2AQckulK39AzNHz+GlHHeGDEkjMi6eMZVLuG/Bq2zef5LjZDIs8bzHLlbhDht1GNvFuBTmSm9zDXU+TngmhhE+cByLkltYcsd0UgY/xrHAufx+XhrG0pPsGTmMJHFdtDV1lOfGkR6robu1HkufkdQYD3TVSoI7a1n7xHWMuexdmkZO5fKxIXSUFBMp3LuPQoGT0pXoCfO51vYxE9JGM//Rw2hGzWB4SC/Zn73H609/QU7r+W/yqwmKjaTy3SdY+PLX7D+VC1MHE+/cR7sImNJFn/Ey9tFS10kjicQPTGTs2EDas55lxqwHWZZVh85duGVhl7/XZXopPVlAyvhelk8bwpSbtuE1+x5um5ZB2rhhQpyz+P1I0c+f2Yt3/BBGiXE5Y8YMwk8t4fqxN/Pyply041IZ4OmCW1gs6VmL+c21S/m2qJF69xQGiHEy5eJhxCh28LvhY7jmxaOEDBjMMF8tRYc9CfcUQaLGKsb9LPKmjGFIoBqPlIuZn3GQGyZN49o/7aZF7YZSiPf3Nzkk/fyHZv4SA4dJT6/WiO37n7E4nsW54aYSLsyqFG5Chd1sxGAwYhIDjspFg6urGIisRnQ6C0qNK64iqjLphVMzWcFFjdpuxUnjgUZpx2zQo3c8H1U7RMQmnLAGtULsF1Gt3mDCqnBGoxEO2HEbWbiO79qB3W7DatTRpxddw/GymuMWm0qcy6GNJgM6vVGEFUrU4vyOY5XnPR+36EWnV2hwc1Fit5rQ68TfImsKZ1fcXUVjE2O+1WQU5zdgtjqdK5PYrxQd91wqdpsZgzjOUSaFKJPjdpOTxl1E/SI9rQGbUo3QHVGDzriKsjmJ7+uNNhSOxE1mkQtRRrMZKypcRfSqcex3PCLQ6jA46tFZhagGVG6i09rFsTpxDUSajrQc10RvFGkoXES+RH05fqIkym806NCJgjg5uaDxEOV27O/PbA/F29aw81gnSQuuY3igs8izqCtxnZQiX33CfapF+ZwddWQx0G1Q4OHmhFlrEcGC49akFZPJhEW4CTe1QtSZGaPOgNHsKPvZdJzMBhyv17VsfIy55Zez/fahIm1xXYXbdNWI8zneondcU70Zu3C4SoUSlaggF2c7BrNNlNcFF4VoU+La6I0W7Co17qLsjrfgHdfIoNeL79mFOxZlFgOZi6iv765F/xv6Im2d+NzZReRFNEQn0WbU4jt2UZ6+Xr3IuwIXcX1cHc8OLGZMRvFdESh9/6a+oz2JdqzVG7DYlCJfTqLtuYgBykUELCJ9ka8+g1kM3KIOHAOpk1XkVY/JLq6fqxoncR5He/2hzYm2ZRZ5tovrL/Ikxnzo2M3iV5x45NnJCJ1xnFScVqQt6tYs0nE8mrBYRRmd1SJ90RZE/3FyEfXi7CiHaI+isZvsohxuok5dFEK/RLlEm9WI7+p1Zz9TiRMpRN26iPI7K/VUb3uPF0/6MW/+5YyN9xXpivp0tEWtcJyi3p3E9fMQ+Retqj8fdpHe2f4n+p648i4iUHAS59bpzAj16M+Xub8diP3fpeN4BCn6iLtIx/m8PtJfp6KuDaJOjRYbSlEuR3tVOcom2rnRIsoi2pPZrMDd21Gn518LcY0cpxTtUuHoa462JtqEOG1//9aK/m0V10kt0tOI9uVk1tFtdsZbjAV2i0m0TxvOniLYtJlE2xV9QtSjwvEYxWIR19cqNoU4VrRd0Z9sYhwxCIF1dyR+7vyO8Uor+tL37U1poDrrMMVtMGDGRGK/v4XrGCNFfkR/sIixSq0Q9ahww0t8bhHtw+IsrlV/nkU+LE5irHIR7U9cS1EnJjG2ODvaqFKMcWrR/76rO1s5X8y7n+aHl3LbAJWo77N5UDt+heD4ZY1jzOwfJEQ/F+Xv7wvfjR3mbnI/fIg3PO/m45tGi+BXtI1ex+NJce1cnLDZnHHzEG1ajMEmkT9HX/suHbUYj41aEXSoxXjmaHOiTvsszng6+rcYsUy67+rEWfRXx0/8xBjqGNv66+H/Hv/OzF9CmM7y2muvORTTLoT53B6J5G/Q1dn3v/GO/c93f20/3WM5t/PXoMm+c/GV9jtWFdjFQHxun6Qfa7l95XUP2pcXd9n/IzXTXWhfcfuV9nGX3GVfdrDK3muy/mfO+38Si72rbL/9y0/fs6860WQ32H7lmmzeZv9d8H32TY3mczv+BazV9g13L7L/ccNpu1Ze8/8R9957b7+2CmE+t+enkXNlSyQSiUTyKyHnyu7HjsXYR1trC629jlvn53ZLJBKJRPL/Af+iMNsxd9eR3z/l4bldvxR2C/rOVhqrGugx/fwfm9ttVnFcI8WlbfS/YGvT05y/k/fefJ/lR+vQn/3av4Adm1lPW3MDVc29/MMpl+16Ws9U0dpnOu+5+T/A8RxG20V7Zw+6vy2bY37jolIaRRChbS2noKGXnzeHtQhADD00t3T1Pzf7340/HHnpFnnpFnkxo2spo6Cx96frRSKRSCR/x78ozFaa97/OtS8doP2XHnPtBlqLsslat4+Kbsu5nT8Dq5G2oiw+Xp5Dm0PzbEb6jF5kpE9h/piYc1OF/iuI4KO9hE1fL+PVjSX/cCELu/Y0n93+KluKu7D+VF3Yeqg6tJ2NW45Q3nH+r7sFtmaOvf8FWZWtFKx8lFtXFv3MebdNtBRsYdm6Q9R2/ifmvf5niLzkbeajtYeo6+qh8dgK3syq+quJDiQSiUTy8/jpubItOlrK89h76BgFTe3UHd5EaerV3JzhTkd1EacOHuRkeSN9Ck/8vDVg7KSm8ATHjmZzulmLys0TT40SY1cdRYeyOJxTSovFDX8/d9A2cXp/HrUdTZQUtWLxD8I/JZ049y5KSk9z5vQZivMqabVp8PFywwUDHTVFHMo6Qk5hKzZvP3zc7eh0JuLHDSHORUd9cTFlNZ04+Xnh4emFp7sL5o5KTpXX0lxbSu6pEnF+V/x83HFWnns72+54w7qdstxj7HP8Dq+6nIqGZrwzJzExXEGbOOfx49mcPN2I0cUDb08N9uos3txsYfzCMST4qPt/ouBw77q2SnKPHuJobhkN3eAuPjPVZLPh3a84WOFM3JBIqK6mvr6a/Nw6tCYT+gGjGJ8BJ97/lIagZDxbK6jWOuPv741GYaSzpoaaqi6Uvl4oemspbGint62cfSs/YH2pkpRBKQRYGjj17UGOFxZRZ/QgOMALl/PeIDd0NVJTK86n8sZLbaG9ooSaDiPObu5n3+QW2A2dVBWIOjh8kjM1etQBvnirzLTVlZFXZyMgUI2huZb62nZsHt649c8xbUXbmMs3H7/H+goX0lKj0RijmDRuINQdZX9pEy25J8iv0qHyF9dLoxBNqoOa/JMcPSzaSGMPuHrh7eZ4a/m7/Bpozs8TdeB409MV9/437QU2E72tdRSfacGmdsZZ7Xjz/V+OvCQSieQ/xr8zV/ZPCLOZ7pJvWbZ8A1sOnaCgOIeDO+oYfs0ihjgVsmblFo4fESJUeJryTisB0ZGoqg+yceVX7Dx6guO5BTQ7hxLv08eh1d+wc9e3ZOfnkp1di0/mEPzqt/LnG98jX2WnMb+Y/Opcjnf5EW84wLLP13DsdA0VBw6wq0ZJbHIkbs2H+GLNDvbsP0b+kVPk1HiQnGHl4BuvcNh7ONG9x/li+UYOHTpJUVkp9UZnAiODMBz/jKdX7qehoY78PdtZn+PM4DEDCHJzTPbuuHXdS8Xh1by9fDsHcnLJySmkpcObcVPHEdCcy57t29glynPqWB457RpiEkJxqdnN0tYIFsxII9jxMwuH09bWcWzVUpbvOk5ubj4nSloxBQbjU5fFyu1ZlKjiGJIIR9/+lO355RSXCrfdtpun9yi4dJie9U/sRZniTenBnezLb8AjaQgDXds5uH4D3xzqI35UNLojX/PJIeFGe8vZtiqHLoMXsQnOnNq3m2+3HiC//BTH8urRDBxMsmMyl/7raKGz7ADrtn9LtUcqqa61bF61nhOdbsTFRwmxdAifld6iTbzwyUaO5+SL4KKAM4pohkWZOLbmAz4tC+OSwa6UbN3I1m/r8RuSRqjb2eO6Tm/h7SXH6DH5kDjAwsbFO1BNT6L5/bt44qgFt9KDbN1bRK3nAIbHOlGWvYuVK7Zw9NhxTohAotHuS0x0OL6u303eoqVy10b2V7fTXC2Csy4FnioVajcnuqvyxPU4SUN7Iw21begdP/NRq8/+1Kv/WIlEIrlw+OUXsTA3c/zL7Zx2H88fX3mHD27MRF8eQUKghYItn/DBN0VY4geRFKwSwrqbfeWt9DbWUu2Y0Pw3j/LooktIDICm7E2sP2Vn5D0v8N6Hz3PTcD+sRuEE6yo4HZzKRVf/hvvuu5gEbxvhsR4YarViIM5k/u/+wLN/voaQzjaqqks5uGIrOU5DeeDVd1n67k0MUtvQ97YLRx/AAN9eTh3YS3nUZTzxwTs8/duRWNqKOFEt8lPQib9bLBOuupM/3jWerrZOOgyWs7d/7XaMPeXs/fwQTuPvZMkrf+L2YQm4dAcT7NzGkS1rWbXjDE7+8QyKMXNqz3HyahupLKkjOjOG0P5JH/oTwioEvr3VTtqcO3jglpnEq2s4UtyHW2QMibOu5taHbmRGnBOVdjUeQ2fz8Is3MSrYRuyQaHwbznDEfSRTbvgdL7/8CLMDitlTLISns5Hyvk4MqQMJd+2l9nQvQfZAMlKSiUy8jNv/cAdjrUdZVxvM/BfeYumHb/HbsHw+yarhh+kLFLh5+oKLM/VNDVRkZ1NkDmbg4HRCvb6bV9iGrqWE7PJoFt7zJM88MIlg4VB7uuupy+8gc0Q8ntoOqtp0tHnFEvr9TCsqfMNiiEy4jLv+dC+zY+2URw4k3redM9k+zJyxiDtffoXfXxVK6W4hzk0lIgg8RffgBTy19AOeX5RBV30xBQ3nr2vrTfrca5nmmI7TWM2Jg5t48+W3WVtsIGjgaK5aMJpwNwsNJ3ez6tNPxfXJo0X3a68uLZFIJP8Z/qkw23uqOXLCi8ljBxPj646bfyChfgMI82zh9O4qIobEotF1Y1AFkTp8IkMjAgjNGEVmWkj/0n1bK9VExQZjqKrCe9wwhsb64+IaycW338W0GAXNDbW4XzaHKaleGNu6sNSrSfKyUdfsjCY8k+QYP9yFG3J2Es5MV0/ucTcmjc4kyluDJmI8tz8+jbCuGvKII1DRQnOxiZFjMokUn7s4ftyuUWHra6Oyzo/0tDEMjfeit7kB9/QwQt0dbtmhyzZMQixOnYln7rRUAtw1ePlHEBkQhpuhhtM9vdhDQvGw9NKtjGD6pMGkBJmpOWFiSFhA/21gh1u2CxFrryym0Fk4UH0NhSUVNHd14uKhoK+xHTeLiqgAVxG4VNObnMH4i1JFHrRUHTczNNKLzvICuqZN4eJYLxRK4QCFG7XZhTC2NqLtNhKfGIKmu1m4RxdU/mG49NZTE+WDr7+Bkr3VpI0YTmaoJwqFGndvNVbr+Qv7OyZB8MQNZ9oKjrClsBXf2BSGxPji8r3NVOKXNpM7MtSUHdzIyp1wyZQBqJvrqKiJJCPGHV1nE60WLV6pkfh+v1SicNoNVdRE+4m8uNBTXYJpaBRBnZUc6RrJ1EnxeCmF29VoUNgMdNTX0desYsTwVEI8NP0TOyhFWo4Xxf7qkbRjTWYXNa4ioPDR2Ojr6aa3fxJ8p/4JIlzdPXB3d8Fu1KHVGbHI1+8lEsn/Ef65Y7aYMPQ5ZjEyY+utYNfqTVSMSSbWQyUEx4/Bc+5k8WP3sGDyONKD04hX1XIgvw5vx1SCowJo2HOI7LwGdFY7Fr0RsxiY205t4JXVeXRZemiv7WPE0Fi8LXra61ppbA8hRKOlvKWBGnGM3dBKwZEceoM8CAnyxAUzepNZDMYtnFi9lLX5TTQJQatIG0iEEDKHyJqFEzf01JN3rAxdhzshtlZK3d3wiA7Cw7mL0iOtDI0LJ6D/9vNZ7I4Zd3qN6PRaIa457C84jTZdiItGiK53HCMuv4WHH72bueMGM2q8KL9LDyWVvgT7eaA6t8Sc1dxH2aH1bG71JiExGj+VE+4Kf1Ij3NA12NCYggj1caKjoZPo8ABiHMd2VZFd6EdiiI3iQzngmEnHqqf5zEkKioMZGa2ho6oDfaUoPw0c3rWdw319qIWgWttahFP1IcRTyK24ihbHDECO28pl+9i0y4UpQ8NR9+fMgRNKjRsBhhZK128nRycCqWGpBLt/53pF/ptz+OTLWhJumMO0ESG07PiETYUtNNWWcTIkFo+uAvbvPERFsYWkmIDz0jbR0diMX6SvyIuRyuxqEhOCUdSc4ZBZBAc2C31NRRw/WU7AyFj8RF5tNmv/jFD6jgqOHazBTRFAbJC7CA2+o4fizWvYfiyXqm47vgOn8MATj3BdhiftZSfY9HUWxfVdKEMzueyGm7nhsmGEiTYpkUgk/xf4p8Ls5B3PxRPtfPv+clZ/e4bapnpcxyQS4RHFsMvTqVnxR+548I+8ueMMWoezFa6xoziLFe+/yivLToCvY73ecBJHjMCreA1/evAeFq/MxqRygb56yk64MUC4PLtBS3NnO/WBQbgI0dVb6mgrXMvrv3+Oz7IVTJg8gozEZMZM9yL/w+e4/67nWHWiG2e1nvqKSgIHRBIWHEvSUG9OLH2cOx97ma+r3MgYPZxwUyv2IA3BjvmXu2s4VezHgPCg/heXHJLqJJyZOiyVMZl1fPb05+zKr6VbZcQrKYyQ8CRGx3hTs+FV7r7zOT7ZWU6fXYm1tYqc4EgRLLj1T7vZX1dKcY7YgUTWb2bJB8vYlFsrxFojXKEKU18dx/cd5Uh2PmdOm/B28upf5crUWMFJzxAC3Ts5c0zNwJ7dLL7jfp5aVojHuDlMFQ5f6WKjqe4oK5ctY9XGU1gsGmLDPLHpemnavYeDhQZiZozGJXsZD91zJ/d+eBzNxQu5KsX3r565Orl6EOxmx13kP3FgJkMiPc8TQod0C6Gs3strTz3HK0v34zJyDINC3YQDN2MU127JC8vZfKiCRmMUcSHfLZXowIpB20vjzt0czD7FqSMK4gJV1BUV4Tewix2Lf8fDz2yhLewirpueSlTsAOJizex5+1Hu/MN77OwJY9TIocT7nrdEKCrcQhMZNGQYF1/2G26ZNpSEmEDcnJSovQKJHzScCVNnMnvepYxOisD/vEVJJBKJ5P93fmLmLwvahmIOH2/DZ0AsgfYqql0HMT7aA6MQudxjp6joU+Efm8bQ5Ch8lUba6kqF23PcxlUTNiCF9JQIPG2dVOTnUFDbgSIsg7GZA/CjhdNZDfgJFxrmoqextpoavQavxix2ZFXglTmaUKsNt9hkkUYkvm5O6JsryD1SQJ1OTUTGUDIHetJxOpsG36EMC3Wmp6mM/Lwz1JncCIlLYZBwbs7CldZo1UKYI/F3aiXnWDt+6XGE+7meW6nHjk049paSPE6W2YlOCUZp6cbml0SyEBhdSw15eaepalP8UB5DDQcqFaQnR+Dn6twf3fTfEu+uJffoCSp1CnyCQgkSwYp/Qhya5mJyi/vwT4rDq6cHq09w/2T3Lo5n28WQkeZB0/5SzKFKakoaRECTwOBRKUR7KtC211KYc5omqyu+GjVuXsHEJEXh3HqaY/nt+CQNEvm0UCPqt7Be5DswiVGDk4jy/WGpRkcZLT0V7Fyxhn31ocy76yoyhbieL8yOdZZbq4s5fqqcHrMzoWnDGTIwEHtbKSePnKHHOQA/UWcKTSjpmaIOvl+M3kxXVb7ISwd+A6Jxru7EfZAXpx59kOOXPsplynqanaJIG53ev2KXwuy4O1JCQWEZTTZvohJTSIsNxssxl/K5FCUSieT/Cv/OzF8X1pScxkYOL1vL3jNeXPqnBWT4ytuT/3NMdJQf5qv3V3DYOpj5113B5Izg85aG+xXo3MfiYZ+RvvNtFsS5ntspkUgk/338IsIcExNDeHh4/4f/cRyLvTe202NwIUA4Ste/snSSfw/h5LUd1FU1oFUHExsdiMf3L279Spg7KT/Ric+QWPx/eLtMIpFI/uuoqKigsbHxf7a6lNzkJje5yU1ucvtlt39rdamenh46Ojoc/5RIJBKJRPILEhgYiLu7+7m//jnfC7NEIpFIJJL/fX7lh40SiUQikUj+FaQwSyQSiURyASGFWSKRSCSSCwgpzBKJRCKRXEBIYZZIJBKJ5AJCCrNEIpFIJBcQUpglEolEIrmAkMIskUgkEskFhBRmiUQikUguIKQwSyQSiURyASGFWSKRSCSSCwgpzBKJRCKRXEB8v4jF+vXr+eCDD/p3SiQSiUQi+eVYvHgx48aNO/fXT+AQZgdyPWa5yU1ucpOb3H6d7d9aj/n111/n/vvv5+677+baa6917JJIJBKJRPI/QJhevvrqK4QwM3fu3HN7/zl/J8zPPPMM9957b/+H//9gx2rQ09vehtE/gmCNfHQukUgkkv99HnnkEd57771/SZh/noLpa8ne9QkPj08kKjKSuAETuOXNjeTWac994X8Xu6GLwm/e5667t1Kr748zfjZ2q56irx9nxPwVlFjO7ZRIJBKJ5H+JnxBmO7a+EtY+/yD3b+jgoncPUVFZSWHWa4yqW8mNd7zD3maj4zk1NqsFo0GHtq8PrU6P0WzFJvbbbRYMOgNGk1H8X0uf43ODGavVjFEv/tZq0Tn+tglBdXz/r9IxYLL8TTpGI3pxjCMdnfHscTaLEW1vH719OgwGExarDavFhEGv6/9en9ivP/ddu82MXuTPIBx2f15MKhIuf5I9H88lXik+t9uwmAziHH9znOM/mxWzUY/23GcGx2eOvIlNIpFIJJJfgn8uzHYj1Xs+48+VI3jygZuYlhaASqXCNSiDuXfcyPyQE3y1p0wIbTsVh7/mqduuZvTgwYy+6maeWp5FRYsOc+UW7prxW373zPMsvupiRg1KYsTNb7F123KeXDiJzBFjmXL/e+yt7hFi2k31ifU8e8tcRol0xl59O3/58jDV7XrM5d9w86QbufcPj/PbMWMYPjidifct4UB5K1VZH3P/n97j8MkPeeaht9mdX8LxtW9x+6JLGTxkMINSp3P9/cvYX96OrnQd149byI2/vZZhI4Yx9I4v2P7VYobPX06J2UR3fS7rXn2IhWMzGTzqUhY9+CG7C+vRmg20FO1h6WPXM3XcCAYPmsbNT37Kodre/sBBIpFIJJJfgn8uzLZWirIKCEpJJMnXFaWT09n9Ts54x07h0Q9X8c78GDpydvLuko20jXqALadOsuWJ6bRv/IJ31x+nXmsVBxSTXePD3A92cWTzi2Ts+TO3v1jN5De2c3Ttc0zu2cHHO05TdfoAn67cR9fFi9mWk8fu5y5Ht20VH286RZPOJtIp4lhbOLev209Bziau7/iEh78owu/i21jy/L2MH34Xz751G0m6XI7k65n64GfknDnF7g/nY8vZx5b95XQZHCJaSon3VWw8ephdf5pGdH8t2DF2VrL7o3f58HgUt63NJmfP68zzLOSz179kX0Ee3y75goP2qby28Qi5+//MsOZdfH2gApMjaxKJRCKR/AL8xK1sE9oWFQl+PriplJyT5b/CbuimNr+U9r4krpw2nAgPTyKGX8RVQ9R0VBRRK9yunRguung0A/w98EhIZ0yUitBLpzEuygs3/1jio71oOlbAqbxCmist4nt2GosKqdSriXJtoFj8u6HTINKJZeKkiQwK90DpHkPm8HBaD5bS6ND+73Enesw87n7yAWYne2Dq1GJXe+KrsWExGLH2i2g8kycNJkzjTUSk77lKsKDtKKOwqInEq2dxcZwP7kFJTLhsBO6qZk6cbkDr5ImzpY/qogqaGMh1b3/Ca9cMQqP6iWqUSCQSieRn8hOKokCpttFn+u4563ecfd5q7Ouis1uL1ijcpiYAXw+Xsx+7eBMihM3mZsVgcSihBg+NBqXiB2nXeLmhPvfvfgw6mhurOJh3mK+XvNj/dvgzf36fHS0WNMH+uDo7jtXg6apB8Z1z/1Gs6LvqyNm3k42btrNnzxa+XrmFvPImzOe+4UjH6+/SsWM1mbD3OhMW6MXZkjjj5R+Kt4sHZlsQQ+eOI8hwiHeeeZV3PvyI91ds5khZm/hM3sqWSCQSyS/DPxdm4RBDk7woK66mQWv64Vmq+L9Z28CpbavZcKwes0hFYT37wlc/VhO6bqMwoU4o/5mGno9ShatbIOkjr+Sxt1eyfsMGNpzbPv39VaQFu/2oY/9b7JYeKrI28/GSDZxsV+MfPZjZ181hWEb0XwcCP4KTQhTE2YZWbxLy7sCGyaDFZDWjcPEkatw1/OW1t/ng3XuYGmejcM2rPPDGXhpMf2XZJRKJRCL52ZiEKTx44ADLl6/gs88+/wlhVvgwcNJkYqoOsyYrhxrH7WQhylZ9G6cPbuSj5XuoMLkQEOaHN1WcLKqjV5ygt+4MR3O7cdcE4u/p8rME1cnVi+iB0YQo6zh2qpwOgwVTXzNnDmZxvKCGHuNPPci1YbOZsGh7aCxtxOQykOmzLmFsRiQqbQvtnd3nOeYfQ4naM5DASDVlRwuo7DJg1rVQcuo0XSYnwv0tVOzfz4HTvfjHDWLKwtu5e1YMHQ2d9FmlY5ZIJBLJv47VYmXnjh2sWbuWkSNH4u7u8VO3slX4pUzjnoUJGM7sZ9Vb7/Huu+/y3pJlrD1Qj+fYa1k0ZRDJw0YzYaw3xdtX8s7bb/HO51s545HGhAnDiPL5KZ96DqUbISkjGD0ylOrdX/L2W2/z9nufsGLtt+TXtGP4Z+KnUOER6I+vsoBt247R4R2Ir1MF25a9y9uffMXG4xVYrb30CtE2mC3n3ZI/HyXu/gMZN/0SohuyWPHuW7z9zqdsOK4jefg4JiS60pKTxfqlS3jv7bd5951lbKv1Y+bc4US5/EQ1SiQSiUTyI9TV1/OFcMpXXTWX+Pg4/Pz8UP5J4PjwyJEjbN++nUmTJjFq1Kj+A/pRuhOWlEZKkCvdlVU06nSYnXxJmTibq2cMJ9bHFbWHPzGxkfhYe2hq7kQRkswls2YwMT0CLxfhlzV+DMxMJjbIHWeFkxBGN8KHjGFwuDtOQiWdnF0JjkllWGYCCdGh+Cp0tLV2YlQGkzZpKpeMHkiAm0qkE0DykBRiAtxQOZ5X253wjEhn1OBI/Ly98PU0o8OHlDGjyAh3oa+jgz51IEnDxzA2LZbwxEQGRAbi5hVM6tAUov1dOfvYW4FbUAIjh8QSGRVLfKgSbUMD7TZfEsdcwqzpQ4kJCSQ8PkwIfi9twn33Gl2IGDWLBRPTCHRzxumfPveWSCQSyX8ju3btIjs7m/nz55OSknJu7w/s3vMtdXV1LFq0CBcXZ46L7/4fmZJTIpFIJJILj5+akvOdt9/DRe3CTTf9BoPBIL7/2E/dypZIJBKJRPJr4Rvg2++UHRw+fAQvL8+/d8xpaWkMGDCg/0sSiUQikUj+fXJzcykvL/+HjrmppZllSz8iKDCEtvZWrrtukeOXT2eR6zHLTW5yk5vc5PbrbP9oPeZVq762L3n/Q3t9fb3daDT27/s7x3znnXeycOFCxy6JRCKRSCT/A954441+t/yPHLPjpa/Zl83m0pmX4ubmhkKh+Ptb2S+++CIPPfRQ/wESiUQikUj+fe67777vxfnHhPnhhx+iobGZAP8AJkwYz+TJk/4zL3/ZOkvZ9cEDDE0fSFRUFMPvW8Khqt5zn/6nsNBVlcUnK/ZR2abl56w7YWsr5PNX3uelT07S9qsuVGGj9+jrjL95NWW9dex8/w5uWVt6bvaxv8baeISXFr/PR9tK6P5F8mSgYtOzPLR8H3Xdxv57Lr8uVnoqs3j3g9d5bW81xnN7f1kMlK59kntXHKZNZ/43y2Smo+xbPvh8Pw09jnnaJRKJ5Jfnjjvu5KUXX+gX5GPHjvGHP/7x1xdmW2cenz/zNKvrB/HWN/s4lXuIJaMbePGqdzna+6uq3d+gp2b/eg51dAuJ/nnFdvJLYv5dN3D3ggz8ftWfKZtoKcujOzmaSI8wLr7hZV6fFfejuVQED+PuJ25g0eR4vH6JPNnaKT1Uhcamwln5n4jTHIuFNNHX3o6nmytn30X8hbG1UpxVibtKffb37v8WOqr2fMXBPoP4938kfpVIJP+FxMbGEhoayuzZs1j8+GPExcT/jBHHbsNqMWPU99JcuI8vX7uT6R/mY7HbsVktmIx9tFYXsONDISavv8/BhvM8kL2X0t3rORh+GbfdcRUjY4Lx8wlnyPynWHv8IYa69HBm6xtcPyYar4CBjLv+Tb6t6cMmBtbsZY9z+9ypTMtIIzp4KveJiOK+KWmEeSUz971j9JiMNGev4Q/XDsHbN4LUaU+xsawba08lW15/lpsuvYlrLhtD/MgFvLTpFDnfvMa9L67g80eeZ9meYurz1vPHORn4+PgSknkX72c3YuypZefShxhx6bVcef0cJv/mdh587RXWFzVQn72Kx6YMJ8bLk8iZD7M6txG91UD90Q+4Jdkf74BAht/7ESeaznOdou6MHSVsf+tuJqaE4hU6lmueW09hqxZLbzk73riDATEheF58LYvfP8nohAAMZZt46uIn2VPfQ0v+Zp67aTrhnomMvuw51udUcHrL6zz9/iccrGqkYv+H3D40iVCRp+i5z7O/theLpZsj71xN8m8e5YF5I4lNv4bnt1agM3ZQsvsDbpg6CC+vWMbNfYZvHGXQtlFV7EWotw/OunJ2vXMvqQF++AdN4P7P8+mxmuiuPsi7t84gwiuMjPF38sGuUrrPm4nNbmmjYNVzTEuJxc8znXmPraWk14Sh6Rjv/24qnl4BRCdfxbPflNBn0dJWXk/r1iyW3z+T0NQZ3PfpQeq1neQuu5frf38b1w8bzlWvreXgN2+KuvXDOzCEMQ98SXHP+bO2ifZnaKN038fcdelIQrzimfjbt9hb1oFJ20JFkS9RfqJM/auiORZdsdBbvZ9Xbpkkyh9EwqCFvLiukA6rFX1rCbs+fJApw6LxHDRblHsPWV88w60vrObrB5/lg/15ZH/9FFO9vfEJDGPcQ6soES66o3Q37zwwi9nzr2HRwvv57GTr2fx157HsmVd55dUvOVhcT5fOiNliw263UL/xUeb88RM27S+iTWvAZLHK9bwlEkk/nh6ejJ8w9qeE2YqxtZCdqz/nhZsvZfaSU7in3s7nN6Vi17ZStHs5r/7hMe77zeuc8h3FlHkLGB123hSclmbytxoZGhVPpM/Z9ZwdM2Q5JslyEs6ps3g7S54uYsIrWdQUrua2jA6+WnWC5rYGcnPa6Xa+hPtXfsE7twVy+rSJya9vZuMrwziWV0JT22HeeXAZprlLyTu2kWdmaXnv/QNUdLZQ0lhNfeJF/P6N93ltchxGIWjq5IuZlnY/yzYtZ/EcX7Lf+4LOeZ9SVVPM+rttfLAqhxZDDw2VtSj8x/HQC+/x1pwRDLT4EdKTzZtr8nG+6W2O1Jfy1dRO1uwR+eyu5tA7G3B95iDVxXt50G03X51qPk88+qg5kUVuUyj3fJlN0dpbcO2tIru8itx1H/J6ZSrv7s6n+PFBnD4RTFqkN4bmBkr9UglzKmHDyvWUDn+CYyXf8MhFnpTsOsmZcithLgF41O3kD6tqSfrzOs40F/NxyhFe+KYAg6mJggOlBEQM5aaXvuSDuxI5uCGH8toCtp+qJ/Lmjyk58xXXB1opPVJGa2M9xS4xREQqKPryBV4uzmDpkVMc3XwrthffZIcQurqcXPI7L+Xr0wd458Y0uvZnU9NtOVdGIZGtp/n6KyNXvryJM6ffIv3kfo6Vl7H9L4v5NvphCusq2PvOLHqWfc6B0hbqKjtoCruCJ7/YwO6nx0HdSQpr66kvaaSuI4ZrV2xmydhGnn2rhkmfHiXn0Fpusn7Ky7tqfngEYReBWf4uvtxcQPj1r5F18hOutlRzXNRnY20dReoEYqO8cT63iorN0kvhrhXsiHiEwqoTfPHAKFpWZ1HR1sjJrWvZfiZICPJh8t6chb6pFn38OKYl/Z7P9y3nVtet3LTCiftOVNNUsp1bLSt5ZWcZfV1NVBTbiZh2H69+/ArXDwk8Oy+8dxoLb53FuKFWdj32ex5/5jU+3HSSVq2N0EsX88IkfzqPLGHe5U/w4dqtZFeJgEpqs0TyX0l+XgGtrW2UlJSyddtWtmze9lPC3E3emnd45rmj+C58iY8fXshFoxPxxUxX8Q5ee2QJ+zyn8OjSP3LjJYOJD3L/6wUrdF00Nokx1O58bupLB8KhtNdT295NQ9EJTo6czcyRkXh7+hHtF0JQcyft7a3UBcQzaMFsxkQ60VATw2XTL2VUnCta4cjHDo3F5eQWlp0pYsPji5hx+bU88VE2ngoLXe2NOHn4M2/RTIb6QGevJ67uASg7hBiGeKAJdENhdCJgxkImqCvYtWMjq9fto9fFCWNvEz0dzlz+2ysY6WOlrcmKweyFrq4ctX8EF49IJtjTn9i0eDqFC+q1+pI2I5m9a1ey5kArSXe9w9PTIs9VqnB0QrvU4SkkD0rAWr6fdeu2kV/ThEVfzYFNdi6fNJFhEf6EpGQy0jWF2GAFHc1VNA0NQVVTQX1+NL8RwUF4aDJXPHAPD92ZiVOHCwqFmtaiMwQkpzN5UAxerv4MGJpIfWsP2o5yinJH8+Bts0nwEvUhXL1TWjC+miCGJKWTrqhi77oNrMutpE7kr6u2lJpBQQQ4V7N91Umqt7/ETZfN4LIbnueIj7u4bmoC4sKJ8T/MmnUnsQ2azm8fuYpUvx9uQiv8ohkzooOT+zawOduZaz5+mqvDa9m1JY5588cT5anBKzyShJgeGhtbadQ44ztpLJnRAXj5e2IWsZy2rYbcghiumHkpw6KgcNN2Sms28/QNl3Pp5TfzxlEdKoVwnefOaTe2U5p9ggNfr+GTP93M5ZfdxpvHT9Ohon8d8KoREYT4aFCJdtdvSIUz9oqYzA0pfRzZvIX1Ow9yTKfC1lFLdpMTqiFTGZ0URuxFt7HkoUWMdmklN8oPLz8DBXtOknrF5UyJ80alCSY2PYq6uiaaKrswO03h+tlDCFKf35WccBF1kj50Jre/+gzXxNXw0VOv8qUINq24ET30ImbdcD8vPpxM+Zt/4aUPDtP4n3yqI5FILhhaWls4ceIEVVVVhIaE8eBDv/8pYfZj+I1P8cHSK9F8+1r/cozbtnzLkRYLfhlX8ZeVL/Ab73w+fORlPtmwi2MFlXSbzhth1D6ExAhn09lKt96MzS6ErrOMbW/9iReyqmhtqUcTF4iXULC+llpK2prpTQrC3laLSWMjMsof58ZKTigD8I4MwM1eT06WgtRQTzrrK/G54xOO5uWTc2w/21Z/yFuPj8ertQ9bTzBJ4Z4YWmoo9lehSgnAJtyNOj6QcF8XOvcv5b4V+ehdPfDwDSY6PJjUpFA0XX3oGwcyaqA/1p5WSi062uMCULWbcTe64e2mwqITbv54DfEhPrj2tGEc+QBbnrgY66GXWXjnck4LV3QWG7qGfNatWcVXhVpcfQIIDAoieWAk4c5m2sw+uHu7obL3UpmbQ0VSPFHeWirzS0kbEoOHyYJR6Y272o6+u4X6ujqaa6opdBF5iPLAVG8hQOGBmxAES18tRw/UMmRACIraEgrDh5IUqkLf00yXcKejE9SUbV7PF5/lotf4EBgYSNDAeCIj3NA1NRPm546vro3Tiit5fvNh8vNPcXDbGpZ++RSXRtoxKxO58pFHuMR+kk+ef56l4lzfP7AQzrWz0cLAhQ9w/5VptH26mFvf2kNDbRU56giCfZRYjT00iGiwtDmMAGU7TR3NeEb64WrqprlOi5eTB96OW+1JCUSK6++h6hZBiTMLXvqGUwV5nDiwg9UfruSl2fEI3T17WoOW5r5g0n/zHjtO5XLi4C42bPuIBxeko2htJibYC1+16vtAUVu+iWfv/4ZmFx/8ffwIjosgdEAEfmoLFrUTahE8OJv6aK6so6m1k8b6OtxSwoh0N9CUD4kBniIosKJtL6fwVDuZMd5orXo6RmcSH3BuHfLvsGipL8hm7651LH3qNXbrx/Lcxy9y66hAEQgUs2fbZtZ//gGvruhiwivv8eqjk4lUnjtWIpH8V+F46Wv69GlMnTqFwYMz0Wg0P+MZs3AIqSOnccvLK1h1z2SClGdYd1zYYGdXApMmcPXvHuWFpQ8zJdBAc1khNT0/3OJEE8bQ2aE0lR9kwzdb2bZ9O9s2rGdXzzTun5pCfPIw3E/tZNU3W/hmwz6q+9yZPDYYfWk3nlp/EoJdxEBZhinBmzAhxk41Z9ivHMzQ5EjiR00jqmAXKzZtY+PKFXz0wXKOVjRTU9tKlRCSCD8rrXU1WN2UREQKV9beiaapka4uLTqLnaBgV5RWI32theQdVzIqSgy0rU1UukYKp+VEX2czHYYuPMNjhBsNx2or49sdYkBdu5YtZ6KZlB6D4dSnPPrCx+yuMBCSdAnTNWJMPu9VasezQ7WrCk9PBabeesoK2vFzcpQlkgE+zWTvPEJeznE2rd5E86QBRFjqKD0CKSIIcff3wU9Tyr51G/lmxed8sXoj+wtK6VaZ8A6OJnV8BN3Np4Tj38zaNavZVjWEBaOCqT5xmL6ZGUQ6mdG2NNBQHMigaF9sLmosPkJcTD3UlJfQ7An+IRaa8oyEC7H2jstkTkILR9dvYcf2jaxc8jqvfltBe2MOa595jmWbTmMKTSBqWJIIJuw/3K63dZD7pQiK3lhFdp2dqGnj8NK44BQ9mLnhpWxfsYGtWzaz9Ug59pnjiDC30JxdS2veITauWcP6Q2YRIKQQYG3HEuSGnxBIlSqEwVdFUX54O1u2b+XrlUt5+/V91Jl+uN+r8PAnOd4P/+ajbF/3DRuWf8RrX31LXl01ZSfNRHv54ubseL58DtEsTcHBKGwGOkXAViLqxi09nGBPP0JVNlpO7GX9+jUse/Mrdh0vpb6hA/fmRtr6fEi/PJySrC1s3r6l/65HnnYis1Ndae9swS0uCK+/7UXGZvJy6+kzx3HVCy+w+K6FTM+MQCPse09xFll9fqTO+B0ff/IAV4wU18r7u3BDIpFI+PvVpaZMmcLYsWP7P/xrnHD2CiImZTTTBvqdp+gKnDVehCamkZqaRLAQwh9wxjdyIMkeXRzcvJk9B4swxE7mtlunk+jtIlykHz4dJ1i98SgdTknMvO4qxsWq6azUo/RKIG1YkHCG9bgEJJA5IAp1dxXHxf5LR8QRHJFAkvE4n329h6rOKKbe+hsmx7rQoddhi01ldKIb2ro2VJpw0lIT8DS1UyAEQSFEYPiwdAKr9rNuaxa1fhmMSwwkLHMYgTbHLfRkLhocjFNvOzqTipikwaTHhgk3XcmRb3dzqD2IyYuuZMbgaCHuUYT0ivyv301BdRDTH1rA+Fivc65OgYurJz4IF3xwBwfqrQRFxZCUns7A5FRSkuzkHypF5x/PoGRvfBLHclGoleoiNakzRxMX7I3GuYFD6/dRqYzj4stnMcjfjE3lR9KAFAaIPLk05rN7516yDQnMu3MekxPd6a6sJnDwFEYEq0Sg0UytOZ4xM9KJCRB/1xxmc1YVKv8IIpPTyBSi4tLmSnhmKrExMSSmKSlcu44tR6vwnngLD1+ZSYCHF54+Jkp3fsPOch0hQ6aycFIKgZpz11nhgpdwv6biQ+zce4BTZHLHdVNJDwsnPM5E9oq1ZFUaiJm6gN9OSUbToxVBigqlvYaDR1sJnziTOTNTcOtswOIdzeDEaHxd3QiIjsapYDurth6i2m8idz54Gek+5zlThRqvIC8sHaf5dtMB6jwzmDtnugiwnGkpURI1UpQ5zKt/NTOHOKv8Qoiw5/LVNwdpMISQOlwEQtGpDB8QRoi7hcb8LHYe7yZmynRmTUrGy9hC3tE6XOIHM3J4Ei5nRAC57YhoHxdx8+9mke5lpKO5g+DkkWQEu/0QADhw8WOAqNPU1BgC3NUov3+Oo8A9ahiTMxMID/L83v1LJJL/u2zbto2jR4/+w9Wlfgw5wYhEIpFIJL8SPzXByI/x07eyJRKJRCKR/MeQwiyRSCQSyQWEFGaJRCKRSC4gpDBLJBKJRHIBIYVZIpFIJJILCCnMEolEIpFcQEhhlkgkEonkAkIKs0QikUgkFxBSmCUSiUQiuYCQwiyRSCQSyQWEFGaJRCKRSC4gpDBLJBKJRHIBIYVZIpFIJJILCCnMEolEIpFcQEhhlkgkEonkAkIKs0QikUgkFxBOdoHjH6+//jr3339//0LO06dP7/9QIpFIJBLJv8+XX37Jrl27+Prrr/v19W85caL03L/OkpQU+ffCLJFIJBKJ5Jfl3xLmw4cPs3379v4PJBKJRCKR/HLMmzeP1NTUc3/9QHe3lt27c8795QD+Hy0V9Q5P1FsbAAAAAElFTkSuQmCC;" vertex="1" parent="1">
          <mxGeometry x="-830" y="336" width="836" height="560.77" as="geometry" />
        </mxCell>
        <mxCell id="snlpnrg-AWKBmWTkGAsz-110" style="shape=partialRectangle;html=1;whiteSpace=wrap;connectable=0;strokeColor=inherit;overflow=hidden;fillColor=none;top=0;left=0;bottom=0;right=0;pointerEvents=1;" vertex="1" parent="1">
          <mxGeometry x="513" y="701" width="247" height="46" as="geometry">
            <mxRectangle width="247" height="46" as="alternateBounds" />
          </mxGeometry>
        </mxCell>
      </root>
    </mxGraphModel>
  </diagram>
</mxfile>
